<svg width="33" height="33" viewBox="0 0 33 33" fill="none" xmlns="http://www.w3.org/2000/svg">
<path d="M15 1.36603C15.9282 0.830127 17.0718 0.830127 18 1.36603L28.8564 7.63397C29.7846 8.16987 30.3564 9.16025 30.3564 10.2321V22.7679C30.3564 23.8397 29.7846 24.8301 28.8564 25.366L18 31.634C17.0718 32.1699 15.9282 32.1699 15 31.634L4.14359 25.366C3.21539 24.8301 2.64359 23.8397 2.64359 22.768V10.2321C2.64359 9.16025 3.21539 8.16987 4.14359 7.63397L15 1.36603Z" fill="url(#paint0_linear_1151_63338)"/>
<path fill-rule="evenodd" clip-rule="evenodd" d="M16.6112 32.0338C16.0566 32.0543 15.4976 31.921 15.0004 31.634L4.14395 25.366C3.72029 25.1214 3.37089 24.7822 3.11621 24.3837L4.43725 23.503L16.6112 30.7232V32.0338Z" fill="#EA78AC"/>
<path d="M15.0002 2.4928C15.9284 1.9569 17.072 1.9569 18.0002 2.4928L27.8808 8.19736C28.809 8.73326 29.3808 9.72364 29.3808 10.7954V22.2046C29.3808 23.2764 28.809 24.2668 27.8808 24.8027L18.0002 30.5072C17.072 31.0431 15.9284 31.0431 15.0002 30.5072L5.11959 24.8027C4.19139 24.2668 3.61959 23.2764 3.61959 22.2046V10.7954C3.61959 9.72365 4.19139 8.73326 5.11959 8.19736L15.0002 2.4928Z" fill="url(#paint1_linear_1151_63338)"/>
<path fill-rule="evenodd" clip-rule="evenodd" d="M16.611 30.9073C16.0564 30.9277 15.4975 30.7944 15.0003 30.5074L5.11974 24.8028C4.67613 24.5467 4.31392 24.1868 4.05664 23.7638L5.42203 22.8094L16.611 28.9934V30.9073Z" fill="#F58DBC"/>
<path d="M14.9812 3.41914C15.9187 2.86901 17.0804 2.86902 18.0179 3.41914L26.9227 8.64461C27.8405 9.18322 28.4043 10.1678 28.4043 11.232V21.768C28.4043 22.8322 27.8405 23.8168 26.9227 24.3554L18.0179 29.5808C17.0804 30.131 15.9187 30.131 14.9812 29.5808L6.0764 24.3554C5.15854 23.8168 4.59473 22.8322 4.59473 21.768V11.232C4.59473 10.1678 5.15854 9.18322 6.0764 8.64461L14.9812 3.41914Z" fill="url(#paint2_linear_1151_63338)"/>
<rect x="13.0273" y="12.8841" width="7.37438" height="7.37438" fill="url(#paint3_linear_1151_63338)"/>
<defs>
<linearGradient id="paint0_linear_1151_63338" x1="16.2729" y1="32.452" x2="16.7758" y2="0.547976" gradientUnits="userSpaceOnUse">
<stop stop-color="#DA457A"/>
<stop offset="1" stop-color="#EE84B8"/>
</linearGradient>
<linearGradient id="paint1_linear_1151_63338" x1="15.0041" y1="-16.5268" x2="15.2005" y2="39.245" gradientUnits="userSpaceOnUse">
<stop stop-color="#F04582"/>
<stop offset="1" stop-color="#EE84B8"/>
</linearGradient>
<linearGradient id="paint2_linear_1151_63338" x1="16.8687" y1="29.9577" x2="16.1651" y2="3.04224" gradientUnits="userSpaceOnUse">
<stop stop-color="#DA457A"/>
<stop offset="1" stop-color="#EE84B8"/>
</linearGradient>
<linearGradient id="paint3_linear_1151_63338" x1="16.7145" y1="12.8841" x2="16.7145" y2="21.1194" gradientUnits="userSpaceOnUse">
<stop stop-color="#FFC9E8"/>
<stop offset="0.94953" stop-color="#FAA9D1"/>
</linearGradient>
</defs>
</svg>
