<svg width="32" height="33" viewBox="0 0 32 33" fill="none" xmlns="http://www.w3.org/2000/svg">
<path d="M14.5 1.36603C15.4282 0.830127 16.5718 0.830127 17.5 1.36603L28.3564 7.63397C29.2846 8.16987 29.8564 9.16025 29.8564 10.2321V22.7679C29.8564 23.8397 29.2846 24.8301 28.3564 25.366L17.5 31.634C16.5718 32.1699 15.4282 32.1699 14.5 31.634L3.64359 25.366C2.71539 24.8301 2.14359 23.8397 2.14359 22.768V10.2321C2.14359 9.16025 2.71539 8.16987 3.64359 7.63397L14.5 1.36603Z" fill="url(#paint0_linear_1151_63326)"/>
<path d="M14.5002 2.4928C15.4284 1.9569 16.572 1.9569 17.5002 2.4928L27.3808 8.19736C28.309 8.73326 28.8808 9.72364 28.8808 10.7954V22.2046C28.8808 23.2764 28.309 24.2668 27.3808 24.8027L17.5002 30.5072C16.572 31.0431 15.4284 31.0431 14.5002 30.5072L4.61959 24.8027C3.69139 24.2668 3.11959 23.2764 3.11959 22.2046V10.7954C3.11959 9.72365 3.69139 8.73326 4.61959 8.19736L14.5002 2.4928Z" fill="url(#paint1_linear_1151_63326)"/>
<path d="M14.4812 3.41917C15.4187 2.86905 16.5804 2.86905 17.5179 3.41917L26.4227 8.64464C27.3405 9.18325 27.9043 10.1678 27.9043 11.232V21.768C27.9043 22.8322 27.3405 23.8168 26.4227 24.3554L17.5179 29.5809C16.5804 30.131 15.4187 30.131 14.4812 29.5809L5.5764 24.3554C4.65854 23.8168 4.09473 22.8322 4.09473 21.768V11.232C4.09473 10.1678 4.65854 9.18325 5.5764 8.64464L14.4812 3.41917Z" fill="url(#paint2_linear_1151_63326)"/>
<rect x="12.3125" y="12.8126" width="7.37438" height="7.37438" fill="url(#paint3_linear_1151_63326)"/>
<defs>
<linearGradient id="paint0_linear_1151_63326" x1="8.7303" y1="33.8632" x2="7.88643" y2="6.3648" gradientUnits="userSpaceOnUse">
<stop offset="0.173787" stop-color="#A9A9A9"/>
<stop offset="1" stop-color="#D5D5D5"/>
</linearGradient>
<linearGradient id="paint1_linear_1151_63326" x1="14.914" y1="31.3732" x2="14.8124" y2="1.63082" gradientUnits="userSpaceOnUse">
<stop stop-color="#BDBDBD"/>
<stop offset="1" stop-color="#C5C5C5"/>
</linearGradient>
<linearGradient id="paint2_linear_1151_63326" x1="15.1301" y1="29.9934" x2="3.51127" y2="10.7188" gradientUnits="userSpaceOnUse">
<stop offset="0.173787" stop-color="#A9A9A9"/>
<stop offset="1" stop-color="#D5D5D5"/>
</linearGradient>
<linearGradient id="paint3_linear_1151_63326" x1="15.9997" y1="12.8126" x2="15.9997" y2="23.4603" gradientUnits="userSpaceOnUse">
<stop stop-color="white"/>
<stop offset="0.920539" stop-color="#D3D3D3"/>
</linearGradient>
</defs>
</svg>
