<svg viewBox="0 0 129 128" fill="none" xmlns="http://www.w3.org/2000/svg">
<g filter="url(#filter0_d_9226_15545)">
<path d="M62.1034 17.9748C63.6514 17.4114 65.3486 17.4114 66.8966 17.9748L92.9572 27.4601C94.5052 28.0236 95.8053 29.1144 96.629 30.5412L110.496 54.5587C111.319 55.9854 111.614 57.6567 111.328 59.2791L106.512 86.5908C106.226 88.2132 105.377 89.683 104.115 90.7419L82.8707 108.568C81.6087 109.627 80.014 110.208 78.3665 110.208H50.6335C48.986 110.208 47.3913 109.627 46.1293 108.568L24.8845 90.7419C23.6225 89.683 22.774 88.2132 22.4879 86.5908L17.6721 59.2791C17.386 57.6567 17.6807 55.9854 18.5045 54.5587L32.371 30.5412C33.1947 29.1144 34.4948 28.0236 36.0428 27.4601L62.1034 17.9748Z" fill="#132838"/>
<path d="M67.7517 15.6256C65.6513 14.8611 63.3487 14.8611 61.2483 15.6256L35.1878 25.1109C33.0874 25.8753 31.3235 27.3554 30.2059 29.2912L16.3394 53.3087C15.2218 55.2444 14.822 57.512 15.2101 59.7132L20.0259 87.025C20.414 89.2262 21.5653 91.2203 23.2776 92.657L44.5223 110.483C46.2346 111.92 48.3983 112.708 50.6335 112.708H78.3665C80.6017 112.708 82.7654 111.92 84.4777 110.483L105.722 92.657C107.435 91.2203 108.586 89.2262 108.974 87.025L113.79 59.7132C114.178 57.512 113.778 55.2444 112.661 53.3087L98.7941 29.2912C97.6765 27.3554 95.9126 25.8753 93.8122 25.1109L67.7517 15.6256Z" stroke="#6843D9" stroke-width="5"/>
</g>
<path d="M62.1043 22.3782C63.6524 21.8147 65.3495 21.8147 66.8976 22.3782L90.1284 30.8335C91.6765 31.3969 92.9765 32.4878 93.8002 33.9145L106.161 55.3241C106.985 56.7508 107.279 58.4222 106.993 60.0446L102.701 84.3906C102.414 86.013 101.566 87.4828 100.304 88.5417L81.366 104.433C80.104 105.491 78.5092 106.072 76.8618 106.072H52.1401C50.4927 106.072 48.8979 105.491 47.6359 104.433L28.6981 88.5417C27.436 87.4828 26.5875 86.013 26.3014 84.3906L22.0085 60.0446C21.7225 58.4222 22.0172 56.7508 22.8409 55.3241L35.2017 33.9145C36.0254 32.4878 37.3255 31.3969 38.8736 30.8335L62.1043 22.3782Z" fill="#422B88"/>
<path d="M69.0393 44.5271H54.6632C53.4766 44.5271 52.5039 43.5544 52.5039 42.3678C52.5039 41.1812 53.4766 40.2085 54.6632 40.2085H66.4909C68.1639 40.2085 69.7785 40.6754 71.1986 41.5508L81.509 47.8925H83.9406V58.0275H77.2487C74.9337 58.0275 72.716 57.1132 71.0819 55.4986L67.697 52.1527L69.0199 44.5465L69.0393 44.5271Z" fill="#FBD099"/>
<path d="M70.5378 45.6164H56.1618C54.9751 45.6164 54.0024 44.6438 54.0024 43.4571C54.0024 42.2705 54.9751 41.2979 56.1618 41.2979H66.3748C67.8338 41.2979 69.2734 41.6869 70.5378 42.4067L71.8801 43.1848H70.5378V45.6164Z" fill="#E2B481"/>
<path d="M56.2384 43.2041H70.6145V47.5421H56.2384C55.0518 47.5421 54.0791 46.5695 54.0791 45.3828C54.0791 44.1962 55.0518 43.2235 56.2384 43.2235V43.2041Z" fill="#FBD099"/>
<path d="M89.9138 46.3561V60.1872L84.7003 60.0316C83.747 60.0316 83.0078 59.2924 83.0078 58.3392V47.8345C83.0078 46.8813 83.747 46.1421 84.7003 46.1421L89.9138 46.2977V46.3561Z" fill="#AB90FF"/>
<path d="M85.8467 59.5251C85.8467 60.9257 86.975 62.054 88.3562 62.054C89.7374 62.054 90.8657 60.9257 90.8657 59.5251V46.9001C90.8657 45.4994 89.7374 44.5462 88.3562 44.3712C87.1695 44.2155 85.9829 45.4022 85.8467 46.9001V59.5251Z" fill="#6843D9"/>
<path d="M75.4581 52.8865L69.4793 47.2327C68.5269 46.3321 67.0248 46.3741 66.1242 47.3264C65.2236 48.2787 65.2656 49.7808 66.2179 50.6814L72.1968 56.3352C73.1491 57.2358 74.6512 57.1938 75.5518 56.2415C76.4524 55.2892 76.4105 53.7871 75.4581 52.8865Z" fill="#E2B481"/>
<path d="M68.5523 49.4292C67.9103 48.8261 66.9182 48.865 66.3152 49.4875C65.7121 50.11 65.9455 50.0128 65.9066 50.324C65.9845 50.4407 66.1012 50.5574 66.1984 50.6742L72.1901 56.335C73.046 57.152 74.3689 57.1909 75.2637 56.4906C75.2637 56.0627 75.1081 55.6347 74.7774 55.3234L68.5523 49.4486V49.4292Z" fill="#FBD099"/>
<path d="M58.9619 85.2226H73.3379C74.5246 85.2226 75.4973 86.1952 75.4973 87.3819C75.4973 88.5685 74.5246 89.5412 73.3379 89.5412H61.5103C59.8373 89.5412 58.2226 89.0743 56.8025 88.1989L46.4922 81.8572H44.0605V71.7222H50.7525C53.0675 71.7222 55.2852 72.6365 56.9193 74.2511L60.3042 77.597L58.9813 85.2031L58.9619 85.2226Z" fill="#FBD099"/>
<path d="M57.4639 84.1333H71.8399C73.0266 84.1333 73.9993 85.106 73.9993 86.2926C73.9993 87.4792 73.0266 88.4519 71.8399 88.4519H61.6269C60.1679 88.4519 58.7283 88.0628 57.4639 87.3431L56.1216 86.5649H57.4639V84.1333Z" fill="#E2B481"/>
<path d="M71.7821 86.5464H57.406V82.2084H71.7821C72.9687 82.2084 73.9414 83.181 73.9414 84.3676C73.9414 85.5543 72.9687 86.5269 71.7821 86.5269V86.5464Z" fill="#FBD099"/>
<path d="M38.0894 83.3946V69.5635L43.3029 69.7191C44.2561 69.7191 44.9953 70.4583 44.9953 71.4115V81.9162C44.9953 82.8694 44.2561 83.6086 43.3029 83.6086L38.0894 83.453V83.3946Z" fill="#AB90FF"/>
<path d="M42.1542 70.2242C42.1542 68.8236 41.0259 67.6953 39.6447 67.6953C38.2636 67.6953 37.1353 68.8236 37.1353 70.2242V82.8492C37.1353 84.2499 38.2636 85.2031 39.6447 85.3781C40.8314 85.5338 42.0181 84.3471 42.1542 82.8492V70.2242Z" fill="#6843D9"/>
<path d="M52.5468 76.8567L58.5256 82.5105C59.478 83.411 60.9801 83.3691 61.8807 82.4168C62.7813 81.4644 62.7393 79.9623 61.787 79.0617L55.8081 73.4079C54.8558 72.5074 53.3537 72.5493 52.4531 73.5017C51.5525 74.454 51.5944 75.9561 52.5468 76.8567Z" fill="#E2B481"/>
<path d="M59.4478 80.3201C60.0897 80.9232 61.0818 80.8843 61.6849 80.2618C62.288 79.6393 62.0545 79.7365 62.0934 79.4253C62.0156 79.3086 61.8989 79.1918 61.8016 79.0751L55.81 73.4143C54.954 72.5973 53.6312 72.5584 52.7363 73.2587C52.7363 73.6866 52.892 74.1146 53.2227 74.4259L59.4478 80.3007V80.3201Z" fill="#FBD099"/>
<path d="M76.1004 64.7975L61.5882 51.939C60.9851 51.4138 60.1097 51.3165 59.4094 51.7056C58.3784 52.2697 56.7637 52.8533 55.1491 52.3086C53.5345 51.7639 53.5928 52.2503 53.087 52.8339L49.4492 56.9384C48.9045 57.5609 48.8462 58.4752 49.2742 59.195C50.0523 60.4789 50.1496 62.0741 49.5465 63.4358C48.9435 64.7975 49.3714 65.0893 49.9939 65.6534L64.3117 78.3368C64.8953 78.862 65.7318 78.9593 66.4321 78.6092C67.7355 77.9672 69.389 78.0256 70.7507 78.6286C71.5094 78.9593 72.3848 78.7648 72.949 78.1423L76.7424 73.8626C77.2676 73.2596 77.3843 72.3842 76.9953 71.7033C76.1588 70.2054 76.0421 68.2796 76.6257 66.9179C77.2093 65.5562 76.7229 65.3227 76.1199 64.778L76.1004 64.7975Z" fill="#772A5B"/>
<path d="M76.8988 63.8444L62.3865 50.9859C61.7835 50.4607 60.9081 50.3634 60.2077 50.7524C59.1767 51.3166 57.5621 51.9002 55.9474 51.3555C54.3328 50.8108 54.3912 51.2971 53.8854 51.8807L50.2476 55.9853C49.7029 56.6078 49.6445 57.5221 50.0725 58.2419C50.8506 59.5258 50.9479 61.1209 50.3449 62.4826C49.7418 63.8444 50.1698 64.1362 50.7923 64.7003L65.11 77.3837C65.6936 77.9089 66.5301 78.0062 67.2304 77.656C68.5338 77.0141 70.1873 77.0724 71.5491 77.6755C72.3078 78.0062 73.1832 77.8117 73.7473 77.1892L77.5407 72.9095C78.066 72.3064 78.1827 71.431 77.7936 70.7502C76.9571 69.2523 76.8404 67.3265 77.424 65.9647C78.0076 64.603 77.5213 64.3696 76.9182 63.8249L76.8988 63.8444Z" fill="#9A3865"/>
<path d="M52.1731 63.1643L52.3093 62.7752C52.854 61.1217 52.7373 59.3126 51.9981 57.7369L51.823 57.3478C51.7841 57.27 51.8035 57.1727 51.8619 57.1144L55.169 53.3794C55.2273 53.321 55.3051 53.3016 55.383 53.321L55.8498 53.4572C56.4529 53.6323 57.0754 53.7295 57.6979 53.7295C58.7484 53.7295 59.8183 53.4767 60.7521 52.9709L61.219 52.718C61.2968 52.6791 61.3941 52.6985 61.4524 52.7374L75.42 65.1096C75.4783 65.1679 75.5172 65.2652 75.4783 65.343L75.3227 65.7515C74.6418 67.5607 74.7586 69.5838 75.6534 71.2957L75.8479 71.6847C75.8869 71.7625 75.8674 71.8598 75.8285 71.9182L72.5214 75.6531C72.4631 75.7115 72.3658 75.7504 72.288 75.7115L71.9378 75.5753C71.218 75.303 70.4399 75.1279 69.6618 75.1085C68.8836 75.089 67.7748 75.2641 66.8994 75.6337L66.452 75.8282C66.3741 75.8671 66.2963 75.8282 66.238 75.7893L52.251 63.3977C52.1926 63.3394 52.1731 63.2615 52.1926 63.1837L52.1731 63.1643Z" fill="#CB4E74"/>
<path d="M60.2453 57.6002L59.7979 59.0397C59.7785 59.1175 59.7979 59.2148 59.8563 59.2926L60.8484 60.3236C61.004 60.4792 60.8873 60.7321 60.6733 60.7516L59.156 60.8294C59.0781 60.8294 59.0003 60.8878 58.9614 60.9461L58.2611 62.1717C58.1638 62.3467 57.8915 62.3273 57.8137 62.1328L57.2884 60.771C57.2495 60.6932 57.1912 60.6349 57.1133 60.6154L55.7127 60.2653C55.5182 60.2069 55.4598 59.954 55.6154 59.8178L56.7437 58.9814C56.8021 58.923 56.841 58.8452 56.841 58.7674L56.7243 57.25C56.7243 57.036 56.9577 56.8999 57.1328 57.036L58.2805 57.892C58.3584 57.9503 58.4556 57.9503 58.5334 57.9114L59.8952 57.2889C60.0897 57.1917 60.3037 57.3862 60.2453 57.6002Z" fill="#FFE05E"/>
<path d="M65.6731 62.3463L65.2256 63.7858C65.2062 63.8636 65.2256 63.9609 65.284 64.0387L66.2761 65.0697C66.4318 65.2253 66.315 65.4782 66.101 65.4977L64.5837 65.5755C64.5059 65.5755 64.4281 65.6338 64.3891 65.6922L63.6888 66.9177C63.5916 67.0928 63.3192 67.0734 63.2414 66.8788L62.7162 65.5171C62.6772 65.4393 62.6189 65.381 62.5411 65.3615L61.1404 65.0113C60.9459 64.953 60.8875 64.7001 61.0432 64.5639L62.1715 63.7274C62.2298 63.6691 62.2687 63.5913 62.2687 63.5135L62.152 61.9961C62.152 61.7821 62.3854 61.646 62.5605 61.7821L63.7083 62.6381C63.7861 62.6964 63.8834 62.6964 63.9612 62.6575L65.3229 62.035C65.5174 61.9378 65.7314 62.1323 65.6731 62.3463Z" fill="#FFE05E"/>
<path d="M71.199 67.3258L70.7515 68.7653C70.7321 68.8431 70.7515 68.9404 70.8099 69.0182L71.802 70.0492C71.9576 70.2048 71.8409 70.4577 71.6269 70.4772L70.1096 70.555C70.0317 70.555 69.9539 70.6133 69.915 70.6717L69.2147 71.8972C69.1174 72.0723 68.8451 72.0529 68.7673 71.8583L68.242 70.4966C68.2031 70.4188 68.1448 70.3605 68.0669 70.341L66.6663 69.9908C66.4718 69.9325 66.4134 69.6796 66.569 69.5434L67.6973 68.7069C67.7557 68.6486 67.7946 68.5708 67.7946 68.493L67.6779 66.9756C67.6779 66.7616 67.9113 66.6255 68.0864 66.7616L69.2342 67.6176C69.312 67.6759 69.4092 67.6759 69.4871 67.637L70.8488 67.0145C71.0433 66.9173 71.2573 67.1118 71.199 67.3258Z" fill="#FFE05E"/>
<defs>
<filter id="filter0_d_9226_15545" x="0.56543" y="0.552246" width="127.869" height="126.656" filterUnits="userSpaceOnUse" color-interpolation-filters="sRGB">
<feFlood flood-opacity="0" result="BackgroundImageFix"/>
<feColorMatrix in="SourceAlpha" type="matrix" values="0 0 0 0 0 0 0 0 0 0 0 0 0 0 0 0 0 0 127 0" result="hardAlpha"/>
<feOffset/>
<feGaussianBlur stdDeviation="6"/>
<feComposite in2="hardAlpha" operator="out"/>
<feColorMatrix type="matrix" values="0 0 0 0 0 0 0 0 0 0 0 0 0 0 0 0 0 0 0.25 0"/>
<feBlend mode="normal" in2="BackgroundImageFix" result="effect1_dropShadow_9226_15545"/>
<feBlend mode="normal" in="SourceGraphic" in2="effect1_dropShadow_9226_15545" result="shape"/>
</filter>
</defs>
</svg>
