<svg  viewBox="0 0 129 128" fill="none" xmlns="http://www.w3.org/2000/svg">
<g filter="url(#filter0_d_9226_15567)">
<path d="M62.1034 17.9748C63.6514 17.4114 65.3486 17.4114 66.8966 17.9748L92.9572 27.4601C94.5052 28.0236 95.8053 29.1144 96.629 30.5412L110.496 54.5587C111.319 55.9854 111.614 57.6567 111.328 59.2791L106.512 86.5908C106.226 88.2132 105.377 89.683 104.115 90.7419L82.8707 108.568C81.6087 109.627 80.014 110.208 78.3665 110.208H50.6335C48.986 110.208 47.3913 109.627 46.1293 108.568L24.8845 90.7419C23.6225 89.683 22.774 88.2132 22.4879 86.5908L17.6721 59.2791C17.386 57.6567 17.6807 55.9854 18.5045 54.5587L32.371 30.5412C33.1947 29.1144 34.4948 28.0236 36.0428 27.4601L62.1034 17.9748Z" fill="#132838"/>
<path d="M67.7517 15.6256C65.6513 14.8611 63.3487 14.8611 61.2483 15.6256L35.1878 25.1109C33.0874 25.8753 31.3235 27.3554 30.2059 29.2912L16.3394 53.3087C15.2218 55.2444 14.822 57.512 15.2101 59.7132L20.0259 87.025C20.414 89.2262 21.5653 91.2203 23.2776 92.657L44.5223 110.483C46.2346 111.92 48.3983 112.708 50.6335 112.708H78.3665C80.6017 112.708 82.7654 111.92 84.4777 110.483L105.722 92.657C107.435 91.2203 108.586 89.2262 108.974 87.025L113.79 59.7132C114.178 57.512 113.778 55.2444 112.661 53.3087L98.7941 29.2912C97.6765 27.3554 95.9126 25.8753 93.8122 25.1109L67.7517 15.6256Z" stroke="#00AC81" stroke-width="5"/>
</g>
<path d="M62.1043 22.3782C63.6524 21.8147 65.3495 21.8147 66.8976 22.3782L90.1284 30.8335C91.6765 31.3969 92.9765 32.4878 93.8002 33.9145L106.161 55.3241C106.985 56.7508 107.279 58.4222 106.993 60.0446L102.701 84.3906C102.414 86.013 101.566 87.4828 100.304 88.5417L81.366 104.433C80.104 105.491 78.5092 106.072 76.8618 106.072H52.1401C50.4927 106.072 48.8979 105.491 47.6359 104.433L28.6981 88.5417C27.436 87.4828 26.5875 86.013 26.3014 84.3906L22.0085 60.0446C21.7225 58.4222 22.0172 56.7508 22.8409 55.3241L35.2017 33.9145C36.0254 32.4878 37.3255 31.3969 38.8736 30.8335L62.1043 22.3782Z" fill="#004F4F"/>
<g clip-path="url(#clip0_9226_15567)">
<path d="M77.9095 49.4463H54.3682C53.3839 49.4668 52.5226 50.1025 52.1945 51.0253C51.7024 52.3581 50.7181 54.2037 48.8315 55.0034C47.9702 55.3725 47.3755 56.2133 47.396 57.1566V63.8005C47.396 64.8053 48.0932 65.6871 49.057 65.9946C50.8001 66.5278 52.174 67.9017 52.7277 69.6242C53.2814 71.3467 53.9171 71.2647 54.9219 71.2647H78.1351C79.0784 71.2442 79.9192 70.6495 80.2883 69.7883C80.965 68.1478 82.503 66.8764 84.2255 66.3432C85.1893 66.0357 85.825 65.1539 85.825 64.1491V57.2181C85.825 56.2543 85.2098 55.3725 84.287 55.0444C82.3184 54.3677 80.6779 52.7067 80.1037 51.0047C79.5295 49.3027 78.8938 49.4668 77.93 49.4668L77.9095 49.4463Z" fill="#B4BC4D"/>
<path d="M77.8915 47.9287H54.3501C53.3658 47.9492 52.5045 48.5849 52.1764 49.5077C51.6843 50.8406 50.7 52.6861 48.8134 53.4858C47.9521 53.855 47.3574 54.6957 47.378 55.639V62.2829C47.378 63.2877 48.0752 64.1695 49.039 64.4771C50.782 65.0102 52.1559 66.3841 52.7096 68.1066C53.2633 69.8291 53.899 69.7471 54.9038 69.7471H78.117C79.0603 69.7266 79.9011 69.1319 80.2702 68.2707C80.9469 66.6302 82.4849 65.3588 84.2074 64.8257C85.93 64.2925 85.8069 63.6363 85.8069 62.6315V55.7005C85.8069 54.7367 85.1917 53.8549 84.2689 53.5269C82.3003 52.8502 80.6598 51.1892 80.0856 49.4872C79.7781 48.5644 78.8758 47.9492 77.912 47.9492L77.8915 47.9287Z" fill="#D8EA4B"/>
<path d="M54.9039 67.2251L54.6989 66.7535C53.8581 64.8054 52.2996 63.2674 50.3515 62.4267L49.8799 62.2216C49.7773 62.1806 49.7158 62.0986 49.7158 61.9961V55.9263C49.7158 55.8238 49.7568 55.7417 49.8594 55.7007L50.3925 55.4546C51.0897 55.1265 51.7049 54.7164 52.2791 54.2038C53.2429 53.3425 53.9812 52.2557 54.4528 51.0664L54.6784 50.4717C54.7194 50.3692 54.8014 50.3076 54.9244 50.3076H77.5635C77.666 50.2871 77.7686 50.3486 77.8096 50.4512L77.9941 50.9433C78.8349 53.1375 80.5779 54.8805 82.7721 55.7212L83.2643 55.9058C83.3668 55.9468 83.4283 56.0288 83.4283 56.1519V62.2011C83.4283 62.3037 83.3668 62.4062 83.2643 62.4472L82.8336 62.6112C81.9519 62.9393 81.1111 63.411 80.3934 64.0057C79.4911 64.7644 78.7939 65.6666 78.3017 66.6919L78.0557 67.2251C78.0146 67.3071 77.9326 67.3686 77.8301 67.3686H55.15C55.0475 67.3891 54.9655 67.3276 54.9244 67.2456L54.9039 67.2251Z" fill="#117252"/>
<path d="M57.754 55.3183L58.4922 56.9793C58.5332 57.0819 58.6357 57.1434 58.7383 57.1639L60.4813 57.3074C60.7479 57.3279 60.8504 57.6355 60.6659 57.8201L59.3535 59.112C59.2714 59.194 59.2509 59.2965 59.2714 59.399L59.62 61.06C59.6816 61.3061 59.415 61.5112 59.1894 61.3881L57.6309 60.5884C57.5489 60.5474 57.4464 60.5474 57.3438 60.5884L55.7854 61.3881C55.5598 61.5112 55.2932 61.3061 55.3547 61.06L55.7033 59.399C55.7238 59.2965 55.7033 59.194 55.6213 59.112L54.3089 57.8201C54.1243 57.6355 54.2269 57.3279 54.4934 57.3074L56.2365 57.1639C56.339 57.1639 56.4416 57.0819 56.4826 56.9793L57.2208 55.3183C57.3233 55.0723 57.6719 55.0723 57.7745 55.3183H57.754Z" fill="#5EECBD"/>
<path d="M66.4903 55.2358L67.2285 56.8968C67.2695 56.9993 67.3721 57.0609 67.4746 57.0814L69.2177 57.2249C69.4842 57.2454 69.5868 57.553 69.4022 57.7376L68.0898 59.0294C68.0078 59.1115 67.9873 59.214 68.0078 59.3165L68.3564 60.9775C68.4179 61.2236 68.1513 61.4286 67.9257 61.3056L66.3673 60.5059C66.2852 60.4649 66.1827 60.4649 66.0802 60.5059L64.5217 61.3056C64.2961 61.4286 64.0295 61.2236 64.0911 60.9775L64.4397 59.3165C64.4602 59.214 64.4397 59.1115 64.3576 59.0294L63.0452 57.7376C62.8607 57.553 62.9632 57.2454 63.2298 57.2249L64.9728 57.0814C65.0754 57.0814 65.1779 56.9993 65.2189 56.8968L65.9571 55.2358C66.0597 54.9898 66.4083 54.9898 66.5108 55.2358H66.4903Z" fill="#5EECBD"/>
<path d="M75.5113 55.3183L76.2495 56.9793C76.2905 57.0819 76.3931 57.1434 76.4956 57.1639L78.2386 57.3074C78.5052 57.3279 78.6078 57.6355 78.4232 57.8201L77.1108 59.112C77.0288 59.194 77.0083 59.2965 77.0288 59.399L77.3774 61.06C77.4389 61.3061 77.1723 61.5112 76.9467 61.3881L75.3883 60.5884C75.3062 60.5474 75.2037 60.5474 75.1012 60.5884L73.5427 61.3881C73.3171 61.5112 73.0505 61.3061 73.112 61.06L73.4606 59.399C73.4812 59.2965 73.4607 59.194 73.3786 59.112L72.0662 57.8201C71.8817 57.6355 71.9842 57.3279 72.2508 57.3074L73.9938 57.1639C74.0964 57.1639 74.1989 57.0819 74.2399 56.9793L74.9781 55.3183C75.0807 55.0723 75.4293 55.0723 75.5318 55.3183H75.5113Z" fill="#5EECBD"/>
<path d="M59.045 73.4374C58.9835 73.5194 58.9425 73.6015 58.9015 73.704C58.6349 74.3807 58.7579 75.1599 59.1681 75.7546L59.2911 75.9392C59.2911 75.9392 61.1162 78.8715 62.6746 80.4505C64.2331 82.0294 66.1402 83.4033 66.1402 83.4033V88.0787H77.3367V81.4963C77.5623 81.2092 77.7058 80.8811 77.7058 80.4915L77.8699 69.8079C77.8699 68.9466 77.2342 68.1674 76.4139 68.0853C75.5937 68.0033 74.8965 68.5365 74.6709 69.2747V68.6595C74.7324 67.6957 73.9121 66.7935 73.0919 66.6909C72.2716 66.5884 71.5129 67.019 71.2053 67.6957L71.3078 66.8345C71.4104 65.7887 70.4671 64.9069 69.5648 64.9069C68.6625 64.9069 67.9243 65.6451 67.8423 66.5474C67.8423 66.5474 67.6372 68.7005 67.6167 68.721L67.4321 68.639V65.8707C67.4321 65.8297 67.4321 65.7477 67.4321 65.7272V63.4794C67.4321 62.4746 66.4068 61.6954 65.525 61.7774C64.6228 61.8594 63.9871 62.6797 63.9871 63.5819L64.0281 67.7983V76.985L61.6493 72.9863C60.8291 72.3916 59.7217 72.5352 59.127 73.3554L59.045 73.4579V73.4374Z" fill="#E2B583"/>
<path d="M77.7257 80.4911L77.8897 69.8075C77.8897 68.9462 77.254 68.167 76.4338 68.085C75.9621 68.044 75.5315 68.208 75.2239 68.4746C74.9983 68.6797 74.8343 68.9257 74.7522 69.2128V69.1103C74.7522 69.1718 74.7112 69.2128 74.6907 69.2743V68.6592C74.7522 67.6954 73.932 66.7931 73.1117 66.6906C72.2915 66.5881 71.5327 67.0187 71.2251 67.6954L71.3277 66.8341C71.4302 65.7883 70.4869 64.9066 69.5846 64.9066C68.6824 64.9066 67.9441 65.6448 67.8621 66.547C67.8621 66.547 67.657 68.7002 67.6365 68.7207L67.452 68.6387V65.8703C67.452 65.8293 67.452 65.7473 67.452 65.7268V63.4955C67.452 63.434 67.452 63.3519 67.452 63.2904C67.3904 62.8188 67.1034 62.4292 66.7342 62.1626C66.119 62.4087 65.6679 63.0238 65.6474 63.7621L65.6884 68.044V76.1438C65.7089 77.0051 64.7451 77.4972 64.0479 76.9846L61.6692 72.9859H61.5256C61.1975 73.109 60.4183 73.9907 61.5256 75.9798C62.2639 77.1281 66.7342 83.0134 71.5738 83.2594C76.4133 83.485 77.4181 81.4754 77.4181 81.4754C77.4181 81.4754 77.7462 80.8807 77.7462 80.5116L77.7257 80.4911Z" fill="#FBD099"/>
<path d="M65.6069 91.2973L65.3813 86.6014C65.3813 85.7402 66.017 85.0635 66.8783 85.043L76.3318 84.8994C77.193 84.8994 77.8697 85.5351 77.8902 86.3964L78.1158 91.0922L65.6479 91.2973H65.5864H65.6069Z" fill="#AB90FF"/>
<path d="M66.0998 87.6273C64.8284 87.6273 63.8236 88.6731 63.8441 89.9239C63.8441 91.1748 64.9104 92.1796 66.1613 92.1591L77.5423 91.9745C78.8137 91.9745 79.8185 90.9287 79.798 89.6779C79.798 88.427 78.7317 87.4222 77.4808 87.4427L66.0998 87.6273Z" fill="#6843D9"/>
<path d="M86.1278 51.9825C85.3454 51.9825 84.7622 51.3789 84.7622 50.5966C84.7622 47.333 82.1021 44.6729 78.8385 44.6729C78.0061 44.6385 77.4302 44.0471 77.4302 43.2647C77.4302 42.4823 78.0561 41.8564 78.8385 41.8564C83.6445 41.8564 87.5564 45.7683 87.5564 50.5742C87.5564 51.4237 86.9305 51.9825 86.1481 51.9825H86.1278Z" fill="#5EECBD"/>
<path d="M89.8811 51.9839C89.0987 51.9839 88.5176 51.3804 88.5176 50.598C88.5176 45.2556 84.181 40.919 78.8385 40.919C77.9433 40.919 77.4302 40.2932 77.4302 39.5108C77.4302 38.7284 78.0561 38.1025 78.8385 38.1025C85.7234 38.1025 91.3118 43.6909 91.3118 50.5757C91.2636 51.6258 90.6859 51.9839 89.9035 51.9839H89.8811Z" fill="#5EECBD"/>
<path d="M51.842 75.4357C47.0359 75.4357 43.124 71.5239 43.124 66.7403C43.124 65.9579 43.7499 65.332 44.51 65.332C45.2923 65.332 45.9182 65.9579 45.9182 66.7179C45.9182 68.305 46.5441 69.7803 47.6618 70.898C48.7795 72.0157 50.2548 72.6192 51.842 72.6192C52.6243 72.6192 53.2502 73.2451 53.2502 74.0051C53.2502 74.7875 52.6243 75.4133 51.8643 75.4133L51.842 75.4357Z" fill="#5EECBD"/>
<path d="M51.8435 79.191C48.5128 79.191 45.3832 77.8946 43.0361 75.5475C40.6666 73.2004 39.3701 70.0709 39.3701 66.7403C39.3701 65.9579 39.996 65.332 40.756 65.332C41.5384 65.332 42.1643 65.9579 42.1643 66.7179C42.1643 69.3109 43.1702 71.7251 45.0032 73.558C46.8362 75.391 49.2504 76.3745 51.8435 76.3745C52.6258 76.3745 53.2517 77.0004 53.2517 77.7604C53.2517 78.5428 52.6258 79.1687 51.8658 79.1687L51.8435 79.191Z" fill="#5EECBD"/>
</g>
<defs>
<filter id="filter0_d_9226_15567" x="0.56543" y="0.552246" width="127.869" height="126.656" filterUnits="userSpaceOnUse" color-interpolation-filters="sRGB">
<feFlood flood-opacity="0" result="BackgroundImageFix"/>
<feColorMatrix in="SourceAlpha" type="matrix" values="0 0 0 0 0 0 0 0 0 0 0 0 0 0 0 0 0 0 127 0" result="hardAlpha"/>
<feOffset/>
<feGaussianBlur stdDeviation="6"/>
<feComposite in2="hardAlpha" operator="out"/>
<feColorMatrix type="matrix" values="0 0 0 0 0 0 0 0 0 0 0 0 0 0 0 0 0 0 0.25 0"/>
<feBlend mode="normal" in2="BackgroundImageFix" result="effect1_dropShadow_9226_15567"/>
<feBlend mode="normal" in="SourceGraphic" in2="effect1_dropShadow_9226_15567" result="shape"/>
</filter>
<clipPath id="clip0_9226_15567">
<rect width="54" height="54" fill="white" transform="translate(38 38.1025)"/>
</clipPath>
</defs>
</svg>
