<svg viewBox="0 0 129 128" fill="none" xmlns="http://www.w3.org/2000/svg">
<g filter="url(#filter0_d_9226_15590)">
<path d="M62.1034 17.9748C63.6514 17.4114 65.3486 17.4114 66.8966 17.9748L92.9572 27.4601C94.5052 28.0236 95.8053 29.1144 96.629 30.5412L110.496 54.5587C111.319 55.9854 111.614 57.6567 111.328 59.2791L106.512 86.5908C106.226 88.2132 105.377 89.683 104.115 90.7419L82.8707 108.568C81.6087 109.627 80.014 110.208 78.3665 110.208H50.6335C48.986 110.208 47.3913 109.627 46.1293 108.568L24.8845 90.7419C23.6225 89.683 22.774 88.2132 22.4879 86.5908L17.6721 59.2791C17.386 57.6567 17.6807 55.9854 18.5045 54.5587L32.371 30.5412C33.1947 29.1144 34.4948 28.0236 36.0428 27.4601L62.1034 17.9748Z" fill="#132838"/>
<path d="M67.7517 15.6256C65.6513 14.8611 63.3487 14.8611 61.2483 15.6256L35.1878 25.1109C33.0874 25.8753 31.3235 27.3554 30.2059 29.2912L16.3394 53.3087C15.2218 55.2444 14.822 57.512 15.2101 59.7132L20.0259 87.025C20.414 89.2262 21.5653 91.2203 23.2776 92.657L44.5223 110.483C46.2346 111.92 48.3983 112.708 50.6335 112.708H78.3665C80.6017 112.708 82.7654 111.92 84.4777 110.483L105.722 92.657C107.435 91.2203 108.586 89.2262 108.974 87.025L113.79 59.7132C114.178 57.512 113.778 55.2444 112.661 53.3087L98.7941 29.2912C97.6765 27.3554 95.9126 25.8753 93.8122 25.1109L67.7517 15.6256Z" stroke="#FFE25D" stroke-width="5"/>
</g>
<path d="M62.1043 22.3782C63.6524 21.8147 65.3495 21.8147 66.8976 22.3782L90.1284 30.8335C91.6765 31.3969 92.9765 32.4878 93.8002 33.9145L106.161 55.3241C106.985 56.7508 107.279 58.4222 106.993 60.0446L102.701 84.3906C102.414 86.013 101.566 87.4828 100.304 88.5417L81.366 104.433C80.104 105.491 78.5092 106.072 76.8618 106.072H52.1401C50.4927 106.072 48.8979 105.491 47.6359 104.433L28.6981 88.5417C27.436 87.4828 26.5875 86.013 26.3014 84.3906L22.0085 60.0446C21.7225 58.4222 22.0172 56.7508 22.8409 55.3241L35.2017 33.9145C36.0254 32.4878 37.3255 31.3969 38.8736 30.8335L62.1043 22.3782Z" fill="#794305"/>
<path d="M82.4473 74.3418C83.5387 74.3418 84.4119 75.2149 84.4119 76.3064V81.4579C84.4119 84.0991 83.0148 86.1292 80.3735 86.1292L58.7411 86.1947C56.5582 86.1947 54.0479 84.1428 54.0479 81.5016L55.5759 74.3854L82.4255 74.3418H82.4473Z" fill="#E6862F"/>
<path d="M84.4316 74.9976V82.4847C84.4316 84.6239 83.5584 86.6758 82.0086 88.1383L80.1968 89.8628L81.8121 79.1886L84.4098 74.9976H84.4316Z" fill="#A94455"/>
<path d="M82.4898 78.2056V85.8238C82.4898 88.465 80.416 90.5169 77.7747 90.5169H55.9676C53.3263 90.5169 51.2744 88.465 51.2744 85.8238V77.769L82.4898 78.2056Z" fill="#D15D70"/>
<path d="M82.488 78.0528L51.2944 77.769V79.7118C51.2944 80.3666 51.8183 80.8905 52.4732 80.8905H82.4662V78.031L82.488 78.0528Z" fill="#BF4559"/>
<path d="M55.4227 74.3641L83.5602 74.1895C84.2369 74.1895 84.6516 74.9098 84.3242 75.4992L83.08 77.7257C82.7089 78.4024 81.9885 78.8171 81.2245 78.8171H52.2575C51.4062 78.8389 50.9696 77.8566 51.5371 77.2236L53.1525 75.4119C53.7418 74.757 54.5713 74.3859 55.4445 74.3859L55.4227 74.3641Z" fill="#893240"/>
<path d="M69.545 78.8398H62.9526V81.0445H69.545V78.8398Z" fill="#FF9724"/>
<path d="M69.545 81.0225H62.9526V90.5179H69.545V81.0225Z" fill="#FFB844"/>
<path d="M68.5837 56.3342L42.8692 71.767C41.5813 72.5528 39.9878 72.0508 39.2893 70.872L36.386 66.0261C35.6002 64.7382 36.1022 63.1448 37.281 62.4462L62.9955 47.0135C64.2834 46.2276 65.8769 46.7297 66.5754 47.9084L69.4787 52.7544C70.1772 53.9331 69.8716 55.5703 68.5837 56.3342Z" fill="#D65F40"/>
<path d="M47.6271 74.2344L40.489 71.9206L36.2979 63.7349L43.1303 66.005L47.6271 74.2344Z" fill="#D65F40"/>
<path d="M65.049 46.7505L72.0124 48.9988L72.9947 52.7533L66.0968 53.8229L63.7393 50.7015L65.049 46.7505Z" fill="#D65F40"/>
<path d="M45.7506 64.6502L37.1281 62.5547C36.0585 63.2969 35.6437 64.803 36.3859 66.0473V66.0909L44.4408 68.4266L45.7506 64.6502Z" fill="#DE6849"/>
<path d="M75.5915 58.6033L49.877 74.0361C48.5891 74.8219 46.9956 74.3198 46.2971 73.1411L43.3938 68.2952C42.608 67.0073 43.1101 65.4138 44.2888 64.7153L70.0033 49.2825C71.2912 48.4967 72.8847 48.9987 73.5833 50.1775L76.4865 55.0234C77.185 56.2022 76.8794 57.8393 75.5915 58.6033Z" fill="#E87759"/>
<path d="M60.6818 54.8711L53.9585 58.9094L59.5467 68.2302L66.27 64.1919L60.6818 54.8711Z" fill="#FFB844"/>
<path d="M54.1119 56.0944C54.1119 56.0944 49.0695 47.4066 39.0063 51.5104C36.9762 52.4053 35.9066 54.6537 36.8234 56.6837C37.1945 57.5787 37.7621 58.5173 38.6789 59.2595C38.6789 59.2595 38.3296 60.2636 38.4824 61.617C38.6789 63.2759 40.6435 64.1709 42.0624 63.3196L54.0901 56.0944H54.1119Z" fill="#FDBF1C"/>
<path d="M54.112 56.0945C54.112 56.0945 48.8294 47.5596 57.168 40.6181C58.9144 39.2429 61.381 39.3739 62.7562 41.1202C63.3675 41.8842 63.935 42.8228 64.1533 43.9797C64.1533 43.9797 65.2229 44.1543 66.3144 44.9183C67.6896 45.8569 67.5368 48.0398 66.1179 48.8911L54.0902 56.1164L54.112 56.0945Z" fill="#FDBF1C"/>
<path d="M55.7278 55.1345L52.6062 57.0118C51.9295 57.4047 51.0564 57.2083 50.6635 56.5316L50.5543 56.3351C49.8558 55.1564 50.1614 53.5192 51.4493 52.7552L52.5189 52.1222C53.6977 51.4237 55.3349 51.7293 56.0989 53.0172L56.208 53.2136C56.6009 53.8903 56.4045 54.7635 55.7278 55.1564V55.1345Z" fill="#F9D919"/>
<path d="M41.1703 52.4712C40.0352 52.9951 39.4021 54.3266 39.7951 55.549C39.8824 55.9637 40.1661 56.444 40.5809 56.8369C40.7774 56.8805 40.9083 57.1207 41.1048 57.1643C42.8075 57.5791 46.8676 55.7891 48.7013 54.8505C49.1815 54.5667 49.247 53.89 48.7231 53.5626C47.3915 52.4275 44.5319 51.1178 41.1703 52.4712Z" fill="#FFE600"/>
<path d="M54.6339 50.0039C54.874 50.6588 55.6162 50.8553 56.031 50.4623C57.5808 49.0435 60.2221 46.4895 60.7242 44.9179C60.7678 44.7214 60.8552 44.3503 60.9206 44.1539L60.3531 43.2153C59.4799 42.2985 58.1047 42.1457 57.1879 43.0188C54.1755 45.4636 54.2628 48.3013 54.6339 50.0039Z" fill="#FFE600"/>
<path d="M75.0428 74.8232L74.3442 73.3171L78.8192 71.2215C79.9106 70.4575 81.1767 69.7153 82.5737 69.0605C83.9926 68.4056 85.3897 67.9036 86.6557 67.5762L91.1307 65.5024L91.7855 66.8995C91.8074 66.965 91.8292 66.9868 91.8729 67.0959C92.6587 68.7549 89.5153 71.8764 84.8658 74.0374C80.2162 76.1984 75.8286 76.5913 75.0428 74.9542C75.0428 74.9105 75.0428 74.8887 75.0428 74.8669V74.8232Z" fill="#E6862F"/>
<path d="M84.21 72.5521C79.5605 74.7131 75.1729 75.106 74.387 73.4689C73.6012 71.8099 76.7445 68.6884 81.3941 66.5274C86.0437 64.3664 90.4313 63.9735 91.2171 65.6106C92.003 67.2696 88.8596 70.3692 84.21 72.5521Z" fill="#FDF41C"/>
<path d="M90.1268 70.6545L89.5156 69.1702L90.7817 67.7295L91.4147 69.2575C91.0873 69.7159 90.6507 70.1743 90.1486 70.6763L90.1268 70.6545Z" fill="#FFDE00"/>
<path d="M79.4085 75.7835C78.6882 75.8926 78.0551 75.9363 77.4439 75.9363L76.7891 74.5174L78.7318 74.3428L79.3867 75.8053L79.4085 75.7835Z" fill="#D15E1D"/>
<path d="M86.0242 56.8779L86.1498 56.1781L84.5706 54.7246C84.1579 54.2042 83.6196 53.7197 82.9915 53.3788C82.3455 53.0378 81.6636 52.8584 80.9997 52.8046L78.631 52.356L78.4515 52.661C78.4156 52.7328 78.3797 52.7687 78.3439 52.8763C77.321 54.7784 78.2182 57.2368 80.3357 58.3673C82.4532 59.4978 85.0013 58.8698 86.0062 56.9677C86.0062 56.9318 86.0062 56.8959 86.0242 56.8779Z" fill="#FF9A22"/>
<path fill-rule="evenodd" clip-rule="evenodd" d="M84.2656 58.5825L85.0731 57.0752L83.9426 57.3444L83.1172 58.9055C83.5119 58.8517 83.9067 58.744 84.2656 58.5825ZM80.7126 58.5825L81.5201 57.0573L80.7305 56.6266L79.923 58.1339C80.0486 58.2236 80.1742 58.2954 80.3178 58.3672C80.4434 58.4569 80.587 58.4928 80.7126 58.5646V58.5825ZM78.2362 56.16L79.0796 54.5989L78.7746 53.4146L77.9312 55.0116C77.985 55.4064 78.0927 55.8012 78.2362 56.178V56.16Z" fill="#FFDE00"/>
<path d="M80.6052 57.8289C82.7227 58.9594 85.2708 58.3314 86.2757 56.4293C87.2986 54.5272 86.4014 52.0688 84.2839 50.9383C82.1664 49.8078 79.6183 50.4359 78.6134 52.338C77.6085 54.2401 78.4878 56.6984 80.6052 57.8289Z" fill="#FDE71C"/>
<path d="M71.861 65.6134L72.2701 66.5953C72.3029 66.6607 72.352 66.6935 72.4174 66.6935L73.432 66.7589C73.5793 66.7589 73.6448 66.9553 73.5302 67.0535L72.7447 67.7735C72.6956 67.8226 72.6793 67.8717 72.6956 67.9372L72.9247 68.919C72.9575 69.0663 72.8102 69.1809 72.6793 69.1154L71.7792 68.6081C71.7301 68.5754 71.6646 68.5754 71.6155 68.6081L70.7155 69.1154C70.5846 69.1809 70.4209 69.0663 70.47 68.919L70.6991 67.9372C70.6991 67.8717 70.6991 67.8062 70.65 67.7735L69.8645 67.0535C69.7499 66.9553 69.8154 66.7589 69.9627 66.7589L70.9773 66.6935C71.0428 66.6935 71.1082 66.6444 71.1246 66.5953L71.5337 65.6134C71.5992 65.4661 71.7956 65.4661 71.861 65.6134Z" fill="#F9D919"/>
<path d="M66.5376 68.7916L67.3473 70.7146C67.3877 70.836 67.5092 70.917 67.6306 70.917L69.6345 71.0587C69.9382 71.0587 70.0596 71.4432 69.837 71.6457L68.2986 73.0625C68.2176 73.1435 68.1772 73.265 68.1974 73.3864L68.6427 75.3093C68.7035 75.5927 68.3998 75.8356 68.1367 75.6737L66.3756 74.6819C66.2744 74.6211 66.153 74.6211 66.0518 74.6819L64.2908 75.6737C64.0276 75.8154 63.724 75.5927 63.7847 75.3093L64.23 73.3864C64.2503 73.265 64.23 73.1435 64.1288 73.0625L62.5905 71.6457C62.3678 71.4432 62.5095 71.0789 62.7929 71.0587L64.7968 70.917C64.9183 70.917 65.0397 70.836 65.0802 70.7146L65.8898 68.7916C66.0113 68.5083 66.3959 68.5083 66.5174 68.7916H66.5376Z" fill="#F9D919"/>
<defs>
<filter id="filter0_d_9226_15590" x="0.56543" y="0.552246" width="127.869" height="126.656" filterUnits="userSpaceOnUse" color-interpolation-filters="sRGB">
<feFlood flood-opacity="0" result="BackgroundImageFix"/>
<feColorMatrix in="SourceAlpha" type="matrix" values="0 0 0 0 0 0 0 0 0 0 0 0 0 0 0 0 0 0 127 0" result="hardAlpha"/>
<feOffset/>
<feGaussianBlur stdDeviation="6"/>
<feComposite in2="hardAlpha" operator="out"/>
<feColorMatrix type="matrix" values="0 0 0 0 0 0 0 0 0 0 0 0 0 0 0 0 0 0 0.25 0"/>
<feBlend mode="normal" in2="BackgroundImageFix" result="effect1_dropShadow_9226_15590"/>
<feBlend mode="normal" in="SourceGraphic" in2="effect1_dropShadow_9226_15590" result="shape"/>
</filter>
</defs>
</svg>
