<?xml version="1.0" encoding="utf-8"?>
<svg xmlns="http://www.w3.org/2000/svg" fill="none" height="24" viewBox="0 0 25 24" width="25">
<g clip-path="url(#clip0_3860_11212)" id="icon">
<g id="Mobile App">
<g id="Group">
<path d="M10.5468 4.05003C10.2831 4.03844 10.0194 4.0877 9.7876 4.20072L9.94408 2.71996C10.1759 2.60695 10.4425 2.55769 10.7033 2.56928C10.6511 3.0619 10.599 3.55741 10.5468 4.05003Z" fill="#E47AE8" id="Vector"/>
<path d="M10.5469 4.05003C10.599 3.55741 10.6512 3.06189 10.7034 2.56927C11.1322 2.58666 11.5553 2.76342 11.819 3.06769L11.6625 4.54844C11.3988 4.24418 10.9757 4.07031 10.5469 4.05003Z" fill="#E47AE8" id="Vector_2"/>
<path d="M15.8469 6.81158L15.6904 8.29234C15.6846 8.3416 15.6527 8.38507 15.5977 8.41115L15.7541 6.93039C15.8092 6.90431 15.8411 6.85795 15.8469 6.81158Z" fill="#E47AE8" id="Vector_3"/>
<path d="M23.555 16.661L23.3985 18.1447L11.6626 4.54551L11.8191 3.06476L23.555 16.661Z" fill="#E47AE8" id="Vector_4"/>
<path d="M12.3667 6.28706C12.1291 6.24359 11.8741 6.26677 11.6597 6.37109L11.8161 4.89034C12.0306 4.78602 12.2856 4.76284 12.5232 4.80631C12.471 5.29892 12.4189 5.79444 12.3667 6.28706Z" fill="#2A2472" id="Vector_5"/>
<path d="M12.9666 6.61451C12.8217 6.44644 12.6043 6.33342 12.3696 6.28996C12.4218 5.79734 12.4739 5.30182 12.5261 4.8092C12.7608 4.85267 12.9782 4.96568 13.123 5.13375C13.0767 5.57711 13.0129 6.17115 12.9666 6.61451Z" fill="#2A2472" id="Vector_6"/>
<path d="M9.94426 2.71991L9.78778 4.20066L1.78418 8.10394L1.94356 6.62029L9.94426 2.71991Z" fill="#E47AE8" id="Vector_7"/>
<path d="M8.10986 6.15959C8.16202 5.66697 8.21418 5.17145 8.26634 4.67883C8.28083 4.67883 8.29242 4.68173 8.30691 4.68463C8.25475 5.17725 8.20259 5.67276 8.15043 6.16538C8.13594 6.16538 8.12435 6.15959 8.10986 6.15959Z" fill="#2A2472" id="Vector_8"/>
<path d="M8.10985 6.15956C8.08087 6.15956 8.049 6.15956 8.02002 6.15956C8.07218 5.66694 8.12434 5.17143 8.1765 4.67881C8.20548 4.67591 8.23735 4.67591 8.26633 4.67881C8.21417 5.17143 8.16201 5.66694 8.10985 6.15956Z" fill="#2A2472" id="Vector_9"/>
<path d="M7.98535 6.16538C8.03751 5.67276 8.08967 5.17725 8.14183 4.68463C8.15342 4.68463 8.16501 4.68173 8.1766 4.67883C8.12445 5.17145 8.07228 5.66697 8.02013 6.15959C8.00853 6.15959 7.99694 6.16248 7.98535 6.16538Z" fill="#2A2472" id="Vector_10"/>
<path d="M8.25471 6.20016C8.22284 6.18567 8.18516 6.17408 8.15039 6.16538C8.20255 5.67277 8.25471 5.17725 8.30687 4.68463C8.34454 4.69043 8.37931 4.70202 8.41119 4.7194C8.35903 5.21202 8.30687 5.70754 8.25471 6.20016Z" fill="#2A2472" id="Vector_11"/>
<path d="M8.25488 6.20011C8.30704 5.7075 8.3592 5.21198 8.41136 4.71936C8.41716 4.71936 8.42005 4.72516 8.42585 4.72805C8.37369 5.22067 8.32153 5.71619 8.26937 6.20881C8.26358 6.20881 8.26068 6.20301 8.25488 6.20011Z" fill="#2A2472" id="Vector_12"/>
<path d="M7.98534 6.16538C7.95346 6.17118 7.92449 6.18277 7.89551 6.19436L8.05199 4.71361C8.08096 4.69912 8.10994 4.69043 8.14182 4.68463C8.08966 5.17725 8.0375 5.67277 7.98534 6.16538Z" fill="#2A2472" id="Vector_13"/>
<path d="M8.36516 6.28125C8.33908 6.25228 8.3072 6.2262 8.26953 6.20591C8.32169 5.71329 8.37385 5.21778 8.42601 4.72516C8.46368 4.74544 8.49556 4.76863 8.52163 4.8005C8.568 4.85266 8.58539 4.91351 8.57959 4.97147L8.42311 6.45222C8.42891 6.39427 8.41152 6.33341 8.36516 6.28125Z" fill="#2A2472" id="Vector_14"/>
<path d="M8.57969 4.9715L8.42321 6.45225C8.41451 6.52759 8.36525 6.59714 8.27832 6.63771L8.4348 5.15695C8.52173 5.11349 8.57099 5.04684 8.57969 4.9715Z" fill="#333343" id="Vector_15"/>
<path d="M8.05499 4.71356L7.89561 6.19721L4.98047 7.61711L5.13695 6.13636L8.05499 4.71356Z" fill="#2A2472" id="Vector_16"/>
<path d="M4.98034 7.61717C4.8934 7.66063 4.84414 7.72728 4.83545 7.80262L4.99193 6.32187C5.00062 6.24653 5.04988 6.17988 5.13682 6.13641C5.09045 6.57977 5.0267 7.17381 4.98034 7.61717Z" fill="#2A2472" id="Vector_17"/>
<path d="M8.43441 5.15692L8.27794 6.63767L5.36279 8.06047L5.51927 6.57972L8.43441 5.15692Z" fill="#333343" id="Vector_18"/>
<path d="M4.83555 7.80259L4.99203 6.32184C4.98623 6.37979 5.00362 6.44065 5.04998 6.49281C5.1543 6.61451 5.36584 6.65508 5.51942 6.57974L5.36294 8.06049C5.20936 8.13583 5.00072 8.09526 4.8935 7.97356C4.84714 7.9214 4.82975 7.86055 4.83555 7.80259Z" fill="#333343" id="Vector_19"/>
<path d="M8.05503 4.71362C8.20861 4.63828 8.41725 4.67884 8.52157 4.80055C8.62589 4.92226 8.58822 5.08163 8.43463 5.15697L5.51949 6.57977C5.36591 6.65511 5.15727 6.61455 5.05006 6.49284C4.94574 6.37113 4.98341 6.21176 5.13699 6.13642L8.05213 4.71362H8.05503Z" fill="#6843D9" id="Vector_20"/>
<path d="M1.20752 8.84871L1.364 7.36795C1.39587 7.06948 1.59582 6.7913 1.94355 6.62323L1.78707 8.10398C1.43934 8.27205 1.23939 8.55024 1.20752 8.84871Z" fill="#E47AE8" id="Vector_21"/>
<path d="M1.20769 8.84867L1.36417 7.36792C1.34099 7.59684 1.41343 7.83736 1.59889 8.05179L1.44241 9.53254C1.25985 9.31811 1.18451 9.07759 1.20769 8.84867Z" fill="#2A2472" id="Vector_22"/>
<path d="M0.700468 8.81968L0.856946 7.33893C0.827969 7.62001 0.917799 7.91848 1.14672 8.17928L0.990243 9.66003C0.764218 9.39633 0.67149 9.10076 0.700468 8.81968Z" fill="#8846A7" id="Vector_23"/>
<path d="M11.8193 4.89038L11.6628 6.37113L3.65918 10.2744L3.81856 8.79366L11.8193 4.89038Z" fill="#2A2472" id="Vector_24"/>
<path d="M3.25928 10.7931L3.41576 9.31234C3.43894 9.1037 3.57513 8.91245 3.81854 8.79364L3.66207 10.2744C3.42155 10.3903 3.28246 10.5845 3.25928 10.7931Z" fill="#2A2472" id="Vector_25"/>
<path d="M3.25911 10.7931L3.41559 9.31232C3.3982 9.47169 3.45036 9.63976 3.57786 9.78755L3.42138 11.2683C3.29388 11.1205 3.24172 10.9524 3.25911 10.7931Z" fill="#6843D9" id="Vector_26"/>
<path d="M13.6736 21.4829L13.5143 22.9636L3.42139 11.2683L3.57787 9.78754L13.6736 21.4829Z" fill="#6843D9" id="Vector_27"/>
<path d="M13.3348 21.6481L13.1783 23.1288L1.44238 9.53254L1.59886 8.04889L13.3348 21.6481Z" fill="#2A2472" id="Vector_28"/>
<path d="M2.69408 10.0107L2.5376 11.4915L0.987305 9.66007L1.14378 8.17932L2.69408 10.0107Z" fill="#8846A7" id="Vector_29"/>
<path d="M2.44477 11.6103L2.60125 10.1295C2.59835 10.1672 2.60994 10.2049 2.63892 10.2396L2.48244 11.7204C2.45346 11.6856 2.44187 11.6479 2.44477 11.6103Z" fill="#E47AE8" id="Vector_30"/>
<path d="M3.72556 11.5001L3.56908 12.9809L2.48242 11.7204L2.6389 10.2396L3.72556 11.5001Z" fill="#E47AE8" id="Vector_31"/>
<path d="M4.05036 11.5436L3.89388 13.0244C3.77218 13.0823 3.63888 13.0591 3.56934 12.978L3.72581 11.4973C3.79246 11.5755 3.92866 11.6016 4.05036 11.5436Z" fill="#8C42AF" id="Vector_32"/>
<path d="M4.28811 11.8536L4.12873 13.3373L3.89111 13.0243L4.05049 11.5436L4.28811 11.8536Z" fill="#8846A7" id="Vector_33"/>
<path d="M4.03559 13.4561L4.19207 11.9753C4.18917 12.013 4.20076 12.0507 4.22974 12.0855L4.07326 13.5662C4.04428 13.5314 4.03269 13.4938 4.03559 13.4561Z" fill="#E47AE8" id="Vector_34"/>
<path d="M5.31928 13.3431L5.1599 14.8268L4.07324 13.5663L4.23262 12.0855L5.31928 13.3431Z" fill="#E47AE8" id="Vector_35"/>
<path d="M5.64118 13.3894L5.4847 14.8702C5.363 14.9282 5.2297 14.905 5.16016 14.8238L5.31663 13.3431C5.38328 13.4213 5.51948 13.4474 5.64118 13.3894Z" fill="#8C42AF" id="Vector_36"/>
<path d="M23.2162 16.8262L23.0597 18.3099L12.9668 6.61451L13.1233 5.13086L23.2162 16.8262Z" fill="#2A2472" id="Vector_37"/>
<path d="M23.3783 17.3015L23.2218 18.7822C23.2392 18.6228 23.1871 18.4548 23.0596 18.307L23.216 16.8262C23.3435 16.974 23.3957 17.1421 23.3783 17.3015Z" fill="#2A2472" id="Vector_38"/>
<path d="M23.7896 17.3449L23.6332 18.8256C23.6563 18.5967 23.5839 18.3562 23.3984 18.1418L23.5549 16.661C23.7375 16.8725 23.8128 17.116 23.7896 17.3449Z" fill="#E47AE8" id="Vector_39"/>
<path d="M23.3781 17.3015L23.2216 18.7822C23.1985 18.9908 23.0594 19.1821 22.8188 19.3009L22.9753 17.8202C23.2158 17.7013 23.3549 17.5101 23.3781 17.3015Z" fill="#6843D9" id="Vector_40"/>
<path d="M23.7897 17.3449L23.6333 18.8257C23.6014 19.1241 23.4014 19.4023 23.0537 19.5704L23.2102 18.0896C23.5579 17.9216 23.7579 17.6434 23.7897 17.3449Z" fill="#2A2472" id="Vector_41"/>
<path d="M24.2971 17.3739L24.1406 18.8547C24.1029 19.2227 23.8566 19.5646 23.4277 19.7732L23.5842 18.2925C24.0102 18.0839 24.2565 17.7419 24.2971 17.3739Z" fill="#8846A7" id="Vector_42"/>
<path d="M22.9784 17.8201L22.822 19.3009L14.8184 23.2042L14.9777 21.7234L22.9784 17.8201Z" fill="#6843D9" id="Vector_43"/>
<path d="M23.2104 18.0925L23.0539 19.5733L15.0532 23.4766L15.2097 21.9929L23.2104 18.0925Z" fill="#2A2472" id="Vector_44"/>
<path d="M14.9776 21.7234L14.8211 23.2042C14.3951 23.4128 13.8098 23.3027 13.5171 22.9637L13.6736 21.4829C13.9662 21.8219 14.5516 21.9321 14.9776 21.7234Z" fill="#6843D9" id="Vector_45"/>
<path d="M15.2096 21.9929L15.0531 23.4737C14.4416 23.7722 13.6013 23.6186 13.1782 23.126L13.3347 21.6452C13.7578 22.1349 14.5981 22.2914 15.2096 21.9929Z" fill="#2A2472" id="Vector_46"/>
<path d="M2.54913 9.9949C2.52775 10.022 2.51228 10.0532 2.50424 10.0874C2.48653 10.1629 2.5079 10.2405 2.55988 10.3016L2.56027 10.302L3.64674 11.5623C3.64678 11.5624 3.64683 11.5624 3.64687 11.5625C3.73459 11.6647 3.878 11.6969 4.01216 11.6623L4.146 11.8369C4.12301 11.8649 4.10643 11.8974 4.09801 11.9333C4.0803 12.0087 4.10167 12.0864 4.15365 12.1474L4.15403 12.1479L5.24051 13.4082C5.24056 13.4082 5.24061 13.4083 5.24066 13.4084L5.24069 13.4084L5.31643 13.3431M2.54913 9.9949L12.9169 21.9713L12.917 21.9714C13.4703 22.6108 14.5547 22.8083 15.346 22.4218M2.54913 9.9949L1.06515 8.24185C1.06503 8.24171 1.06491 8.24157 1.06479 8.24143C0.785267 7.9182 0.691908 7.53811 0.776959 7.18547C0.861803 6.83369 1.12082 6.52257 1.51995 6.32762L1.52001 6.32759L9.80463 2.28815C10.5959 1.90164 11.6803 2.09911 12.2336 2.73853L12.2337 2.73863L13.7619 4.50924M2.54913 9.9949L13.7619 4.50924M5.31643 13.3431C5.38598 13.4242 5.51927 13.4474 5.64098 13.3895M5.31643 13.3431L4.22977 12.0826M5.31643 13.3431L4.22977 12.0826M5.64098 13.3895L5.56528 13.4548L5.61031 13.507C5.63535 13.5002 5.66005 13.4911 5.68397 13.4798L5.64098 13.3895ZM5.64098 13.3895L12.9926 21.906C13.5142 22.5087 14.5487 22.7 15.3021 22.3319M15.3021 22.3319L15.3459 22.4218L15.346 22.4218M15.3021 22.3319L23.5868 18.2925L15.346 22.4218M15.3021 22.3319L15.346 22.4218M14.0561 4.67302L14.1318 4.60768L14.1319 4.6078C14.1319 4.60785 14.1319 4.60789 14.132 4.60794L15.8849 6.63901L15.8853 6.6395C15.9373 6.70052 15.9587 6.77819 15.941 6.85362C15.933 6.88759 15.9177 6.91858 15.8966 6.94553L24.0855 16.4681L13.6885 4.53637C13.7123 4.52503 13.7369 4.51598 13.7619 4.50924M14.0561 4.67302C13.9865 4.59188 13.8532 4.5687 13.7315 4.62666M14.0561 4.67302L15.8092 6.70435M14.0561 4.67302L15.8092 6.70435M13.7315 4.62666L13.7709 4.58727L13.8043 4.55842L13.8022 4.55596L13.8022 4.55594L13.8019 4.55564L13.7619 4.50924M13.7315 4.62666L13.7297 4.62283L13.7315 4.62666ZM15.8092 6.70435C15.8536 6.75644 15.8581 6.82009 15.8271 6.8705L15.8092 6.70435ZM4.22977 12.0826C4.18091 12.0252 4.18033 11.9538 4.22233 11.9016L4.22977 12.0826ZM23.4792 16.7264L23.4792 16.7264C23.6719 16.9494 23.7283 17.1994 23.6743 17.4236C23.6201 17.6488 23.4511 17.8614 23.1664 17.9997L23.1662 17.9998L15.1655 21.903L15.1655 21.903C14.592 22.183 13.8016 22.0329 13.4102 21.5798L1.67431 7.98356L1.67428 7.98353C1.48165 7.76055 1.42522 7.5105 1.47922 7.28631C1.53345 7.06119 1.70246 6.84857 1.98714 6.71026L1.98729 6.71019L9.98799 2.80691L9.98801 2.8069C10.5615 2.52697 11.3519 2.67708 11.7433 3.13011C11.7433 3.13012 11.7433 3.13013 11.7433 3.13014L23.4792 16.7264Z" fill="#E47AE8" id="Vector_47" stroke="#E47AE8" stroke-width="0.2"/>
<path d="M12.1195 5.76863L12.1201 5.76835C12.2125 5.72313 12.3414 5.70517 12.4752 5.72981C12.6101 5.75465 12.7075 5.81453 12.7581 5.87353L12.7592 5.8748L22.3392 16.9761L22.3395 16.9765C22.3634 17.0041 22.3707 17.0239 22.3731 17.0327C22.3753 17.0412 22.3748 17.0463 22.3739 17.0504C22.3729 17.0545 22.3606 17.0986 22.2722 17.1419C22.2721 17.142 22.2721 17.142 22.272 17.1421L14.6775 20.8451L14.6769 20.8454C14.5845 20.8906 14.4556 20.9086 14.3218 20.8839C14.1869 20.8591 14.0895 20.7992 14.039 20.7402L14.0379 20.739L4.45788 9.63765L4.45753 9.63724C4.43368 9.60966 4.42631 9.58989 4.42397 9.58107C4.42171 9.57256 4.42221 9.56747 4.42319 9.56335C4.42418 9.55924 4.43647 9.51512 4.5248 9.47182C4.5249 9.47177 4.52499 9.47173 4.52509 9.47168L12.1195 5.76863Z" fill="#6843D9" id="Vector_48" stroke="#2A2472"/>
<path d="M12.9929 21.906L12.8365 23.3867L5.48486 14.8702L5.64134 13.3895L12.9929 21.906Z" fill="#8846A7" id="Vector_49"/>
<path d="M23.5872 18.2925L23.4278 19.7732L15.146 23.8156L15.3025 22.332L23.5872 18.2925Z" fill="#8846A7" id="Vector_50"/>
<path d="M9.94426 2.71995C10.5586 2.42148 11.396 2.57506 11.8191 3.06768L23.555 16.6639C23.9781 17.1537 23.8245 17.7941 23.2102 18.0925L15.2095 21.9958C14.5981 22.2943 13.7577 22.1407 13.3346 21.6481L1.59872 8.05182C1.17565 7.5621 1.32923 6.9217 1.94356 6.62323L9.94426 2.71995ZM22.677 16.635L13.1376 5.58293C12.8594 5.26128 12.3088 5.15986 11.906 5.35401L4.3458 9.04285C3.94301 9.2399 3.84159 9.66008 4.11977 9.98173L13.6592 21.0338C13.9374 21.3554 14.4879 21.4568 14.8907 21.2598L22.451 17.5709C22.8538 17.3739 22.9552 16.9537 22.677 16.6321M5.13688 6.1364C4.9833 6.21175 4.94563 6.37112 5.04995 6.49283C5.15427 6.61453 5.36581 6.6551 5.51939 6.57976L8.43453 5.15696C8.58811 5.08162 8.62578 4.92224 8.52146 4.80054C8.41714 4.67883 8.20561 4.63826 8.05492 4.71361L5.13978 6.1364" fill="#2A2472" id="Vector_51"/>
<path d="M15.3024 22.332L15.1459 23.8127C14.3925 24.1807 13.358 23.9895 12.8364 23.3868L12.9929 21.906C13.5145 22.5087 14.549 22.7 15.3024 22.332Z" fill="#8846A7" id="Vector_52"/>
</g>
<g id="Group_2">
<g id="Group 1597880592">
<g id="Vector_53" style="mix-blend-mode:overlay">
<path d="M16.2194 1.56963C16.6028 1.39898 17.1635 1.56077 17.476 1.9331L18.726 3.42464C19.0362 3.79476 18.9786 4.23358 18.5974 4.40423L17.0593 5.08906C16.6759 5.25971 16.1152 5.09792 15.8027 4.72559L14.5527 3.23404C14.2425 2.86393 14.3001 2.42511 14.6813 2.25446L16.2194 1.56963Z" fill="#76E783"/>
</g>
<path d="M16.2194 0.8048C16.6028 0.634148 17.1635 0.795935 17.476 1.16827L18.726 2.65981C19.0362 3.02993 18.9786 3.46875 18.5974 3.6394L17.0593 4.32422C16.6759 4.49488 16.1152 4.33309 15.8027 3.96076L14.5527 2.46921C14.2425 2.0991 14.3001 1.66028 14.6813 1.48963L16.2194 0.8048Z" fill="#76E783" id="Vector_54"/>
</g>
<g id="Group 1597880590">
<path d="M18.6945 8.53619C19.305 8.26446 20.1978 8.52208 20.6954 9.11495L22.6858 11.49C23.1798 12.0793 23.0881 12.778 22.4811 13.0498L20.032 14.1402C19.4214 14.412 18.5286 14.1543 18.031 13.5615L16.0407 11.1865C15.5466 10.5971 15.6384 9.89838 16.2453 9.62665L18.6945 8.53619Z" fill="#B6206D" id="Vector_55"/>
<path d="M18.6945 7.31836C19.305 7.04663 20.1978 7.30424 20.6954 7.89711L22.6858 10.2721C23.1798 10.8615 23.0881 11.5602 22.4811 11.8319L20.032 12.9224C19.4214 13.1941 18.5286 12.9365 18.031 12.3436L16.0407 9.96863C15.5466 9.37929 15.6384 8.68055 16.2453 8.40882L18.6945 7.31836Z" fill="#D45898" id="Vector_56"/>
</g>
<g id="Group 1597880594">
<g id="Vector_57" style="mix-blend-mode:overlay">
<path d="M14.3799 14.9366C14.7984 14.7503 15.4104 14.9269 15.7515 15.3333L17.1159 16.9613C17.4545 17.3653 17.3916 17.8443 16.9755 18.0305L15.2967 18.778C14.8782 18.9643 14.2662 18.7877 13.9251 18.3813L12.5608 16.7533C12.2221 16.3493 12.285 15.8703 12.7011 15.6841L14.3799 14.9366Z" fill="#BD8BEF"/>
</g>
<path d="M14.5034 14.076C14.9219 13.8897 15.5339 14.0663 15.875 14.4727L17.2394 16.1007C17.5781 16.5047 17.5152 16.9837 17.0991 17.1699L15.4203 17.9174C15.0018 18.1037 14.3897 17.9271 14.0486 17.5207L12.6843 15.8927C12.3456 15.4887 12.4085 15.0097 12.8246 14.8235L14.5034 14.076Z" fill="#BD8BEF" id="Vector_58"/>
</g>
<g id="Group 1597880593">
<g id="Vector_59" style="mix-blend-mode:overlay">
<path d="M11.2759 8.51011C11.6944 8.32384 12.3064 8.50044 12.6475 8.90684L14.0118 10.5349C14.3505 10.9388 14.2876 11.4178 13.8715 11.6041L12.1927 12.3516C11.7742 12.5378 11.1622 12.3613 10.8211 11.9549L9.45676 10.3268C9.11809 9.92284 9.18099 9.44387 9.59707 9.2576L11.2759 8.51011Z" fill="#65E4F9"/>
</g>
<path d="M11.3994 7.64952C11.8179 7.46325 12.4299 7.63984 12.771 8.04624L14.1354 9.67427C14.4741 10.0783 14.4112 10.5572 13.9951 10.7435L12.3163 11.491C11.8978 11.6772 11.2857 11.5007 10.9446 11.0943L9.5803 9.46623C9.24163 9.06225 9.30452 8.58327 9.7206 8.39701L11.3994 7.64952Z" fill="#65E4F9" id="Vector_60"/>
</g>
</g>
</g>
</g>
<defs>
<clipPath id="clip0_3860_11212">
<rect fill="white" height="24" transform="translate(0.5)" width="24"/>
</clipPath>
</defs>
</svg>