<?xml version="1.0" encoding="utf-8"?>
<svg xmlns="http://www.w3.org/2000/svg" fill="none" height="22" viewBox="0 0 24 22" width="24">
<g id="Group">
<g id="Layer 1">
<g id="Group_2">
<g id="Group_3">
<path d="M22.8918 0.770806L0.943115 8.68222L0.943115 11.792C0.943115 12.279 1.25069 12.7148 1.71204 12.8685L7.48755 14.7994L9.239 19.5155C9.51239 20.2417 10.418 20.4809 11.0161 19.9768L13.0666 18.2425L17.552 21.6429C18.338 22.2409 19.4743 21.8394 19.705 20.8825L22.8405 8.34895C22.9857 7.76798 23.0626 7.16993 23.0626 6.57187V0.719543C23.0626 0.719543 22.9516 0.736631 22.8918 0.762262V0.770806Z" fill="#31A0DF" id="Vector"/>
<g id="Group_4">
<path d="M6.65869 10.8013L9.03383 17.2518L19.5767 2.59943L6.65869 10.8013Z" fill="#007FC7" id="Vector_2"/>
<path d="M9.29001 12.2366L9.05933 17.3116L14.6298 12.5955L9.29001 12.2366Z" fill="#35B6FF" id="Vector_3"/>
<path d="M22.1569 0.130295L1.37017 8.02462C0.780655 8.24675 0.797741 9.08403 1.3958 9.28908L6.75267 11.1003L18.9615 3.22309L9.29013 12.2366L16.8171 17.9438C17.6031 18.5418 18.7394 18.1403 18.9701 17.1834L23.0369 0.907767C23.165 0.386604 22.6524 -0.0747533 22.1483 0.12175L22.1569 0.130295Z" fill="#3ED1FF" id="Vector_4"/>
</g>
</g>
<path clip-rule="evenodd" d="M22.6611 2.41144H16.1503L15.4697 2.66991L6.75269 6.06372H14.5316L18.9563 3.22646L18.9615 3.22309L18.9614 3.22315L18.9616 3.22308L15.9428 6.06372H21.7423L22.1358 4.51389L22.6611 2.41144Z" fill="#88F0FC" fill-rule="evenodd" id="Intersect" opacity="0.7"/>
</g>
</g>
</g>
</svg>