<svg width="24" height="25" viewBox="0 0 24 25" fill="none" xmlns="http://www.w3.org/2000/svg">
<path d="M22.6276 4.47782C22.6927 4.95387 22.7327 5.87596 22.6776 7.19886C22.6225 8.59694 22.432 10.1704 21.9911 11.4632C21.8858 11.7639 21.7756 12.0696 21.6503 12.3702C20.7233 14.6603 19.2651 16.9954 17.7868 18.3534C16.1132 19.8918 13.768 21.9763 11.3577 22.6027C8.91734 23.2441 6.27653 23.4245 4.56276 23.2542C3.46535 23.1439 2.39801 22.9685 1.80671 22.2069C1.75158 22.1367 1.69646 22.0565 1.65137 21.9763C1.34068 21.4301 1.28556 19.7865 1.28055 19.1702C1.27554 18.6741 1.28556 18.2331 1.31062 17.9575C1.42086 16.6897 1.55616 15.3368 1.82675 14.099C2.32284 11.8391 3.82113 9.3987 5.43969 7.75509C7.83997 5.31472 10.6712 3.55586 13.9785 2.81924C14.6449 2.66891 15.3364 2.54864 16.023 2.45343C17.6816 2.22293 19.3653 2.14275 20.3274 2.37827C20.9137 2.51858 21.5702 2.75409 22.0211 3.17001C22.3418 3.46065 22.5675 4.03184 22.6276 4.47782Z" fill="#EB7A3B"/>
<path d="M22.5971 4.27269C22.7625 5.1446 22.8076 7.37451 22.4468 9.58938C22.3416 10.2408 22.1912 10.8822 21.9908 11.4635C21.179 13.8237 19.5755 16.715 17.7866 18.3587C16.1129 19.897 13.7677 21.9816 11.3574 22.608C8.91205 23.2444 6.27124 23.4248 4.56249 23.2544C3.44002 23.1442 2.21733 22.9588 1.65109 21.9716C1.34041 21.4254 1.28528 19.7818 1.28027 19.1654C1.65109 19.5463 3.32978 20.6988 6.78237 19.0802C10.5657 17.3063 16.3885 11.6639 17.7064 8.20633C19.0243 4.74873 18.0121 3.20033 16.0277 2.44367C17.6863 2.21316 19.37 2.13298 20.3322 2.3685C21.4496 2.6391 22.3817 3.15022 22.5971 4.27269Z" fill="#B85F2D"/>
<path d="M22.6779 7.19922C22.6478 7.95588 22.5776 8.7827 22.4473 9.58947C22.3421 10.2409 22.1918 10.8823 21.9913 11.4636C21.8861 11.7643 21.7759 12.0699 21.6506 12.3706C20.7236 14.6606 19.2754 17.0058 17.7871 18.3537C15.7176 20.2329 13.7683 21.9767 11.358 22.6031C11.1074 22.6682 10.8519 22.7284 10.5963 22.7835C10.1704 22.8787 9.73941 22.9589 9.31348 23.024C9.74943 22.8787 10.1754 22.7183 10.6013 22.5279C12.6207 21.6209 14.4548 20.3531 16.0433 18.8348C16.9503 17.9729 17.7771 17.0258 18.5187 16.0186C20.448 13.4029 21.7959 10.3812 22.6779 7.19922Z" fill="#864722"/>
<path d="M22.4473 9.58871C22.2669 10.6711 22.0464 11.3877 21.6506 12.3698C18.1178 10.9667 14.4698 6.81261 13.3122 4.73805C12.8913 3.9864 12.6357 3.17962 12.6357 3.17461C13.3122 2.95914 14.1591 2.73865 15.4419 2.5332C15.5622 3.44521 16.7097 4.9886 17.286 5.625C18.0226 6.43678 18.8845 7.38387 19.7414 8.07037C20.4629 8.64664 21.5052 9.25798 22.4473 9.58871Z" fill="#F2C198"/>
<path d="M10.5956 22.788C9.59841 23.0084 8.57616 23.1538 7.61405 23.2389C6.90249 22.9934 5.16867 22.3119 3.5902 20.4528C2.06185 18.6539 1.84136 17.9072 1.40039 16.885C1.47556 16.0431 1.71107 14.4145 1.96162 13.5176C2.06686 14.0788 2.95381 16.5392 5.50441 19.2903C8.02495 22.0062 10.0093 22.6126 10.5956 22.788Z" fill="#F2C198"/>
<path fill-rule="evenodd" clip-rule="evenodd" d="M17.1582 9.34637C18.5315 10.6116 20.102 11.755 21.6504 12.37C22.0462 11.3878 22.2667 10.6712 22.4471 9.58884C21.505 9.25811 20.4628 8.64677 19.7412 8.0705C19.214 7.64811 18.6848 7.12708 18.1842 6.59961C18.0882 7.08334 17.9313 7.61695 17.7068 8.20597C17.57 8.56483 17.3847 8.94721 17.1582 9.34637Z" fill="#EB7A3B"/>
<path fill-rule="evenodd" clip-rule="evenodd" d="M21.6521 12.3659C22.0451 11.3902 22.265 10.6761 22.4447 9.60295C22.4451 9.60065 22.4455 9.59836 22.4459 9.59607M22.4469 9.58934C22.4469 9.58935 22.447 9.58936 22.447 9.58936L22.4469 9.58934ZM22.4469 9.58934C22.2931 9.53534 22.1366 9.47385 21.9793 9.40625C21.6592 10.3009 21.2979 11.1773 20.8926 12.0296C21.1451 12.156 21.3979 12.2703 21.6502 12.3705C21.6508 12.3689 21.6515 12.3674 21.6521 12.3659" fill="#99542C"/>
<path fill-rule="evenodd" clip-rule="evenodd" d="M3.13672 19.9034C3.8048 19.9606 4.65821 19.8795 5.71597 19.5156C8.1355 22.0409 10.0257 22.6184 10.5955 22.7888C9.59829 23.0093 8.57605 23.1546 7.61393 23.2398C6.90237 22.9943 5.16855 22.3128 3.59009 20.4537C3.42421 20.2584 3.27374 20.0756 3.13672 19.9034Z" fill="#EB7A3B"/>
<path d="M13.2651 6.29523C13.2457 6.31463 13.2263 6.32917 13.2021 6.33887C8.32935 9.09765 3.9027 15.0904 3.85906 15.1534C3.74755 15.3037 3.51482 15.3134 3.34027 15.1728C3.16573 15.0322 3.11724 14.7946 3.22876 14.6443C3.23846 14.6298 4.373 13.0928 6.09905 11.231C7.6942 9.50977 10.1475 7.14856 12.756 5.67463C12.9209 5.5825 13.1536 5.65523 13.2796 5.83947C13.3863 5.99947 13.3718 6.18856 13.2651 6.29523Z" fill="#F2C198"/>
<path d="M6.31133 12.6348C5.9477 12.3002 5.53557 11.8832 5.22527 11.5051C5.15739 11.4178 5.15255 11.2966 5.22043 11.2093L5.26406 11.156C5.35618 11.0348 5.53558 11.0348 5.63255 11.1511C5.9283 11.5099 6.33073 11.9511 6.66042 12.2663C6.75739 12.3584 6.75739 12.5184 6.66042 12.6105L6.63618 12.6348C6.54406 12.7172 6.40345 12.7172 6.31133 12.6348Z" fill="#F2C198"/>
<path fill-rule="evenodd" clip-rule="evenodd" d="M6.12238 12.8431L6.12094 12.8417C5.75138 12.5017 5.3292 12.0751 5.00788 11.6835L5.00555 11.6806L5.0033 11.6777C4.86331 11.4977 4.8449 11.2341 4.99845 11.0366L5.00058 11.0339L5.0438 10.9811C5.2512 10.7143 5.6424 10.7236 5.84864 10.9711L5.8496 10.9722C6.13957 11.324 6.53433 11.7566 6.85453 12.0627C7.06681 12.2648 7.06773 12.6082 6.85727 12.8114L6.82957 12.8391L6.82375 12.8443C6.62485 13.0223 6.32272 13.0223 6.12383 12.8443L6.12238 12.8431ZM6.66045 12.6105C6.75742 12.5184 6.75742 12.3584 6.66045 12.2663C6.33076 11.9511 5.92833 11.5099 5.63258 11.1511C5.53561 11.0348 5.35622 11.0348 5.26409 11.156L5.22046 11.2093C5.15258 11.2966 5.15743 11.4178 5.2253 11.5051C5.53561 11.8832 5.94773 12.3002 6.31136 12.6348C6.40348 12.7172 6.54409 12.7172 6.63621 12.6348L6.66045 12.6105Z" fill="#F2C198"/>
<path d="M4.74981 14.543C4.38617 14.2084 3.97405 13.7915 3.66375 13.4133C3.59587 13.326 3.59102 13.2048 3.6589 13.1175L3.70254 13.0642C3.79466 12.943 3.97405 12.943 4.07102 13.0593C4.36678 13.4181 4.7692 13.8593 5.0989 14.1745C5.19587 14.2666 5.19587 14.4266 5.0989 14.5187L5.07466 14.543C4.98254 14.6254 4.84193 14.6254 4.74981 14.543Z" fill="#F2C198"/>
<path fill-rule="evenodd" clip-rule="evenodd" d="M4.56085 14.7513L4.55942 14.7499C4.18986 14.4099 3.76767 13.9833 3.44635 13.5917L3.44403 13.5888L3.44178 13.5859C3.30178 13.4059 3.28338 13.1423 3.43693 12.9448L3.43906 12.9421L3.48227 12.8893C3.68968 12.6225 4.08088 12.6318 4.28712 12.8793L4.28808 12.8804C4.57805 13.2322 4.97281 13.6648 5.29301 13.9709C5.50529 14.173 5.5062 14.5164 5.29574 14.7196L5.26804 14.7473L5.26222 14.7526C5.06333 14.9305 4.7612 14.9305 4.5623 14.7526L4.56085 14.7513ZM5.09893 14.5187C5.1959 14.4266 5.1959 14.2666 5.09893 14.1745C4.76923 13.8593 4.36681 13.4181 4.07105 13.0593C3.97408 12.943 3.79469 12.943 3.70257 13.0642L3.65893 13.1175C3.59105 13.2048 3.5959 13.326 3.66378 13.4133C3.97408 13.7914 4.3862 14.2084 4.74984 14.543C4.84196 14.6254 4.98257 14.6254 5.07469 14.543L5.09893 14.5187Z" fill="#F2C198"/>
<path d="M8.17983 10.8729C7.81135 10.4899 7.34105 9.93713 7.03074 9.52017C6.96287 9.42804 6.97256 9.30199 7.05014 9.21956L7.07923 9.18562C7.18105 9.07896 7.35074 9.08865 7.43802 9.20502C7.74832 9.60259 8.22832 10.1408 8.57741 10.4947C8.67438 10.5917 8.66468 10.7468 8.56286 10.839L8.50468 10.8923C8.40771 10.9699 8.2671 10.9602 8.17983 10.8729Z" fill="#F2C198"/>
<path fill-rule="evenodd" clip-rule="evenodd" d="M7.97907 11.0698L7.97719 11.0679C7.60089 10.6767 7.12286 10.115 6.80515 9.68805L6.80436 9.68698C6.65518 9.48453 6.67692 9.21112 6.84008 9.03249L6.87062 8.99685L6.87582 8.9914C7.09517 8.76161 7.4675 8.77872 7.66111 9.03367C7.96366 9.42108 8.43503 9.94972 8.77714 10.2966C8.99561 10.516 8.96291 10.8555 8.7524 11.0468L8.6878 11.106L8.68041 11.1119C8.46876 11.2812 8.16707 11.2578 7.981 11.0717L7.97907 11.0698ZM8.5629 10.8389C8.66472 10.7468 8.67442 10.5917 8.57745 10.4947C8.22836 10.1408 7.74836 9.60257 7.43805 9.20499C7.35078 9.08863 7.18108 9.07893 7.07927 9.1856L7.05018 9.21954C6.9726 9.30196 6.9629 9.42802 7.03078 9.52014C7.34108 9.93711 7.81139 10.4898 8.17987 10.8729C8.26714 10.9601 8.40775 10.9698 8.50472 10.8923L8.5629 10.8389Z" fill="#F2C198"/>
<path d="M9.4292 7.3917C9.78314 7.76019 10.2389 8.29352 10.5492 8.70564C10.6316 8.81716 10.6025 8.97231 10.4862 9.04503L10.4377 9.07413C10.3359 9.142 10.1953 9.11291 10.1225 9.01594C9.83163 8.62806 9.38072 8.11898 9.04132 7.76504C8.9492 7.67292 8.95405 7.52261 9.04617 7.43534L9.09466 7.38686C9.18678 7.29474 9.33708 7.29473 9.4292 7.3917Z" fill="#F2C198"/>
<path fill-rule="evenodd" clip-rule="evenodd" d="M10.4862 9.04503L10.4377 9.07412C10.3359 9.142 10.1953 9.11291 10.1225 9.01594C9.83164 8.62806 9.38073 8.11897 9.04134 7.76503C8.94921 7.67291 8.95406 7.52261 9.04619 7.43534L9.09467 7.38685C9.18679 7.29473 9.33709 7.29473 9.42921 7.3917C9.78315 7.76019 10.2389 8.29352 10.5492 8.70564C10.6316 8.81715 10.6025 8.9723 10.4862 9.04503ZM9.63245 7.19729C9.4303 6.98526 9.09845 6.98532 8.8958 7.18798L8.84947 7.23431C8.64902 7.42762 8.63707 7.75576 8.83998 7.96141C9.17486 8.31077 9.6164 8.80983 9.89755 9.18469C10.0522 9.39095 10.3536 9.46299 10.587 9.31251L10.6331 9.28489L10.6352 9.28353C10.8924 9.12283 10.9541 8.78019 10.7754 8.53847L10.7739 8.53647C10.4567 8.11525 9.99388 7.57361 9.63245 7.19729Z" fill="#F2C198"/>
<path d="M11.4876 5.96262C11.8416 6.32626 12.2828 6.85474 12.5882 7.26686C12.6707 7.37838 12.6416 7.52868 12.5252 7.60625L12.5058 7.6208C12.3991 7.68868 12.2634 7.66444 12.1858 7.56747C11.8997 7.18444 11.4585 6.6705 11.1143 6.31171C11.0173 6.20989 11.0319 6.04505 11.1434 5.96262L11.1676 5.94323C11.2694 5.86565 11.4052 5.87535 11.4876 5.96262Z" fill="#F2C198"/>
<path fill-rule="evenodd" clip-rule="evenodd" d="M12.1858 7.56739C11.8997 7.18436 11.4585 6.67042 11.1143 6.31164C11.0173 6.20982 11.0319 6.04497 11.1434 5.96255L11.1676 5.94315C11.2694 5.86558 11.4052 5.87527 11.4876 5.96255C11.8416 6.32618 12.2828 6.85467 12.5882 7.26679C12.6706 7.3783 12.6416 7.5286 12.5252 7.60618L12.5058 7.62072C12.3991 7.6886 12.2634 7.66436 12.1858 7.56739ZM12.6888 7.83503L12.6659 7.85221L12.6568 7.858C12.4273 8.00404 12.1322 7.95063 11.9662 7.74309L11.9633 7.73943L11.9605 7.73568C11.6822 7.36313 11.2487 6.85797 10.9113 6.50635L10.9106 6.5056C10.6992 6.28361 10.7274 5.92501 10.9711 5.74021L10.9945 5.72146L10.9972 5.71944C11.2056 5.56064 11.503 5.5711 11.6904 5.76763C12.0542 6.14163 12.5029 6.67928 12.8142 7.09932L12.8144 7.09961C12.9945 7.34333 12.9269 7.67045 12.6888 7.83503Z" fill="#F2C198"/>
</svg>
