<svg width="325" height="342" viewBox="0 0 325 342" fill="none" xmlns="http://www.w3.org/2000/svg">
<path d="M73.9108 242.696C74.186 240.845 74.3235 238.993 74.3235 237.141C74.3235 227.746 71.0905 219.105 65.6564 212.246C65.5188 212.109 65.3812 211.972 65.3124 211.835V211.698C63.0424 209.023 61.7355 205.594 61.7355 201.822C61.7355 198.599 62.7673 195.581 64.487 193.112C64.487 193.112 64.487 193.112 64.487 193.044C53.1371 169.246 46.8087 142.637 46.8087 114.518C46.8087 87.223 52.7932 61.2993 63.5239 38.0503C38.4167 54.6469 21.9078 83.0395 21.9078 115.341C21.9078 121.171 22.458 126.863 23.4899 132.418C18.6748 129.949 13.3094 128.509 7.53125 128.44C17.0239 138.659 22.802 152.375 22.802 167.394C22.802 176.173 20.8072 184.471 17.2302 191.878C19.7066 193.181 21.4262 195.718 21.4262 198.736C21.4262 200.793 20.6008 202.576 19.3626 203.948C12.8279 211.081 8.76941 220.613 8.76941 231.106C8.76941 246.88 17.9181 260.528 31.194 267.18C33.5328 286.52 46.6023 302.568 64.2806 309.22C59.1216 301.196 56.1637 291.732 56.1637 281.513C56.1637 277.467 56.6452 273.558 57.5395 269.717C66.2754 263.408 72.3287 253.807 73.9108 242.696ZM53.825 244.754C53.5498 245.44 53.3434 246.194 53.0683 246.88C49.6289 256.687 47.7717 267.249 47.7717 278.221C47.7717 280.69 47.9093 283.159 48.1156 285.56C40.1363 273.558 34.8397 259.705 32.9825 244.754C32.8449 243.862 32.7761 242.971 32.7073 242.011C32.8449 236.181 37.5912 231.518 43.4381 231.518C49.4226 231.518 54.2377 236.318 54.2377 242.285C54.1001 243.108 54.0313 243.931 53.825 244.754Z" fill="url(#paint0_linear_5681_72957)"/>
<path d="M172.549 271.774V271.705C172.48 271.088 172.48 270.539 172.411 269.922C172.274 268.345 172.136 266.767 171.999 265.259C171.93 264.573 171.861 263.887 171.723 263.201C171.517 261.555 171.242 259.909 170.967 258.263C170.898 257.921 170.829 257.509 170.76 257.166C170.417 255.52 170.073 253.874 169.729 252.297C169.591 251.611 169.385 250.994 169.247 250.308C169.041 249.416 168.766 248.456 168.491 247.565C168.284 246.742 168.078 245.987 167.803 245.233C167.665 244.753 167.459 244.273 167.321 243.793C166.702 241.941 166.083 240.089 165.395 238.306C165.258 237.895 165.12 237.483 164.914 237.14C161.887 229.459 158.035 222.121 153.426 215.332C149.849 207.651 147.854 199.146 147.854 190.094C147.854 183.03 149.093 176.172 151.363 169.862C150.193 171.783 148.13 173.086 145.722 173.086C142.214 173.086 139.325 170.342 139.187 166.845C138.981 165.199 138.706 163.621 138.362 162.044C138.293 161.838 138.293 161.564 138.224 161.358C137.88 159.849 137.536 158.272 137.124 156.832C137.055 156.626 136.986 156.42 136.917 156.146C136.505 154.569 136.023 153.06 135.541 151.551C135.541 151.483 135.541 151.483 135.473 151.414C134.922 149.768 134.303 148.191 133.684 146.613C133.134 145.242 132.515 143.87 131.827 142.498C131.758 142.361 131.689 142.156 131.552 142.018C130.314 139.412 128.938 136.943 127.356 134.474C127.218 134.269 127.149 134.063 127.012 133.926C126.186 132.691 125.43 131.457 124.536 130.291L124.467 130.222C123.641 129.057 122.747 127.891 121.853 126.793C121.784 126.656 121.646 126.588 121.578 126.45C120.683 125.353 119.72 124.256 118.757 123.159C118.62 123.021 118.551 122.884 118.413 122.747C117.45 121.718 116.487 120.69 115.524 119.73C115.456 119.661 115.387 119.592 115.387 119.592C114.355 118.564 113.323 117.604 112.291 116.712C112.085 116.506 111.879 116.369 111.672 116.163C109.609 114.38 107.408 112.666 105.206 111.088C104.931 110.883 104.656 110.677 104.381 110.54C103.212 109.717 102.042 108.962 100.873 108.276C100.735 108.208 100.598 108.139 100.46 108.002C99.3595 107.316 98.2589 106.699 97.0895 106.082C96.8831 105.945 96.608 105.808 96.4016 105.739C95.1634 105.122 93.9253 104.505 92.6871 103.887C92.412 103.75 92.2056 103.682 91.9304 103.544C90.7611 102.996 89.5917 102.516 88.4223 102.036C88.216 101.967 88.0784 101.898 87.872 101.83C86.5651 101.35 85.2581 100.87 83.9512 100.39C83.676 100.321 83.3321 100.184 83.0569 100.115C81.6812 99.7038 80.3742 99.2923 78.9297 98.8809C94.9571 113.763 104.931 135.023 104.931 158.546C104.931 163.073 104.518 167.462 103.831 171.783C107.683 180.424 109.815 190.025 109.815 200.107C109.815 207.033 108.783 213.754 106.926 220.132C106.376 221.984 105.963 223.836 105.688 225.756C105.619 226.373 105.55 226.99 105.482 227.47C105.482 227.676 105.413 227.882 105.413 228.088C105.275 229.665 105.206 231.242 105.206 232.82C105.206 236.455 105.55 239.952 106.169 243.381C106.101 243.587 106.032 243.793 105.894 243.999C106.032 243.93 106.101 243.861 106.238 243.724C106.513 245.096 106.788 246.467 107.132 247.839C108.095 251.542 109.402 255.109 110.984 258.469C113.598 264.024 117.175 269.168 121.303 273.626C128.732 276.437 135.198 281.17 139.944 287.342C139.944 287.342 140.013 287.342 140.013 287.41C140.15 287.548 140.219 287.753 140.357 287.959C141.732 289.811 142.97 291.731 144.071 293.788C148.473 301.127 151.982 308.945 154.664 317.243C156.315 322.387 157.553 327.736 158.448 333.154C158.516 333.566 158.585 333.977 158.654 334.388C158.86 333.566 158.998 332.674 159.135 331.851C165.533 319.986 169.866 306.819 171.655 292.828C171.861 290.977 172.067 289.125 172.205 287.205C172.274 286.587 172.274 285.97 172.343 285.353C172.411 284.667 172.411 283.981 172.48 283.296C172.549 281.718 172.618 280.141 172.618 278.563C172.755 276.095 172.687 273.9 172.549 271.774ZM161.405 292.623C160.855 296.326 160.167 300.029 159.273 303.596C158.448 299.618 157.347 295.709 155.902 292.005C151.363 280.072 143.727 269.579 134.028 261.555C133.272 261.075 132.652 260.527 131.965 259.978C131.483 259.566 131.07 259.086 130.658 258.606C130.589 258.538 130.589 258.538 130.52 258.469C130.107 257.989 129.763 257.509 129.419 257.029C128.663 255.863 128.044 254.56 127.631 253.188C127.631 253.12 127.562 253.051 127.562 252.983C127.425 252.434 127.287 251.817 127.149 251.268C127.149 251.131 127.081 250.925 127.081 250.788C127.012 250.102 126.943 249.416 126.943 248.731C126.943 240.295 133.822 233.437 142.283 233.437C147.442 233.437 152.05 235.975 154.802 239.884C155.834 242.353 156.728 244.959 157.553 247.496C158.104 249.142 158.585 250.857 158.998 252.571C159.067 252.914 159.204 253.326 159.273 253.668C159.686 255.383 160.098 257.166 160.442 258.949C160.442 258.949 160.442 258.949 160.442 259.018C160.786 260.87 161.062 262.721 161.337 264.573C161.337 264.779 161.405 264.984 161.405 265.19C161.681 267.11 161.818 269.031 161.956 270.951C162.025 272.117 162.093 273.351 162.162 274.517C162.231 275.752 162.231 276.986 162.231 278.221C162.437 283.158 162.025 287.959 161.405 292.623Z" fill="url(#paint1_linear_5681_72957)"/>
<path fill-rule="evenodd" clip-rule="evenodd" d="M244.639 214.716C244.639 207.584 242.369 201 238.654 195.514C232.188 190.576 227.992 182.826 227.992 174.048C227.992 170.276 228.749 166.71 230.125 163.486C218.844 160.537 210.52 150.319 210.52 138.18C210.52 137.974 210.52 137.837 210.52 137.631C208.182 137.22 206.256 135.711 205.292 133.654C190.503 108.896 167.941 89.2815 140.977 78.1714C156.798 97.4427 168.285 120.349 173.994 145.518C174.957 149.633 175.714 153.816 176.333 158C182.318 164.104 185.963 172.47 185.963 181.66C185.963 184.541 185.551 187.284 184.932 189.959C190.847 196.062 194.562 204.429 194.562 213.619C194.562 218.077 193.667 222.329 192.154 226.238C196.144 229.05 199.927 232.067 203.573 235.359C204.605 236.457 205.636 237.485 206.806 238.446C210.108 241.737 213.272 245.235 216.092 248.938C225.103 260.529 231.913 274.039 235.696 288.716C240.855 276.028 243.744 262.106 243.744 247.567C243.744 240.914 243.125 234.399 241.956 228.021C243.676 223.906 244.639 219.449 244.639 214.716ZM233.426 258.403C229.437 245.989 221.733 234.811 210.933 226.581C210.795 226.512 210.727 226.375 210.589 226.307C208.113 224.524 206.531 221.712 206.531 218.42C206.531 213.071 210.933 208.681 216.298 208.681C219.463 208.681 222.214 210.19 224.003 212.522C224.278 212.933 224.484 213.276 224.759 213.619C232.876 226.924 236.109 242.835 233.426 258.403Z" fill="url(#paint2_linear_5681_72957)"/>
<path d="M312.919 84.3808C319.148 77.1412 318.138 66.0292 310.562 59.463C302.985 52.8969 291.873 53.5703 285.644 60.8099C279.414 68.0496 280.425 79.1615 288.001 85.7277C295.577 92.2938 306.689 91.6204 312.919 84.3808Z" fill="#FCFCFC"/>
<path d="M291.872 72.7637C256.684 74.6157 229.915 50.8765 212.91 31.6831C202.977 53.2336 214.089 103.406 214.089 103.406C276.72 136.573 314.77 71.5851 291.872 72.7637Z" fill="#F23655"/>
<path d="M212.91 31.5146C220.823 40.2695 230.588 50.0346 242.542 57.9476C237.154 68.2178 236.144 82.697 236.986 92.2937C237.659 99.7017 239.511 106.268 242.542 112.329C233.787 111.487 224.359 108.625 214.089 103.237C214.089 103.237 202.977 53.0651 212.91 31.5146Z" fill="#C91438"/>
<path d="M224.359 117.043C225.032 113.676 229.073 62.4935 216.278 36.7339C206.513 17.0354 158.361 -7.88231 119.469 24.275C94.3827 44.9837 80.577 97.1763 80.2402 97.8497C84.1126 97.8497 120.142 115.528 146.575 119.4C183.615 124.788 216.109 122.094 224.191 117.211L224.359 117.043Z" fill="#F23655"/>
<path d="M226.211 116.033L224.527 115.528C224.527 115.528 204.324 120.41 154.657 112.497C104.989 104.584 83.439 95.4924 81.0819 95.3241C80.9135 95.3241 80.7452 95.3241 80.7452 95.3241C76.1994 94.6506 72.1586 97.8495 71.4852 102.227L68.623 129.502C68.623 130.68 68.623 132.027 69.2965 133.542C71.4852 139.604 76.1993 144.318 82.2604 146.675C92.5306 150.547 113.239 157.113 147.417 161.154C186.814 165.868 209.543 163.174 218.129 161.659C226.716 160.144 224.696 159.639 227.221 157.282C229.746 154.925 229.915 154.251 230.252 152.568L232.777 127.313C233.451 122.767 231.43 117.885 226.043 116.033H226.211Z" fill="#FCFCFC"/>
<defs>
<linearGradient id="paint0_linear_5681_72957" x1="67.5084" y1="309.22" x2="-94.1449" y2="253.265" gradientUnits="userSpaceOnUse">
<stop stop-color="#3FC02F"/>
<stop offset="1" stop-color="#52E040"/>
</linearGradient>
<linearGradient id="paint1_linear_5681_72957" x1="163.126" y1="334.389" x2="-30.4087" y2="226.106" gradientUnits="userSpaceOnUse">
<stop stop-color="#3FC02F"/>
<stop offset="1" stop-color="#52E040"/>
</linearGradient>
<linearGradient id="paint2_linear_5681_72957" x1="234.062" y1="288.716" x2="44.0709" y2="157.258" gradientUnits="userSpaceOnUse">
<stop stop-color="#3FC02F"/>
<stop offset="1" stop-color="#52E040"/>
</linearGradient>
</defs>
</svg>
