<?xml version="1.0" encoding="UTF-8"?>
<svg id="Layer_1" xmlns="http://www.w3.org/2000/svg" xmlns:xlink="http://www.w3.org/1999/xlink" version="1.1" viewBox="0 0 1080 392">
  <!-- Generator: Adobe Illustrator 29.0.0, SVG Export Plug-In . SVG Version: 2.1.0 Build 186)  -->
  <defs>
    <style>
      .st0 {
        fill: none;
      }

      .st1 {
        fill: url(#linear-gradient1);
      }

      .st2 {
        fill: #c91438;
      }

      .st3 {
        fill: url(#linear-gradient);
      }

      .st4 {
        fill: #f23655;
      }

      .st5 {
        fill: #fff;
      }

      .st6 {
        fill: url(#linear-gradient2);
        fill-rule: evenodd;
      }

      .st7 {
        fill: #c8dedb;
      }

      .st8 {
        clip-path: url(#clippath);
      }
    </style>
    <clipPath id="clippath">
      <rect class="st0" width="1080" height="391"/>
    </clipPath>
    <linearGradient id="linear-gradient" x1="123.3" y1="181.1" x2="-73.7" y2="249.1" gradientTransform="translate(0 394) scale(1 -1)" gradientUnits="userSpaceOnUse">
      <stop offset="0" stop-color="#3fc02f"/>
      <stop offset="1" stop-color="#52e040"/>
    </linearGradient>
    <linearGradient id="linear-gradient1" x1="238.3" y1="92" x2="2.4" y2="223.6" gradientTransform="translate(0 394) scale(1 -1)" gradientUnits="userSpaceOnUse">
      <stop offset="0" stop-color="#3fc02f"/>
      <stop offset="1" stop-color="#52e040"/>
    </linearGradient>
    <linearGradient id="linear-gradient2" x1="318.6" y1="122" x2="86.7" y2="282" gradientTransform="translate(0 394) scale(1 -1)" gradientUnits="userSpaceOnUse">
      <stop offset="0" stop-color="#3fc02f"/>
      <stop offset="1" stop-color="#52e040"/>
    </linearGradient>
  </defs>
  <g class="st8">
    <g>
      <path class="st5" d="M857.1,281.2c-7.4,0-13.8,6.3-13.8,13.8s6.3,13.6,13.8,13.6,13.8-6.3,13.8-13.6-6.3-13.8-13.8-13.8Z"/>
      <path class="st5" d="M913.2,127.6c-5.8,0-10.6,5-10.6,10.8s4.8,10.2,10.6,10.2,10.6-4.8,10.6-10.2-5-10.8-10.6-10.8Z"/>
      <path class="st5" d="M918.9,185.5h-11.5v120.5h11.5v-120.5Z"/>
      <path class="st5" d="M555.3,180.7h-1.3v126.6h33.3v-126.6h-32Z"/>
      <path class="st5" d="M504.4,180.7h-.9l-.4.9-16.6,53.3c-1.9,6.3-4.8,17.1-6.9,25.9-2-9.1-5.6-21.8-6.7-25.9l-16.6-53.3-.4-.9h-33.1l-.4.9-17.1,53.3c-3.2,9.9-5.4,16.9-7.3,25.7-1.9-9.1-3.9-17.7-6.1-25.5l-16.4-53.3-.4-.9h-34.8l.6,1.9,40.2,123.8.4.9h31.8l.4-.9,17.1-53.3c4.5-14.3,6.9-22.9,8.4-28.7,1.5,6.7,3.9,16.4,7.6,28.3l17.1,53.6.4.9h30.5l.4-.9,42.8-123.8.6-1.9h-34.3v-.2Z"/>
      <path class="st5" d="M570.5,118.9c-11.2,0-20.1,8.6-20.1,19.7s8.9,19.9,20.1,19.9,19.7-8.9,19.7-19.9-8.9-19.7-19.7-19.7Z"/>
      <path class="st5" d="M618,117.9h-1.5v189.4h33.1V117.9h-31.7Z"/>
      <path class="st5" d="M773.5,117.9h-1.3v75.6c-8.6-10.6-23.1-16.8-38.9-16.8s-34.4,7.1-45.1,19.2c-10.6,12.1-16.4,28.9-16.4,48.4s5.6,35.9,16,47.7c10.4,11.7,25.3,18.4,43.6,18.4s33-7.1,41.5-19.7l1.5,15.3v1.3h30.9V117.9h-31.8ZM738.1,279.8c-10.2,0-18.4-3.7-24.2-10.1-5.6-6.3-8.8-15.5-8.8-26.3s3.2-19.9,8.8-26.3c5.6-6.3,13.8-10.2,24.2-10.2s18.6,3.7,24.6,10.1c5.8,6.3,9.1,15.5,9.1,26.4s-3.4,19.9-9.1,26.3c-5.8,6.3-14.2,10.1-24.6,10.1Z"/>
      <path class="st3" d="M80.4,278.3c.4-2.2.6-4.5.6-6.7,0-11.5-3.9-22-10.6-30.4,0,0-.4-.4-.4-.6-2.8-3.4-4.3-7.6-4.3-12.3s1.3-7.6,3.4-10.6c-13.8-29.2-21.6-61.6-21.6-96.1s7.3-65,20.3-93.5c-30.5,20.3-50.6,54.9-50.6,94.4s.7,14.2,1.9,20.9c-5.8-3-12.5-4.8-19.4-4.8,11.5,12.5,18.6,29.2,18.6,47.7s-2.4,20.9-6.7,30c3,1.7,5,4.7,5,8.4s-.9,4.7-2.4,6.3c-8,8.8-12.8,20.3-12.8,33.1,0,19.2,11.2,35.9,27.4,44.1,2.8,23.6,18.8,43.2,40.2,51.4-6.3-9.9-9.9-21.4-9.9-33.9s.6-9.7,1.7-14.3c10.6-7.6,18.1-19.4,19.9-33l-.2-.2ZM55.9,280.9c-.4.7-.6,1.7-.9,2.6-4.1,11.9-6.5,25-6.5,38.4s0,6,.4,8.9c-9.7-14.7-16.2-31.7-18.4-49.9,0-1.1-.2-2.2-.4-3.4,0-7.1,6-12.8,13-12.8s13.2,5.8,13.2,13.2-.2,2-.6,3h.2Z"/>
      <path class="st1" d="M200.5,313.8v-2.2c0-1.9-.4-3.9-.6-5.8,0-.7,0-1.7-.4-2.4-.2-2-.6-4.1-.9-6,0-.4,0-.9-.2-1.3-.4-2-.7-4.1-1.3-6,0-.7-.4-1.7-.6-2.4-.2-1.1-.6-2.2-.9-3.4-.2-.9-.6-1.9-.7-2.8,0-.6-.4-1.1-.6-1.7-.7-2.2-1.5-4.5-2.4-6.7,0-.6-.4-.9-.6-1.5-3.7-9.3-8.4-18.4-14-26.6-4.3-9.3-6.7-19.7-6.7-30.9s1.5-16.9,4.3-24.8c-1.5,2.4-3.9,3.9-6.9,3.9-4.3,0-7.8-3.4-8-7.6-.2-2-.6-3.9-.9-5.8v-.7c-.4-1.9-.7-3.7-1.3-5.6,0-.2,0-.6-.2-.7-.6-1.9-1.1-3.7-1.7-5.6-.7-2-1.5-3.9-2.2-5.8-.7-1.7-1.5-3.4-2.2-5,0,0,0-.4-.4-.6-1.5-3.2-3.2-6.1-5-9.1,0-.2-.2-.6-.4-.7-.9-1.5-1.9-3-3-4.5-.9-1.5-2-3-3.2-4.3l-.4-.4c-1.1-1.3-2.2-2.6-3.4-4.1,0,0-.2-.4-.4-.6-1.1-1.3-2.4-2.4-3.5-3.7-1.3-1.3-2.4-2.4-3.7-3.5-.2-.2-.6-.4-.7-.7-2.4-2.2-5.2-4.3-7.8-6.1-.4-.2-.7-.6-.9-.7-1.5-.9-2.8-1.9-4.3-2.8,0,0-.4,0-.6-.4-1.3-.7-2.6-1.7-4.1-2.4-.2,0-.6-.4-.7-.4-1.5-.7-3-1.5-4.5-2.2-.4,0-.6-.2-.9-.4-1.5-.7-2.8-1.3-4.3-1.9-.2,0-.4,0-.7-.2-1.7-.6-3.2-1.1-4.8-1.7-.4,0-.7-.2-1.1-.4-1.7-.6-3.4-.9-5-1.5,19.6,18.2,31.7,44.1,31.7,72.8s-.6,10.8-1.3,16.2c4.7,10.6,7.3,22.3,7.3,34.6s-1.3,16.8-3.5,24.4c-.7,2.2-1.1,4.5-1.5,6.9,0,.7,0,1.5-.2,2v.7c0,1.9-.2,3.9-.2,5.8,0,4.5.4,8.8,1.1,12.8,0,.2,0,.6-.4.7,0,0,.2,0,.4-.4.4,1.7.7,3.4,1.1,5,1.1,4.5,2.8,8.9,4.7,13,3.2,6.7,7.4,13,12.5,18.4,9.1,3.4,16.9,9.1,22.7,16.8,0,0,.2.4.4.7,1.7,2.2,3.2,4.7,4.5,7.1,5.4,8.9,9.7,18.4,12.8,28.7,2,6.3,3.5,12.8,4.7,19.4,0,.6,0,.9.2,1.5.2-.9.4-2,.6-3.2,7.8-14.5,13-30.5,15.3-47.7.2-2.2.6-4.5.7-6.9v-18.8l-.6-.2ZM187,339.3c-.7,4.5-1.5,9.1-2.6,13.4-.9-4.8-2.4-9.7-4.1-14.2-5.6-14.5-14.9-27.4-26.6-37.2-.9-.6-1.7-1.3-2.4-1.9-.6-.6-1.1-1.1-1.7-1.7-.6-.6-.9-1.1-1.3-1.7-.9-1.5-1.7-3-2.2-4.7v-.2c0-.7-.4-1.5-.6-2v-3c0-10.2,8.4-18.6,18.6-18.6s11.9,3.2,15.3,7.8c1.3,3,2.4,6.1,3.4,9.3.7,2,1.3,4.1,1.7,6.1,0,.4.2.9.4,1.3.6,2,.9,4.3,1.5,6.5.4,2.4.7,4.7,1.1,6.9v.7c.4,2.4.6,4.7.7,7.1,0,1.5,0,3,.2,4.3v4.5c.2,6-.2,11.9-.9,17.5l-.4-.4Z"/>
      <path class="st6" d="M288.2,244.2c0-8.8-2.8-16.8-7.3-23.5-7.8-6-13-15.5-13-26.3s.9-8.9,2.6-12.8c-13.8-3.5-23.8-16-23.8-30.9v-.7c-2.8-.6-5.2-2.4-6.3-4.8-18.1-30.2-45.4-54.2-78.4-67.8,19.2,23.5,33.3,51.6,40.2,82.3,1.1,5,2,10.1,2.8,15.3,7.3,7.4,11.7,17.7,11.7,28.9s-.6,6.9-1.3,10.1c7.3,7.4,11.7,17.7,11.7,28.9s-1.1,10.6-3,15.5c4.8,3.4,9.5,7.1,14,11.2,1.3,1.3,2.4,2.6,3.9,3.7,4.1,4.1,7.8,8.4,11.4,12.8,11,14.2,19.2,30.7,23.8,48.6,6.3-15.5,9.9-32.6,9.9-50.3s-.7-16-2.2-23.8c2-5,3.4-10.4,3.4-16.2ZM274.7,297.4c-4.8-15.1-14.2-28.9-27.4-38.9,0,0-.2-.2-.4-.4-3-2.2-5-5.6-5-9.7,0-6.5,5.4-11.9,11.9-11.9s7.3,1.9,9.3,4.7c.4.6.6.9.9,1.3,9.9,16.2,13.8,35.8,10.6,54.7v.2Z"/>
      <path class="st5" d="M351.4,84.1c6.9-8,5.8-20.3-2.6-27.6-8.4-7.3-20.7-6.5-27.6,1.5-6.9,8-5.8,20.3,2.6,27.6,8.4,7.3,20.7,6.5,27.6-1.5Z"/>
      <path class="st4" d="M328.1,71.2c-38.9,2-68.5-24.2-87.3-45.4-11,23.8,1.3,79.3,1.3,79.3,69.3,36.7,111.4-35.2,86-33.9Z"/>
      <path class="st2" d="M240.8,25.8c8.8,9.7,19.6,20.5,32.8,29.2-6,11.4-7.1,27.4-6.1,38,.7,8.2,2.8,15.5,6.1,22.2-9.7-.9-20.1-4.1-31.5-10.1,0,0-12.3-55.5-1.3-79.3Z"/>
      <path class="st4" d="M253.2,120.2c.7-3.7,5.2-60.3-8.9-88.8-10.8-21.8-64.1-49.3-107.1-13.8-27.7,22.9-43,80.6-43.4,81.4,4.3,0,44.1,19.6,73.4,23.8,41,6,76.9,3,85.8-2.4l.2-.2Z"/>
      <path class="st5" d="M255.3,119.1l-1.9-.6s-22.3,5.4-77.3-3.4c-54.9-8.8-78.8-18.8-81.4-19h-.4c-5-.7-9.5,2.8-10.2,7.6l-3.2,30.2c0,1.3,0,2.8.7,4.5,2.4,6.7,7.6,11.9,14.3,14.5,11.4,4.3,34.3,11.5,72.1,16,43.6,5.2,68.7,2.2,78.2.6,3.7-.7,7.3-2.2,10.1-4.8,1.7-1.5,3-3.4,3.4-5.2l2.8-27.9c.7-5-1.5-10.4-7.4-12.5h.2Z"/>
      <path class="st5" d="M1014.3,305.8v7.4h-12.3v-7.8l-8.8,8.6h-.4l-4.3-4.3c-2.4-2.4-2.4-6.5,0-8.9,5.2-5.2,13.2-13.2,13.2-13.2v-27.4l-19.7,19.7v24.2s0,.2-.2.2h-12.3s-.2,0-.2-.2v-11.5l-8.4,8.4h-.4l-8.8-8.8v-.4l8.4-8.4h-11.5s-.2,0-.2-.2v-12.3s0-.2.2-.2h24.2l19.4-19.4h-27.4l-17.1,17.1h-.4l-8.8-8.8v-.4l8.2-8.2h-11.7s-.2,0-.2-.2v-12.3s0-.2.2-.2h11.7l-8.4-8.2,4.5-4.5c2.6-2.6,6.5-2.6,9.1,0,5,5.2,12.7,12.8,12.7,12.8h27.4l-19.4-19.4h-24.2s-.2,0-.2-.2v-12.3s0-.2.2-.2h11.5l-8.4-8.4v-.4l8.8-8.8h.4l8.4,8.4v-11.5s0-.2.2-.2h12.3s.2,0,.2.2v24.2l19.7,19.7v-27.4l-17.7-17.7,8.9-8.9,8.8,8.8v-9.3h12.3v8.8l8.4-8.4,8.9,8.9-17.3,17.3v27.4l19.4-19.4v-24.4h12.7v11.7l8.4-8.4h.4l8.8,8.8v.4l-8.4,8.4h11.5s.2,0,.2.2v12.3s0,.2-.2.2h-24.2l-19.4,19.4h27.4l17.1-17.1h.4l8.8,8.8v.4l-8.2,8.2h11.7s.2,0,.2.2v12.3s0,.2-.2.2h-11.7l8.2,8.2v.4l-8.8,8.8h-.4l-17.1-17.1h-27.4l19.4,19.4h24.2s.2,0,.2.2v12.3s0,.2-.2.2h-11.5l8.4,8.4v.4l-8.8,8.8h-.4l-8.4-8.4v11.5s0,.2-.2.2h-12.3s-.2,0-.2-.2v-24.2l-19.4-19.4v27.4l17.1,17.1v.4l-8.8,8.8h-.4l-8.2-8.2.6-.4Z"/>
      <path class="st7" d="M1021,245.1c0-7.3-5.9-13.2-13.2-13.2s-13.2,6-13.2,13.2,6,13.2,13.2,13.2,13.2-6,13.2-13.2Z"/>
      <path class="st5" d="M1007.9,261c-8.8,0-15.8-7.1-15.8-15.8s7.1-15.8,15.8-15.8,15.8,7.1,15.8,15.8-7.1,15.8-15.8,15.8Z"/>
    </g>
  </g>
</svg>