<svg width="24" height="25" viewBox="0 0 24 25" fill="none" xmlns="http://www.w3.org/2000/svg">
<g clip-path="url(#clip0_4186_113389)">
<path d="M8.38501 24.0793L5.695 21.3759L5.75735 20.3286C5.93995 17.2895 7.0311 14.3936 8.86601 12.008C8.72349 12.0214 8.58988 12.0438 8.47409 12.0617L6.92421 13.4626H2.22559V3.47702L3.66412 2.88173C3.8779 2.79221 5.82415 2.03132 9.00853 2.03132C10.8345 2.03132 12.7184 2.28197 14.6157 2.77431L14.6558 2.78326L14.6959 2.79669C14.9453 2.87278 15.2169 2.90859 15.502 2.90859H16.0097C16.6688 2.90859 17.1721 2.65346 17.2745 2.59975L18.8378 1.46289L20.1561 2.89068L23.866 6.52506L22.7659 8.14532C22.7659 8.14532 19.4613 12.9971 17.947 15.2171C16.9583 16.7345 17.2434 18.489 17.662 19.6975L18.1341 21.076L15.1457 24.0793H8.38501Z" fill="#704760"/>
<path d="M18.8469 1.4668H16.7314V3.19895H18.8469V1.4668Z" fill="#704760"/>
<path d="M6.29224 24.0793L3.60222 21.3759L3.66457 20.3286C3.84718 17.2895 4.93833 14.3936 6.77324 12.008C6.63072 12.0214 6.49711 12.0438 6.38131 12.0617L4.83144 13.4626H0.132812V3.47702L1.57135 2.88173C1.78512 2.79221 3.73138 2.03132 6.91576 2.03132C8.74176 2.03132 10.6257 2.28197 12.5229 2.77431L12.563 2.78326L12.6031 2.79669C12.8525 2.87278 13.1242 2.90859 13.4092 2.90859H13.9169C14.5761 2.90859 15.0793 2.65346 15.1818 2.59975L16.745 1.46289L18.0633 2.89068L21.7732 6.52506L20.6731 8.14532C20.6731 8.14532 17.3685 12.9971 15.8543 15.2171C14.8656 16.7345 15.1506 18.489 15.5692 19.6975L16.0413 21.076L13.0529 24.0793H6.29224Z" fill="#DF83B2"/>
<path fill-rule="evenodd" clip-rule="evenodd" d="M0.132812 8.88476L3.95501 2.26452C4.76208 2.13201 5.75694 2.03125 6.91576 2.03125C8.20323 2.03125 9.51949 2.15586 10.8489 2.40193L4.46308 13.4625H0.132812V8.88476Z" fill="#D96090"/>
<path d="M5.29902 9.90868C5.29902 9.90868 8.93322 8.88371 11.0354 10.8307L9.58346 12.3122C7.43678 14.5098 6.16303 17.4057 5.98043 20.4627L7.24973 21.7383H12.0909L13.3735 20.4493C12.848 18.9275 12.3581 16.2957 13.9302 13.9056C15.4356 11.7035 18.758 6.8293 18.758 6.8293L16.4466 4.56453C16.4466 4.56453 15.4178 5.24486 13.9213 5.24486C13.6363 5.24486 13.6452 5.24486 13.4136 5.24486C12.8391 5.24486 12.3447 5.15534 11.9439 5.03449C6.14522 3.52166 2.45312 5.03897 2.45312 5.03897V11.1306H3.94065L5.29902 9.90868Z" fill="#F23461"/>
<path d="M11.9439 5.65601C12.3447 5.77686 12.8391 5.86638 13.4136 5.86638C13.6452 5.86638 13.6363 5.86638 13.9213 5.86638C15.4178 5.86638 16.4466 5.18605 16.4466 5.18605L18.4908 7.21808C18.6021 7.05695 18.7625 6.82421 18.7625 6.82421L16.451 4.55943C16.451 4.55943 15.4222 5.23976 13.9258 5.23976C13.6408 5.23976 13.6497 5.23976 13.4181 5.23976C12.8435 5.23976 12.3492 5.15024 11.9484 5.0294C6.14522 3.52104 2.45312 5.03835 2.45312 5.03835V5.66497C2.45312 5.66497 6.14522 4.14766 11.9439 5.65601Z" fill="white"/>
<path d="M11.0354 11.255C10.9641 11.1878 10.8884 11.1252 10.8082 11.0625L9.58349 12.3157C7.43682 14.5134 6.16307 17.4092 5.98047 20.4662L6.01164 20.4976C6.27441 17.5838 7.52589 14.8401 9.58349 12.7365L11.0354 11.255Z" fill="white"/>
<path d="M2.77371 4.36831C3.13037 4.36831 3.41949 4.07774 3.41949 3.71931C3.41949 3.36088 3.13037 3.07031 2.77371 3.07031C2.41706 3.07031 2.12793 3.36088 2.12793 3.71931C2.12793 4.07774 2.41706 4.36831 2.77371 4.36831Z" fill="white"/>
<path d="M6.46609 3.81752C6.82275 3.81752 7.11188 3.52696 7.11188 3.16853C7.11188 2.8101 6.82275 2.51953 6.46609 2.51953C6.10944 2.51953 5.82031 2.8101 5.82031 3.16853C5.82031 3.52696 6.10944 3.81752 6.46609 3.81752Z" fill="white"/>
<path d="M10.0511 4.0851C10.4077 4.0851 10.6968 3.79454 10.6968 3.43611C10.6968 3.07767 10.4077 2.78711 10.0511 2.78711C9.6944 2.78711 9.40527 3.07767 9.40527 3.43611C9.40527 3.79454 9.6944 4.0851 10.0511 4.0851Z" fill="white"/>
<path d="M13.5472 4.72182C13.9038 4.72182 14.1929 4.43126 14.1929 4.07282C14.1929 3.71439 13.9038 3.42383 13.5472 3.42383C13.1905 3.42383 12.9014 3.71439 12.9014 4.07282C12.9014 4.43126 13.1905 4.72182 13.5472 4.72182Z" fill="white"/>
<path d="M16.6243 3.9601C16.981 3.9601 17.2701 3.66954 17.2701 3.31111C17.2701 2.95268 16.981 2.66211 16.6243 2.66211C16.2676 2.66211 15.9785 2.95268 15.9785 3.31111C15.9785 3.66954 16.2676 3.9601 16.6243 3.9601Z" fill="white"/>
<path d="M19.052 6.22963C19.4087 6.22963 19.6978 5.93907 19.6978 5.58064C19.6978 5.22221 19.4087 4.93164 19.052 4.93164C18.6954 4.93164 18.4062 5.22221 18.4062 5.58064C18.4062 5.93907 18.6954 6.22963 19.052 6.22963Z" fill="white"/>
<path d="M19.1546 8.93276C19.5112 8.93276 19.8004 8.64219 19.8004 8.28376C19.8004 7.92533 19.5112 7.63477 19.1546 7.63477C18.7979 7.63477 18.5088 7.92533 18.5088 8.28376C18.5088 8.64219 18.7979 8.93276 19.1546 8.93276Z" fill="white"/>
<path d="M17.1995 11.7179C17.5561 11.7179 17.8453 11.4273 17.8453 11.0689C17.8453 10.7105 17.5561 10.4199 17.1995 10.4199C16.8428 10.4199 16.5537 10.7105 16.5537 11.0689C16.5537 11.4273 16.8428 11.7179 17.1995 11.7179Z" fill="white"/>
<path d="M15.3284 14.546C15.6851 14.546 15.9742 14.2555 15.9742 13.897C15.9742 13.5386 15.6851 13.248 15.3284 13.248C14.9717 13.248 14.6826 13.5386 14.6826 13.897C14.6826 14.2555 14.9717 14.546 15.3284 14.546Z" fill="white"/>
<path d="M14.0595 17.526C14.4236 17.526 14.7187 17.2294 14.7187 16.8636C14.7187 16.4977 14.4236 16.2012 14.0595 16.2012C13.6955 16.2012 13.4004 16.4977 13.4004 16.8636C13.4004 17.2294 13.6955 17.526 14.0595 17.526Z" fill="white"/>
<path d="M14.5175 20.6823C14.8816 20.6823 15.1767 20.3857 15.1767 20.0198C15.1767 19.654 14.8816 19.3574 14.5175 19.3574C14.1535 19.3574 13.8584 19.654 13.8584 20.0198C13.8584 20.3857 14.1535 20.6823 14.5175 20.6823Z" fill="white"/>
<path d="M12.5052 23.4523C12.8618 23.4523 13.1509 23.1617 13.1509 22.8033C13.1509 22.4449 12.8618 22.1543 12.5052 22.1543C12.1485 22.1543 11.8594 22.4449 11.8594 22.8033C11.8594 23.1617 12.1485 23.4523 12.5052 23.4523Z" fill="white"/>
<path d="M9.21805 23.5773C9.5747 23.5773 9.86383 23.2867 9.86383 22.9283C9.86383 22.5699 9.5747 22.2793 9.21805 22.2793C8.86139 22.2793 8.57227 22.5699 8.57227 22.9283C8.57227 23.2867 8.86139 23.5773 9.21805 23.5773Z" fill="white"/>
<path d="M5.98465 22.7316C6.34131 22.7316 6.63043 22.441 6.63043 22.0826C6.63043 21.7242 6.34131 21.4336 5.98465 21.4336C5.62799 21.4336 5.33887 21.7242 5.33887 22.0826C5.33887 22.441 5.62799 22.7316 5.98465 22.7316Z" fill="white"/>
<path d="M5.0452 19.7374C5.40185 19.7374 5.69098 19.4469 5.69098 19.0884C5.69098 18.73 5.40185 18.4395 5.0452 18.4395C4.68854 18.4395 4.39941 18.73 4.39941 19.0884C4.39941 19.4469 4.68854 19.7374 5.0452 19.7374Z" fill="white"/>
<path d="M6.06961 16.3449C6.42627 16.3449 6.71539 16.0543 6.71539 15.6959C6.71539 15.3374 6.42627 15.0469 6.06961 15.0469C5.71295 15.0469 5.42383 15.3374 5.42383 15.6959C5.42383 16.0543 5.71295 16.3449 6.06961 16.3449Z" fill="white"/>
<path d="M7.77078 13.2394C8.12744 13.2394 8.41656 12.9488 8.41656 12.5904C8.41656 12.232 8.12744 11.9414 7.77078 11.9414C7.41413 11.9414 7.125 12.232 7.125 12.5904C7.125 12.9488 7.41413 13.2394 7.77078 13.2394Z" fill="white"/>
<path d="M7.43192 11.4171C7.78857 11.4171 8.0777 11.1266 8.0777 10.7681C8.0777 10.4097 7.78857 10.1191 7.43192 10.1191C7.07526 10.1191 6.78613 10.4097 6.78613 10.7681C6.78613 11.1266 7.07526 11.4171 7.43192 11.4171Z" fill="white"/>
<path d="M4.56863 12.8859C4.92529 12.8859 5.21442 12.5953 5.21442 12.2369C5.21442 11.8785 4.92529 11.5879 4.56863 11.5879C4.21198 11.5879 3.92285 11.8785 3.92285 12.2369C3.92285 12.5953 4.21198 12.8859 4.56863 12.8859Z" fill="white"/>
<path d="M1.33524 12.9425C1.69189 12.9425 1.98102 12.652 1.98102 12.2935C1.98102 11.9351 1.69189 11.6445 1.33524 11.6445C0.97858 11.6445 0.689453 11.9351 0.689453 12.2935C0.689453 12.652 0.97858 12.9425 1.33524 12.9425Z" fill="white"/>
<path d="M1.33524 9.68471C1.69189 9.68471 1.98102 9.39415 1.98102 9.03572C1.98102 8.67728 1.69189 8.38672 1.33524 8.38672C0.97858 8.38672 0.689453 8.67728 0.689453 9.03572C0.689453 9.39415 0.97858 9.68471 1.33524 9.68471Z" fill="white"/>
<path d="M1.33524 6.50307C1.69189 6.50307 1.98102 6.21251 1.98102 5.85407C1.98102 5.49564 1.69189 5.20508 1.33524 5.20508C0.97858 5.20508 0.689453 5.49564 0.689453 5.85407C0.689453 6.21251 0.97858 6.50307 1.33524 6.50307Z" fill="white"/>
<path d="M11.0309 10.8319L9.58349 12.3179C7.43682 14.5155 6.16307 17.4114 5.98047 20.4684L7.13397 21.6276C7.06716 20.6787 7.21414 19.0495 7.77975 17.0354C8.34537 15.0347 11.4496 11.9956 12.1889 10.8587C12.0686 10.7647 10.639 9.87852 9.43652 9.92776C10.0645 10.1874 11.0309 10.8319 11.0309 10.8319Z" fill="white"/>
<path d="M3.16528 5.04297H2.44824V11.1301H3.16528V5.04297Z" fill="white"/>
</g>
<defs>
<clipPath id="clip0_4186_113389">
<rect width="24" height="24" fill="white" transform="translate(0 0.771484)"/>
</clipPath>
</defs>
</svg>
