<svg width="20" height="20" viewBox="0 0 20 20" fill="none" xmlns="http://www.w3.org/2000/svg">
<path opacity="0.6" d="M16.1229 1.37305H14.1978C13.9901 1.37305 13.8218 1.54135 13.8218 1.74897L13.8218 5.74427C13.8218 5.95189 13.9901 6.12019 14.1977 6.12019H16.1229C16.3305 6.12019 16.4988 5.95189 16.4988 5.74427L16.4989 1.74897C16.4989 1.54135 16.3305 1.37305 16.1229 1.37305Z" fill="url(#paint0_linear_3713_10196)" fill-opacity="0.6"/>
<path opacity="0.6" d="M16.8577 7.75296L10.9056 2.62104C10.3815 2.16538 9.60122 2.16538 9.07151 2.62104L3.1194 7.75296C2.81182 8.02066 2.63525 8.40798 2.63525 8.81238V15.8011C2.63525 16.5758 3.26179 17.2023 4.03642 17.2023H15.9406C16.7153 17.2023 17.3418 16.5758 17.3418 15.8011V8.81238C17.3418 8.40228 17.1652 8.01497 16.8577 7.75296Z" fill="url(#paint1_linear_3713_10196)" fill-opacity="0.6"/>
<path fill-rule="evenodd" clip-rule="evenodd" d="M8.10584 1.49782C9.18777 0.567128 10.7931 0.5602 11.8774 1.50301L11.8843 1.50904L18.7477 7.55229C19.3616 8.09278 19.421 9.02855 18.8805 9.64239C18.34 10.2562 17.4043 10.3157 16.7904 9.77522L9.9886 3.78621L3.20932 9.75265C2.59535 10.293 1.65959 10.2333 1.11924 9.61936C0.578893 9.0054 0.63857 8.06964 1.25254 7.52929L8.09319 1.50883L8.10584 1.49782Z" fill="#FFD583"/>
<path d="M11.1448 10.9482H8.84365C8.44729 10.9482 8.12598 11.2696 8.12598 11.6659V16.439C8.12598 16.8354 8.44729 17.1567 8.84365 17.1567H11.1448C11.5411 17.1567 11.8624 16.8354 11.8624 16.439V11.6659C11.8624 11.2696 11.5411 10.9482 11.1448 10.9482Z" fill="#FFD583"/>
<defs>
<linearGradient id="paint0_linear_3713_10196" x1="16.4988" y1="6.02869" x2="10.7854" y2="1.52806" gradientUnits="userSpaceOnUse">
<stop offset="0.0558355" stop-color="#FBE0B6"/>
<stop offset="1" stop-color="#F9CC87"/>
</linearGradient>
<linearGradient id="paint1_linear_3713_10196" x1="17.3418" y1="18.7405" x2="-3.01984" y2="-6.18075" gradientUnits="userSpaceOnUse">
<stop offset="0.0558355" stop-color="#FBE0B6"/>
<stop offset="1" stop-color="#F9CC87"/>
</linearGradient>
</defs>
</svg>
