<svg width="129" height="129" viewBox="0 0 129 129" fill="none" xmlns="http://www.w3.org/2000/svg">
<path d="M87.5315 47.8215H38.9326V76.5026H87.5315V47.8215Z" fill="#B94056"/>
<path d="M109.198 79.84H16.0337V123.995H109.198V79.84Z" fill="#B94056"/>
<path d="M92.8681 47.8215H48.8203V76.5026H92.8681V47.8215Z" fill="#FF6085"/>
<path d="M62.4562 66.6505H56.5308V57.6018C56.5308 55.9242 57.8515 54.5677 59.4578 54.5677H59.5113C61.1354 54.5677 62.4383 55.9242 62.4383 57.6018V66.6505H62.4562Z" fill="#363B42"/>
<path d="M73.8067 66.6505H67.8813V57.6018C67.8813 55.9242 69.2021 54.5677 70.8084 54.5677H70.8619C72.486 54.5677 73.7889 55.9242 73.7889 57.6018V66.6505H73.8067Z" fill="#363B42"/>
<path d="M85.1397 66.6505H79.2144V57.6018C79.2144 55.9242 80.5351 54.5677 82.1413 54.5677H82.1949C83.819 54.5677 85.1219 55.9242 85.1219 57.6018V66.6505H85.1397Z" fill="#363B42"/>
<path d="M112.519 79.84H28.082V123.995H112.519V79.84Z" fill="#FF6085"/>
<path d="M116.41 36.042C76.342 44.5374 65.3836 27.9392 65.3836 27.9392C65.3836 27.9392 54.443 44.5553 14.3574 36.042C12.0551 35.5601 9.87767 37.3092 13.7684 39.5937C18.4266 42.3065 35.2747 50.2665 65.3836 50.2665C95.4924 50.2665 112.34 42.3065 116.999 39.5937C120.889 37.327 118.73 35.5601 116.41 36.042Z" fill="#E5AA17"/>
<path d="M116.999 39.5937C120.89 37.3271 118.73 35.5602 116.41 36.0421C95.3676 40.5039 82.3567 38.041 74.7537 34.7035C68.3464 39.558 55.4248 45.2692 30.8665 43.3596C29.1353 43.2168 27.6361 44.2876 28.6177 45.5548C37.2738 48.0535 49.4815 50.2666 65.3837 50.2666C95.4925 50.2666 112.341 42.3065 116.999 39.5937Z" fill="#FFCC33"/>
<path d="M80.305 19.0952H46.1626V37.8028H80.305V19.0952Z" fill="#B94056"/>
<path d="M86.3358 16.6417H55.3882V37.8029H86.3358V16.6417Z" fill="#FF6085"/>
<path d="M64.7938 33.8112H60.082V26.8506C60.082 25.5656 61.135 24.5126 62.4201 24.5126H62.4736C63.7586 24.5126 64.8116 25.5656 64.8116 26.8506V33.8112H64.7938Z" fill="#363B42"/>
<path d="M73.8245 33.8112H69.1128V26.8506C69.1128 25.5656 70.1658 24.5126 71.4508 24.5126H71.5044C72.7894 24.5126 73.8424 25.5656 73.8424 26.8506V33.8112H73.8245Z" fill="#363B42"/>
<path d="M82.8553 33.8112H78.1436V26.8506C78.1436 25.5656 79.1966 24.5126 80.4816 24.5126H80.5351C81.8201 24.5126 82.8732 25.5656 82.8732 26.8506V33.8112H82.8553Z" fill="#363B42"/>
<path d="M101.239 10.6985C73.093 16.6596 65.4007 5.00513 65.4007 5.00513C65.4007 5.00513 57.7084 16.6774 29.5628 10.6985C27.9387 10.3594 26.4217 11.5909 29.1523 13.1972C32.4184 15.1068 44.2692 20.6931 65.4007 20.6931C86.5322 20.6931 98.383 15.1068 101.649 13.1972C104.38 11.5909 102.863 10.3594 101.239 10.6985Z" fill="#E5AA17"/>
<path d="M65.3827 20.6931C86.532 20.6931 98.365 15.1068 101.631 13.1971C104.362 11.5908 102.845 10.3594 101.221 10.6985C83.9798 14.3572 74.4135 11.3945 69.5947 8.55676C65.9895 11.9121 56.7445 17.4448 36.309 14.8213C35.3809 14.6963 34.5421 15.0711 34.4707 15.6779C40.4139 17.9624 50.6227 20.6931 65.3827 20.6931Z" fill="#FFCC33"/>
<path d="M121.746 71.7015C105.397 75.4674 93.4562 75.1104 84.8542 73.2007H45.5447C36.9427 75.1104 25.0018 75.4674 8.65304 71.7015C6.08723 71.1125 2.61682 72.0763 6.92605 74.807C12.0906 78.0731 31.844 88.8173 65.1994 88.8173C98.5549 88.8173 116.17 78.0909 121.318 74.807C125.627 72.0763 124.295 71.1125 121.746 71.7015Z" fill="#E5AA17"/>
<path d="M121.318 74.807C125.627 72.0763 124.295 71.1125 121.745 71.7015C105.397 75.4674 93.4557 75.1104 84.8537 73.2007H73.9983C65.824 77.9125 46.8271 82.7848 30.5935 81.8389C28.7843 81.7318 26.6625 82.4279 27.0408 83.5166C36.6297 86.4079 49.3929 88.8173 65.1989 88.8173C98.5544 88.8173 116.17 78.0909 121.318 74.807Z" fill="#FFCC33"/>
<path d="M59.7262 112.876H51.3735V100.579C51.3735 98.2943 53.2297 96.4561 55.4963 96.4561H55.5856C57.8701 96.4561 59.7083 98.3122 59.7083 100.579V112.876H59.7262Z" fill="#363B42"/>
<path d="M45.2325 112.876H36.8799V100.579C36.8799 98.2943 38.736 96.4561 41.0027 96.4561H41.0919C43.3764 96.4561 45.2147 98.3122 45.2147 100.579V112.876H45.2325Z" fill="#363B42"/>
<path d="M74.6647 112.876H66.312V100.579C66.312 98.2943 68.1682 96.4561 70.4348 96.4561H70.524C72.8085 96.4561 74.6468 98.3122 74.6468 100.579V112.876H74.6647Z" fill="#363B42"/>
<path d="M104.612 112.876H96.2598V100.579C96.2598 98.2943 98.1159 96.4561 100.383 96.4561H100.472C102.756 96.4561 104.595 98.3122 104.595 100.579V112.876H104.612Z" fill="#363B42"/>
<path d="M90.1022 112.876H81.7495V100.579C81.7495 98.2943 83.6057 96.4561 85.8723 96.4561H85.9615C88.246 96.4561 90.0843 98.3122 90.0843 100.579V112.876H90.1022Z" fill="#363B42"/>
</svg>
