<svg width="128" height="128" viewBox="0 0 128 128" fill="none" xmlns="http://www.w3.org/2000/svg">
<g clip-path="url(#clip0_5681_72935)">
<g clip-path="url(#clip1_5681_72935)">
<path d="M64.083 126.407C61.8486 126.407 59.3994 125.612 57.3799 124.237C54.501 122.282 52.8467 119.403 52.8467 116.352V116.266L54.2646 56.4322C54.3076 50.9322 58.7119 46.485 64.083 46.485C69.4541 46.485 73.8583 50.9322 73.9013 56.4322L75.3193 116.266V116.352C75.3193 119.424 73.665 122.303 70.7861 124.237C68.7451 125.612 66.2959 126.407 64.083 126.407Z" fill="#A07248"/>
<path d="M95.0219 73.7923C78.8589 57.1242 69.1517 30.4827 68.0208 28.6285C68.0208 28.6285 67.6673 25.4276 65.5468 25.4276C63.4263 25.4276 62.0362 28.6285 62.0362 28.6285C60.9053 30.4827 56.7585 50.1955 33.1973 73.7923C17.8589 89.1526 0.140892 97.1744 0.140892 97.1744C0.140892 97.1744 -1.48483 101.82 12.7933 102.678C13.9006 102.737 14.9373 102.776 15.9033 102.776C18.4715 102.795 20.3564 104.103 21.2989 105.567C23.3487 108.768 28.7206 111.051 35.0351 111.051C41.3495 111.051 37.2498 110.973 38.3101 110.837C41.2081 110.466 44.2946 110.837 46.4622 112.047C47.8052 112.808 49.431 113.511 51.4808 114.116C57.7009 115.911 70.5183 115.911 76.7384 114.116C78.6704 113.55 80.2726 112.867 81.6627 112.125C83.901 110.895 87.0111 110.466 89.9563 110.856C90.9929 110.993 92.0532 111.071 93.137 111.071C98.8388 111.071 103.74 109.197 106.119 106.484C107.439 104.981 109.583 103.693 112.363 103.498C124.214 102.639 128.078 97.1939 128.078 97.1939C128.078 97.1939 110.03 89.3088 95.0219 73.8118V73.7923Z" fill="#008D64"/>
<path fill-rule="evenodd" clip-rule="evenodd" d="M98.8374 77.5383C97.5527 76.3494 96.2769 75.1072 95.0224 73.8118V73.7923C81.4717 59.8179 72.4586 38.8332 69.2329 31.3229C68.6111 29.8752 68.2044 28.9281 68.0216 28.6285C68.0216 28.6285 67.6682 25.4276 65.5477 25.4276C63.4273 25.4276 62.0372 28.6285 62.0372 28.6285C61.8665 28.9083 61.6271 29.595 61.2626 30.6404C59.2123 36.5215 53.2036 53.7568 33.1987 73.7923C32.0329 74.9597 30.8534 76.0848 29.6689 77.1672C30.1626 77.5365 30.5553 77.9773 30.8328 78.4309C32.433 81.0194 36.618 82.8654 41.5169 82.8654C44.6578 82.8654 44.4796 82.8392 44.1613 82.7925C43.9831 82.7663 43.761 82.7337 44.0526 82.6956C46.2928 82.3774 48.7053 82.6956 50.3794 83.6716C51.4133 84.287 52.6934 84.8598 54.2936 85.3478C59.1187 86.8118 69.0889 86.8118 73.914 85.3478C75.4157 84.9023 76.6712 84.3506 77.7544 83.7353C79.5022 82.7381 81.9148 82.3986 84.2042 82.7168C84.992 82.8229 85.829 82.8866 86.666 82.8866C91.0972 82.8866 94.8884 81.3801 96.7593 79.1735C97.2908 78.5519 97.9913 77.9751 98.8374 77.5383Z" fill="#006C4D"/>
<path d="M88.1429 44.6929C75.5878 31.2197 68.9903 18.4467 68.1286 16.9615C68.1286 16.9615 67.8578 14.3729 66.2084 14.3729C64.5591 14.3729 63.4759 16.9615 63.4759 16.9615C62.5896 18.4679 58.4046 25.6183 40.0889 44.6929C28.1739 57.1053 14.3879 63.5979 14.3879 63.5979C14.3879 63.5979 13.1324 67.3534 24.2351 68.0324C25.0967 68.0748 25.8845 68.1172 26.6476 68.1172C28.6417 68.1172 30.1187 69.1993 30.8326 70.3663C32.4328 72.9549 36.6178 74.8008 41.5168 74.8008C46.4157 74.8008 43.24 74.7371 44.0524 74.631C46.2926 74.3128 48.7052 74.6311 50.3792 75.6071C51.4131 76.2224 52.6933 76.7952 54.2934 77.2833C59.1185 78.7473 69.0887 78.7473 73.9138 77.2833C75.4155 76.8377 76.671 76.286 77.7542 75.6707C79.5021 74.6735 81.9146 74.334 84.2041 74.6523C84.9918 74.7584 85.8288 74.822 86.6659 74.822C91.0971 74.822 94.8882 73.3156 96.7592 71.1089C97.7931 69.8995 99.4671 68.8598 101.609 68.6901C110.816 67.9899 113.844 63.5979 113.844 63.5979C113.844 63.5979 99.8118 57.2114 88.1429 44.6929Z" fill="#008D64"/>
<path fill-rule="evenodd" clip-rule="evenodd" d="M43.5894 41.3126C44.9747 40.8394 46.4813 41.5788 46.9545 42.964C51.2838 55.6377 59.5992 62.4322 68.1557 64.4408C76.7628 66.4613 85.9162 63.729 92.2108 56.7232C93.1891 55.6342 94.865 55.5446 95.9539 56.523C97.0428 57.5014 97.1325 59.1772 96.1541 60.2661C88.5698 68.7075 77.442 72.066 66.9442 69.6017C56.3957 67.1255 46.7824 58.8595 41.938 44.6777C41.4647 43.2924 42.2041 41.7858 43.5894 41.3126Z" fill="#FDD936"/>
<path fill-rule="evenodd" clip-rule="evenodd" d="M30.3737 72.8246C28.0648 71.5229 28.0644 71.5236 28.0639 71.5245L28.0595 71.5323L28.0498 71.5497L28.0176 71.6079C27.9905 71.6569 27.9526 71.7263 27.905 71.8149C27.8098 71.992 27.6756 72.2461 27.512 72.568C27.1852 73.2111 26.7392 74.1282 26.2514 75.2442C25.2821 77.4618 24.1186 80.531 23.417 83.8322C22.7233 87.096 22.427 90.8326 23.4351 94.2566C24.4865 97.8273 26.915 100.885 31.222 102.595C38.8067 105.606 45.997 101.511 51.1003 97.0164C54.7813 93.7748 57.8356 89.9391 59.867 87.0986C61.595 90.7816 64.3803 96.1326 67.8915 100.831C70.276 104.022 73.115 107.076 76.3279 109.064C79.5929 111.084 83.4225 112.095 87.4836 110.773C94.2509 108.568 97.1184 103.202 98.1131 97.996C98.6908 94.9726 98.6713 91.8904 98.4348 89.2546C100.246 90.557 102.378 91.8922 104.643 92.9069C108.658 94.7058 113.871 95.8227 118.346 92.7574C119.554 91.9302 119.862 90.2805 119.035 89.0728C118.208 87.8651 116.558 87.5567 115.35 88.3839C113.21 89.85 110.294 89.6297 106.81 88.069C103.414 86.5475 100.211 84.0554 98.2372 82.3381C96.843 81.1253 95.1526 81.484 94.237 82.024C93.3219 82.5637 92.2056 83.8545 92.5621 85.6425C93.1146 88.4136 93.6909 92.8938 92.9061 97.0012C92.1402 101.01 90.182 104.318 85.8416 105.732C83.6744 106.438 81.4726 106.013 79.117 104.556C76.7093 103.066 74.3385 100.602 72.1379 97.6576C67.7484 91.7839 64.5121 84.6527 63.3047 81.8012C62.2607 79.3356 58.847 79.027 57.3935 81.302C55.9194 83.6091 52.27 88.9225 47.5967 93.038C42.7942 97.2674 37.7888 99.4979 33.1778 97.6676C30.4486 96.5843 29.1308 94.8323 28.5205 92.7593C27.867 90.5397 27.9936 87.7988 28.6024 84.9342C29.2033 82.107 30.2218 79.3969 31.1089 77.3673C31.5493 76.3597 31.95 75.5363 32.238 74.9697C32.3818 74.6867 32.4969 74.4688 32.5742 74.325C32.6129 74.2532 32.642 74.1999 32.6605 74.1664L32.68 74.1311L32.6826 74.1264L32.6832 74.1253C32.6832 74.1253 32.6832 74.1253 32.6832 74.1253C33.4008 72.8504 32.9501 71.2344 31.6755 70.5157C30.4003 69.7968 28.7837 70.2477 28.0648 71.5229L30.3737 72.8246Z" fill="#FDD936"/>
<path d="M65.9946 45.5317C65.9946 48.2639 63.7839 50.4746 61.0518 50.4746C58.3196 50.4746 56.1089 48.2639 56.1089 45.5317C56.1089 42.7996 58.3196 40.5889 61.0518 40.5889C63.7839 40.5889 65.9946 42.7996 65.9946 45.5317Z" fill="#AD1818"/>
<path d="M80.2373 52.5852C80.2373 54.4328 78.7334 55.9368 76.8857 55.9368C75.0381 55.9368 73.5342 54.4328 73.5342 52.5852C73.5342 50.7375 75.0381 49.2336 76.8857 49.2336C78.7334 49.2336 80.2373 50.7375 80.2373 52.5852Z" fill="#FDD936"/>
<path d="M47.626 68.27C47.626 70.1177 46.1221 71.6216 44.2744 71.6216C42.4268 71.6216 40.9229 70.1177 40.9229 68.27C40.9229 66.4224 42.4268 64.9185 44.2744 64.9185C46.1221 64.9185 47.626 66.4224 47.626 68.27Z" fill="#FDD936"/>
<path d="M87.7832 89.807C87.7832 92.3974 85.6871 94.4935 83.0967 94.4935C80.5062 94.4935 78.4102 92.3974 78.4102 89.807C78.4102 87.2166 80.5062 85.1205 83.0967 85.1205C85.6871 85.1205 87.7832 87.2166 87.7832 89.807Z" fill="#AD1818"/>
<path d="M62.4336 105.082C62.4336 107.648 60.3568 109.725 57.7903 109.725C55.2237 109.725 53.147 107.648 53.147 105.082C53.147 102.515 55.2237 100.438 57.7903 100.438C60.3568 100.438 62.4336 102.515 62.4336 105.082Z" fill="#AD1818"/>
<path d="M44.8955 85.3822C44.8955 87.828 42.9165 89.807 40.4707 89.807C38.0249 89.807 36.0459 87.828 36.0459 85.3822C36.0459 82.9364 38.0249 80.9574 40.4707 80.9574C42.9165 80.9574 44.8955 82.9364 44.8955 85.3822Z" fill="#AD1818"/>
<path d="M66.6073 2.22868L69.702 9.96529C69.9698 10.6497 70.6244 11.1258 71.3683 11.1555L79.4322 11.5721C81.1283 11.6614 81.8722 13.7741 80.5927 14.9048L74.3142 20.4394C73.7785 20.9155 73.5405 21.6297 73.719 22.3141L75.6532 30.0507C76.0698 31.6873 74.2844 32.9965 72.8561 32.1634L65.8337 28.0273C65.2385 27.6702 64.4946 27.6702 63.8995 28.0273L56.877 32.1634C55.419 33.0263 53.6634 31.6873 54.08 30.0507L56.0141 22.3141C56.1927 21.6297 55.9546 20.8858 55.419 20.4394L49.1405 14.9048C47.8609 13.7741 48.6048 11.6614 50.3009 11.5721L58.3649 11.1555C59.1088 11.1258 59.7634 10.6497 60.0312 9.96529L63.1258 2.22868C63.7507 0.621852 66.0122 0.621852 66.6668 2.22868H66.6073Z" fill="#E1B800"/>
</g>
</g>
<defs>
<clipPath id="clip0_5681_72935">
<rect width="128" height="128" fill="white"/>
</clipPath>
<clipPath id="clip1_5681_72935">
<rect width="128" height="128" fill="white" transform="translate(0.0786133)"/>
</clipPath>
</defs>
</svg>