<svg width="129" height="129" viewBox="0 0 129 129" fill="none" xmlns="http://www.w3.org/2000/svg">
<g clip-path="url(#clip0_4868_31636)">
<path d="M0.437012 34.3811C0.437012 34.3811 32.1749 42.9388 57.3919 33.2107C82.6089 23.4826 101.746 0.5 101.746 0.5C101.746 0.5 84.4633 28.0426 90.969 39.7619C98.0371 52.4693 112.391 53.3545 120.475 51.681C110.888 52.6851 106.002 57.5461 98.1587 70.1318C90.3154 82.7175 96.6067 94.7291 96.6067 94.7291C96.6067 94.7291 84.4633 87.7488 68.5944 90.1048C52.7255 92.4608 43.6206 105.199 43.6206 105.199C43.6206 105.199 44.0766 94.376 37.3125 88.4632C30.5485 82.5503 25.215 82.795 25.215 82.795C25.215 82.795 28.1773 70.8918 22.994 57.6373C17.8108 44.3828 0.437012 34.3963 0.437012 34.3963V34.3811Z" fill="#C84363"/>
<path d="M6.38818 60.6607C6.38818 60.6607 31.0745 66.2402 56.2915 56.5121C81.5085 46.784 97.3927 27.821 97.3927 27.821C97.3927 27.821 83.3629 51.3441 89.8686 63.0634C96.9367 75.7707 127.839 72.7459 127.459 72.8827C126.714 73.1411 104.902 80.8475 97.0583 93.4333C89.215 106.019 97.3927 120.201 97.3927 120.201C97.3927 120.201 87.4114 113.65 70.8687 116.262C54.326 118.874 42.5202 128.5 42.5202 128.5C42.5202 128.5 41.9023 118.531 35.1382 112.618C28.3742 106.706 18.2912 109.12 18.2912 109.12C18.2912 109.12 27.0769 94.1932 21.8936 80.9387C16.7104 67.6842 6.38818 60.6759 6.38818 60.6759V60.6607Z" fill="#C84363"/>
<path d="M41.8307 66.8995C57.6234 66.8995 70.426 54.0408 70.426 38.1789C70.426 22.317 57.6234 9.45837 41.8307 9.45837C26.0379 9.45837 13.2354 22.317 13.2354 38.1789C13.2354 54.0408 26.0379 66.8995 41.8307 66.8995Z" fill="#F9EA4A"/>
<path d="M37.259 19.1431C27.762 19.1431 19.3295 23.7976 14.1322 30.9778C13.5478 33.2737 13.2139 35.6949 13.2139 38.1996C13.2139 54.0627 26.0087 66.9202 41.8092 66.9202C57.6097 66.9202 59.7386 62.2656 64.9359 55.0855C65.5203 52.7895 65.8543 50.3683 65.8543 47.8636C65.8543 32.0005 53.0595 19.1431 37.259 19.1431Z" fill="#F6BA4A"/>
<path d="M73.2428 48.1976C80.5167 48.1976 86.4134 42.273 86.4134 34.9645C86.4134 27.656 80.5167 21.7313 73.2428 21.7313C65.9689 21.7313 60.0723 27.656 60.0723 34.9645C60.0723 42.273 65.9689 48.1976 73.2428 48.1976Z" fill="#F9EA4A"/>
<path d="M62.5352 29.7881C61.8673 30.1847 61.2411 30.623 60.6567 31.1031C60.281 32.3345 60.0723 33.6286 60.0723 34.9645C60.0723 42.2698 65.9583 48.1976 73.2428 48.1976C80.5273 48.1976 75.7266 48.0098 76.8955 47.6758C81.0282 43.71 82.3432 37.8031 79.6924 33.2112C76.5198 27.68 68.8387 26.1563 62.5352 29.809V29.7881Z" fill="#F6BA4A"/>
<path d="M100.523 68.4857C113.249 68.4857 123.566 58.1222 123.566 45.3381C123.566 32.5541 113.249 22.1906 100.523 22.1906C87.7963 22.1906 77.4795 32.5541 77.4795 45.3381C77.4795 58.1222 87.7963 68.4857 100.523 68.4857Z" fill="#F9EA4A"/>
<path d="M97.0585 30.4143C91.402 29.0993 85.4742 30.289 80.924 32.8772C78.5445 36.5299 76.9165 41.2471 76.9165 45.9225C76.9165 58.6965 87.5197 69.0284 100.252 69.0284C101.463 69.0284 101.149 68.4648 101.463 68.4648C107.307 66.0645 111.878 61.1594 113.339 54.7725C115.823 43.9814 108.517 33.0859 97.0585 30.4351V30.4143Z" fill="#F6BA4A"/>
<path d="M65.8972 84.3905C78.6236 84.3905 88.9405 74.027 88.9405 61.2429C88.9405 48.4589 78.6236 38.0953 65.8972 38.0953C53.1708 38.0953 42.854 48.4589 42.854 61.2429C42.854 74.027 53.1708 84.3905 65.8972 84.3905Z" fill="#F6BA4A"/>
<path d="M66.2769 64.296C72.6529 55.5203 71.6903 43.9514 64.1269 38.4563C56.5635 32.9612 45.2634 35.6207 38.8875 44.3965C32.5115 53.1722 33.4741 64.741 41.0375 70.2362C48.6009 75.7313 59.9009 73.0718 66.2769 64.296Z" fill="#F6BA4A"/>
<path d="M62.7652 26.5528C52.1202 23.4428 42.2893 29.8716 39.8263 39.3268C39.4715 40.6835 39.5083 40.2661 40.5519 39.3268C47.1268 33.4616 57.881 33.733 64.2889 38.5336C68.5051 41.6854 72.0327 47.0368 71.8866 52.4011C71.8449 53.8622 72.3248 54.1671 73.0553 52.8939C75.2887 48.9699 76.1027 44.1275 74.7877 39.0346C73.2432 33.0859 68.6512 28.2644 62.7652 26.5528Z" fill="#F9EA4A"/>
<path d="M19.7674 75.5198C27.1566 75.5198 33.1467 69.5016 33.1467 62.0779C33.1467 54.6541 27.1566 48.636 19.7674 48.636C12.3783 48.636 6.38818 54.6541 6.38818 62.0779C6.38818 69.5016 12.3783 75.5198 19.7674 75.5198Z" fill="#EB983F"/>
<path d="M54.7087 114.113C68.0806 114.113 78.9208 103.226 78.9208 89.7966C78.9208 76.367 68.0806 65.4801 54.7087 65.4801C41.3367 65.4801 30.4966 76.367 30.4966 89.7966C30.4966 103.226 41.3367 114.113 54.7087 114.113Z" fill="#EB983F"/>
<path d="M46.6935 91.2575C60.0655 91.2575 70.9056 80.3707 70.9056 66.9411C70.9056 53.5115 60.0655 42.6246 46.6935 42.6246C33.3216 42.6246 22.4814 53.5115 22.4814 66.9411C22.4814 80.3707 33.3216 91.2575 46.6935 91.2575Z" fill="#EB983F"/>
<path d="M74.0358 67.4212C74.2654 66.1898 74.3906 64.9165 74.3906 63.6224C74.3906 52.1008 60.1556 41.5602 48.6757 41.5602C37.1958 41.5602 35.9643 40.3914 32.1655 45.0459C30.2244 43.5222 28.2415 46.7366 25.5907 46.7366C19.2455 46.7366 14.1108 51.8921 14.1108 58.2582C14.1108 64.6243 19.2455 69.7798 25.5907 69.7798C31.9359 69.7798 27.9702 69.592 29.0764 69.2371C30.287 72.7646 32.416 75.8537 35.1712 78.2332C34.9416 79.4647 34.8164 80.7379 34.8164 82.032C34.8164 93.5536 44.1255 102.904 55.5845 102.904C67.0435 102.904 76.3526 93.5536 76.3526 82.032C76.3526 70.5104 78.4816 71.2409 74.0358 67.4212Z" fill="#F6BA4A"/>
<path d="M86.726 93.0944C96.7088 93.0944 104.802 84.9643 104.802 74.9353C104.802 64.9063 96.7088 56.7762 86.726 56.7762C76.7431 56.7762 68.6504 64.9063 68.6504 74.9353C68.6504 84.9643 76.7431 93.0944 86.726 93.0944Z" fill="#F6BA4A"/>
</g>
<defs>
<clipPath id="clip0_4868_31636">
<rect width="128" height="128" fill="white" transform="translate(0.5 0.5)"/>
</clipPath>
</defs>
</svg>
