<svg width="129" height="129" viewBox="0 0 129 129" fill="none" xmlns="http://www.w3.org/2000/svg">
<g clip-path="url(#clip0_4868_30813)">
<path d="M89.4707 41.0355C89.4523 55.7774 77.4523 67.31 62.7654 67.2796C48.0784 67.2492 36.1109 55.6316 36.1293 40.8897C36.1596 23.5546 48.1877 0.501932 62.8747 0.532333C77.5616 0.562734 89.5151 19.2644 89.4707 41.0355Z" fill="#83D5D5"/>
<path d="M79.6056 36.5873C79.5988 46.0878 71.8338 53.5332 62.3883 53.5145C52.8878 53.5077 45.2034 45.9674 45.2221 36.5219C45.267 25.3436 52.9743 10.4842 62.4748 10.491C71.9633 10.4427 79.6575 22.5289 79.6056 36.5873Z" fill="white"/>
<path d="M68.4171 25.3762C67.5997 25.3236 66.7751 25.5029 66.0844 25.7683C67.3272 24.8648 68.1636 23.4163 68.2687 21.7815C68.4287 18.8107 66.1461 16.2558 63.0414 16.0098C59.9606 15.8737 57.3388 18.1133 57.1238 21.0961C57.0188 22.7309 57.6833 24.1984 58.7827 25.2834C58.1255 24.9082 57.3272 24.6788 56.5098 24.6262C53.429 24.4902 50.8191 26.7847 50.5922 29.7126C50.4322 32.6834 52.7148 35.2383 55.8195 35.4843C58.3697 35.5631 60.5853 34.1027 61.3763 31.9157C60.9461 33.909 59.9927 38.2614 58.9531 40.0994L64.0344 40.4338C63.2073 38.4835 62.7578 34.0332 62.6143 32.0495C63.1594 34.2914 65.1647 36.1005 67.7388 36.2892C70.8196 36.4253 73.4414 34.1857 73.6564 31.2029C73.8164 28.2321 71.4668 25.6342 68.4171 25.3762Z" fill="#2DADAA"/>
<path d="M76.4098 13.1728C77.6973 12.0026 77.1995 9.35797 75.2979 7.26582C73.3963 5.17366 70.811 4.42628 69.5236 5.59649C68.2361 6.7667 68.7339 9.41136 70.6355 11.5035C72.5371 13.5957 75.1223 14.3431 76.4098 13.1728Z" fill="#DDFFFE"/>
<path d="M127.27 65.6798C131.633 82.2477 121.584 98.8447 105.01 103.153C88.4419 107.516 71.5616 97.9467 67.2537 81.3727C62.1704 61.8558 68.7673 32.348 85.3351 27.9847C101.909 23.6768 120.845 41.1513 127.27 65.6798Z" fill="#FED347"/>
<path d="M107.59 95.5739C91.0225 99.9372 74.1421 90.368 69.8343 73.794C67.4157 64.6389 67.6078 53.2308 70.2623 43.2882C65.3482 54.6035 64.1768 69.8225 67.26 81.428C71.6233 97.9958 88.4421 107.516 105.016 103.208C116.954 100.088 125.494 90.6136 127.724 79.3719C123.814 87.098 116.69 93.1615 107.59 95.5739Z" fill="#E59742"/>
<path d="M120.221 64.3307C122.966 74.908 116.574 85.546 105.997 88.2907C95.4195 91.0354 84.5968 85.0008 81.846 74.3681C78.6089 61.8822 82.7974 43.0188 93.424 40.2125C104.001 37.4678 116.122 48.631 120.221 64.3307Z" fill="#FFF3D9"/>
<path d="M96.5686 48.0971C96.5686 48.0971 103.878 54.7526 112.499 59.7692C108.447 69.0002 106.531 78.651 106.531 78.651C106.531 78.651 99.2214 71.9955 90.5413 66.9855C94.6597 57.8069 96.5686 48.0971 96.5686 48.0971Z" fill="#F27E2A"/>
<path d="M106.376 44.179C108.463 41.9572 107.243 37.4218 103.653 34.0488C100.062 30.6759 95.4591 29.7427 93.3721 31.9645C91.2851 34.1863 92.5042 38.7217 96.095 42.0947C99.6857 45.4676 104.289 46.4008 106.376 44.179Z" fill="#FFF1CA"/>
<path d="M106.371 44.1603C106.574 43.9695 106.765 43.6678 106.906 43.4277C102.886 40.5645 98.5339 39.2527 94.3042 40.0587C94.8274 40.7298 95.4122 41.4502 96.1017 42.1029C99.6722 45.4648 104.265 46.4134 106.371 44.1603Z" fill="white"/>
<path d="M77.7646 90.3684C77.7646 111.744 60.4525 128.5 39.1323 128.5C17.8122 128.5 0.5 111.689 0.5 90.3684C0.5 65.263 17.8122 31.752 39.1323 31.752C60.4525 31.752 77.7646 58.7501 77.7646 90.3684Z" fill="#F65B7D"/>
<path d="M43.5856 121.597C22.2098 121.597 4.95329 104.786 4.95329 83.4655C4.95329 71.6086 8.79426 57.8591 15.1402 46.6702C6.23361 58.6941 0.5 75.8949 0.5 90.3681C0.5 111.744 17.8122 128.499 39.1323 128.499C54.3292 128.499 67.4664 119.983 73.7567 107.402C66.6871 116.086 55.7765 121.597 43.5856 121.597Z" fill="#C03560"/>
<path d="M63.7367 87.919C63.7367 101.613 52.6035 112.412 38.9096 112.412C25.2158 112.412 14.0825 101.613 14.0825 87.919C14.0825 71.7758 25.2158 50.233 38.9096 50.233C52.6035 50.233 63.7367 67.6009 63.7367 87.919Z" fill="#FFDCE1"/>
<path d="M53.0876 81.987C59.5871 80.9679 63.3929 70.8104 61.588 59.2995C59.7832 47.7887 53.0511 39.2835 46.5516 40.3026C40.0521 41.3217 36.2463 51.4792 38.0512 62.99C39.8561 74.5009 46.5881 83.0061 53.0876 81.987Z" fill="#FF7EA6"/>
<path d="M61.566 72.5552C57.6694 59.585 48.9854 50.233 38.9655 50.233C38.6315 50.233 38.3532 50.233 38.0749 50.2887C37.2399 54.0183 37.0729 58.416 37.7965 63.0363C39.6335 74.8931 46.5918 83.6327 53.2717 82.5751C57.1684 81.9628 60.1187 78.0661 61.566 72.5552Z" fill="white"/>
<path d="M56.2215 88.0859C55.8319 96.0462 46.5356 101.334 40.2453 94.9885C39.2433 93.9865 38.5753 92.8732 38.0743 92.0382C39.132 100.332 39.967 102.225 40.4123 103.394C35.959 103.338 35.9034 103.338 33.4541 103.283C34.0107 102.114 34.8457 100.221 36.1817 92.0382C29.5018 102.169 20.0942 96.3245 18.9809 89.0323C17.8675 81.6287 23.3228 77.0084 27.2751 73.6127C34.0664 67.8234 35.6807 63.8155 37.629 59.1952C40.468 66.8215 42.3606 69.3264 50.0426 76.062C55.4422 80.6823 56.3885 85.1913 56.2215 88.0859Z" fill="#E11C59"/>
<path d="M53.2159 82.575C53.8283 82.4637 54.3849 82.2966 54.9416 82.074C53.9953 80.1813 52.4923 78.1217 50.0986 76.062C42.4167 69.3264 40.5797 66.8215 37.6851 59.1952C37.5737 59.4735 37.4624 59.7519 37.3511 60.0302C37.4067 61.0322 37.5181 62.0342 37.6851 63.0362C39.5777 74.893 46.4803 83.6326 53.2159 82.575Z" fill="#FF5B8E"/>
</g>
<defs>
<clipPath id="clip0_4868_30813">
<rect width="128" height="128" fill="white" transform="translate(0.5 0.5)"/>
</clipPath>
</defs>
</svg>
