<svg width="129" height="129" viewBox="0 0 129 129" fill="none" xmlns="http://www.w3.org/2000/svg">
<path d="M44.6367 106.587C44.1481 105.347 43.7535 104.031 43.434 102.641C42.532 102.641 40.5964 102.509 38.3414 101.908C36.9507 101.532 35.4474 100.968 33.9816 100.122C32.6662 99.3708 31.3883 98.3936 30.2984 97.0969C29.3588 95.9882 28.5507 94.654 27.9306 93.0567C27.5359 93.3197 27.1413 93.6016 26.7655 93.8835C27.1413 93.6016 27.5172 93.3197 27.9306 93.0567C27.893 92.9439 27.8366 92.8687 27.799 92.756C27.2353 91.1774 26.897 89.7117 26.7091 88.3023C26.2957 88.4714 25.9011 88.6405 25.5064 88.8097C25.8823 88.6405 26.2769 88.4714 26.6903 88.3023C26.4648 86.6674 26.4648 85.1452 26.6151 83.717C26.6339 83.4539 26.6715 83.2096 26.7091 82.9653C26.7655 82.7211 26.8031 82.4768 26.8406 82.2325C26.9346 81.7439 27.0662 81.2741 27.1977 80.8419C27.2729 80.6163 27.3292 80.3908 27.4232 80.1653C27.4984 79.921 27.5923 79.6955 27.6863 79.4325L27.9118 78.8875C28.0058 78.6808 28.0997 78.4741 28.1937 78.2861C27.9118 78.3049 27.6299 78.3425 27.348 78.3613C26.9534 78.4177 26.5588 78.4553 26.1829 78.5116C25.7883 78.568 25.3749 78.6244 24.999 78.6996C23.8151 78.8875 22.7064 79.4888 21.8796 80.4284C20.4889 81.9882 14.5131 94.3721 21.9735 106.437C29.0769 117.918 42.7575 120.925 50.4622 121.621C52.1911 121.771 53.1682 119.497 51.928 118.163C49.5226 115.551 46.5535 111.623 44.6179 106.568L44.6367 106.587Z" fill="#FFCE4F"/>
<path d="M76.0574 118.182C74.8171 119.516 75.7943 121.808 77.5231 121.639C85.2279 120.944 98.9084 117.937 106.012 106.455C113.472 94.3909 107.496 82.0257 106.106 80.4472C105.26 79.4888 104.151 78.8875 102.986 78.7183C102.61 78.6432 102.216 78.5868 101.802 78.5304C101.427 78.4741 101.032 78.4365 100.637 78.3801C100.374 78.3613 100.074 78.3237 99.7916 78.3049C99.8856 78.4929 99.9796 78.6996 100.074 78.9063C100.149 79.0942 100.224 79.2633 100.299 79.4512C100.393 79.7143 100.487 79.9398 100.562 80.1841C100.656 80.4096 100.712 80.6163 100.788 80.8606C100.919 81.2929 101.051 81.7627 101.145 82.2513C101.201 82.4955 101.239 82.7398 101.276 82.9841C101.314 83.2284 101.351 83.4727 101.37 83.7358C101.521 85.1452 101.521 86.6862 101.295 88.3211C101.708 88.4902 102.084 88.6593 102.479 88.8285C102.084 88.6593 101.69 88.4902 101.276 88.3211C101.088 89.7305 100.731 91.215 100.186 92.7748C100.149 92.8875 100.092 92.9815 100.055 93.0754C100.449 93.3385 100.844 93.6204 101.22 93.9023C100.844 93.6204 100.468 93.3385 100.055 93.0754C99.4534 94.6728 98.6453 96.007 97.687 97.1157C96.597 98.3936 95.3192 99.3708 94.0037 100.141C92.5567 100.987 91.0346 101.551 89.644 101.926C87.3889 102.528 85.4534 102.641 84.5513 102.659C84.2319 104.05 83.8184 105.365 83.3486 106.606C81.4319 111.661 78.4439 115.588 76.0386 118.2L76.0574 118.182Z" fill="#FFCE4F"/>
<path d="M47.5678 106.925C47.0792 105.685 46.6846 104.369 46.3651 102.979C45.4631 102.979 43.5275 102.847 41.2725 102.246C39.8819 101.87 38.3785 101.306 36.9128 100.461C35.5973 99.709 34.3195 98.7318 33.2295 97.4352C32.2899 96.3265 31.4819 94.9922 30.8617 93.3949C30.4671 93.658 30.0725 93.9399 29.6966 94.2218C30.0725 93.9399 30.4483 93.658 30.8617 93.3949C30.8242 93.2822 30.7678 93.207 30.7302 93.0942C30.1664 91.5157 29.8282 90.0499 29.6403 88.6405C29.2268 88.8097 28.8322 88.9788 28.4376 89.1479C28.8134 88.9788 29.208 88.8097 29.6215 88.6405C29.396 87.0056 29.396 85.4835 29.5463 84.0553C29.5651 83.7922 29.6027 83.5479 29.6403 83.3036C29.6966 83.0593 29.7342 82.815 29.7718 82.5707C29.8657 82.0821 29.9973 81.6123 30.1288 81.1801C30.204 80.9546 30.2604 80.7291 30.3543 80.5036C30.4295 80.2593 30.5235 80.0338 30.6174 79.7707C30.6926 79.5828 30.7678 79.4137 30.8429 79.2257C30.9369 79.019 31.0309 78.8123 31.1248 78.6244C30.8429 78.6432 30.5611 78.6808 30.2792 78.6996C29.8845 78.7559 29.4899 78.7935 29.1141 78.8499C28.7194 78.9063 28.306 78.9626 27.9302 79.0378C26.7463 79.2257 25.6376 79.8271 24.8107 80.7667C23.4201 82.3264 17.4442 94.7104 24.9047 106.775C32.008 118.257 45.6886 121.263 53.3933 121.959C55.1222 122.109 56.0994 119.835 54.8591 118.501C52.4537 115.889 49.4846 111.961 47.549 106.906L47.5678 106.925Z" fill="#FFB902"/>
<path d="M46.5723 103.693C46.2152 103.693 32.4971 103.749 29.0769 91.2526C25.8823 79.6204 33.7373 73.7385 33.8877 73.5694C39.6756 70.7694 44.6367 69.623 44.6367 69.623L46.3843 83.7922L46.9293 88.1332C45.2944 93.9211 45.4447 99.1453 46.5723 103.674V103.693Z" fill="#FFE25D"/>
<path d="M73.0691 118.52C71.8288 119.854 72.806 122.147 74.5348 121.978C82.2396 121.282 95.9202 118.276 103.024 106.794C110.484 94.7291 104.508 82.364 103.117 80.7855C102.272 79.8271 101.163 79.2257 99.998 79.0566C99.6222 78.9814 99.2275 78.9251 98.8141 78.8687C98.4383 78.8123 98.0437 78.7747 97.649 78.7183C97.3859 78.6996 97.0853 78.662 96.8034 78.6432C96.8973 78.8311 96.9913 79.0378 97.0853 79.2445C97.1604 79.4325 97.2356 79.6016 97.3108 79.7895C97.4047 80.0526 97.4987 80.2781 97.5739 80.5224C97.6678 80.7479 97.7242 80.9546 97.7994 81.1989C97.9309 81.6311 98.0624 82.1009 98.1564 82.5895C98.2128 82.8338 98.2504 83.0781 98.2879 83.3224C98.3255 83.5667 98.3631 83.811 98.3819 84.0741C98.5322 85.4835 98.5323 87.0244 98.3067 88.6593C98.7202 88.8285 99.096 88.9976 99.4906 89.1667C99.096 88.9976 98.7014 88.8285 98.2879 88.6593C98.1 90.0687 97.743 91.5533 97.198 93.113C97.1604 93.2258 97.104 93.3197 97.0665 93.4137C97.4611 93.6768 97.8557 93.9587 98.2316 94.2406C97.8557 93.9587 97.4799 93.6768 97.0665 93.4137C96.4651 95.011 95.6571 96.3453 94.6987 97.454C93.6087 98.7318 92.3309 99.709 91.0154 100.48C89.5685 101.325 88.0463 101.889 86.6557 102.265C84.4007 102.866 82.4651 102.979 81.5631 102.998C81.2436 104.388 80.8302 105.704 80.3604 106.944C78.4436 111.999 75.4557 115.927 73.0503 118.539L73.0691 118.52Z" fill="#FFB902"/>
<path d="M81.3561 103.693C81.7131 103.693 95.4313 103.749 98.8514 91.2526C102.046 79.6204 94.191 73.7385 94.0407 73.5694C88.2527 70.7694 83.2917 69.623 83.2917 69.623L81.544 83.7922L80.999 88.1332C82.6339 93.9211 82.4836 99.1453 81.3561 103.674V103.693Z" fill="#FFE25D"/>
<path d="M45.4081 14.0839C45.4081 14.0839 48.6468 9.04597 47.2588 6.26996C45.8708 3.49394 41.8556 4.64759 41.8556 4.64759V4.68517C41.7429 4.70396 41.6301 4.72276 41.4986 4.77913C31.4637 8.81941 10.8676 18.8168 6.88371 42.6638C3.46356 63.0907 17.6515 74.272 20.3576 75.4747C21.9925 76.2076 23.8153 76.3391 25.5442 75.8881C26.9724 75.5123 28.5321 75.08 30.1858 74.5539C28.363 72.9753 21.2784 67.7136 22.575 55.8182C24.1348 41.5363 38.116 35.1282 39.3563 34.5833C39.112 32.6289 39.0368 30.7121 39.0932 28.8329C39.2999 20.3577 41.4618 16.1886 43.6981 11.453L45.4269 14.0651L45.4081 14.0839Z" fill="#F4AA73"/>
<path d="M22.519 61.787C22.519 48.2567 37.3835 40.9466 40.8412 39.4996C41.5741 45.7386 44.0923 53.3118 49.805 57.6527L54.3903 83.4729C54.3903 83.4729 50.2936 84.187 44.3366 84.3937C38.0412 84.6004 31.7835 82.1763 27.7244 77.3467C24.6989 73.7763 22.519 68.7776 22.519 61.787Z" fill="#FFB902"/>
<path d="M82.8786 12.7249C82.8786 12.7249 81.4164 8.53642 82.8598 5.75647C84.177 3.73143 87.088 4.64775 87.5014 4.77929C97.5364 8.81957 118.132 18.8169 122.116 42.664C125.536 63.0909 111.348 74.2721 108.642 75.4748C107.008 76.2077 105.185 76.3392 103.456 75.8882C102.028 75.5124 100.468 75.0802 98.8142 74.554C100.637 72.9755 107.722 67.7137 106.425 55.8184C104.865 41.5364 90.884 35.1284 89.6437 34.5834C89.888 32.629 89.9632 30.7123 89.9068 28.8331C89.7001 20.3579 87.7876 16.3367 85.5514 11.6011L82.8598 12.7061L82.8786 12.7249Z" fill="#F4AA73"/>
<path d="M40.9161 40.1009C40.6718 38.1465 40.5967 36.2298 40.653 34.3506C40.8597 25.6687 43.7161 18.0955 45.9712 13.3787C46.8732 11.4995 45.0128 9.50753 43.0772 10.278C33.0423 14.3183 12.4462 24.3156 8.46232 48.1627C5.04218 68.5896 19.2301 79.7708 21.9362 80.9735C23.5711 81.7064 25.3939 81.838 27.1228 81.3869C28.551 81.0111 30.1107 80.5789 31.7644 80.0527C29.9416 78.4742 22.857 73.2124 24.1536 61.3171C25.7134 47.0352 39.6946 40.6271 40.9349 40.0821L40.9161 40.1009Z" fill="#EA7A3B"/>
<path d="M106.482 61.7868C106.482 48.2566 91.6171 40.9465 88.1594 39.4995C87.4265 45.7385 84.9084 53.3116 79.1956 57.6526L74.6104 83.4728C74.6104 83.4728 78.707 84.1869 84.6641 84.3936C90.9594 84.6003 97.2171 82.1762 101.276 77.3466C104.302 73.7761 106.482 68.7775 106.482 61.7868Z" fill="#FFB902"/>
<path d="M104.865 61.317C106.162 73.2123 99.0773 78.4741 97.2545 80.0526C98.9082 80.5788 100.468 81.011 101.896 81.3868C103.625 81.8378 105.448 81.7063 107.083 80.9734C109.77 79.7707 123.526 69.4915 120.557 49.7223C116.967 25.8001 95.9579 14.2994 85.9417 10.2591C84.0061 9.4886 82.1457 11.4806 83.0477 13.3598C85.3028 18.0766 88.1592 25.6497 88.3659 34.3316C88.4223 36.2108 88.3471 38.1276 88.1028 40.082C89.3431 40.627 103.324 47.0162 104.884 61.317H104.865Z" fill="#EA7A3B"/>
<path d="M83.4425 59.3438L63.9364 72.0471L50.0116 62.9706L44.4679 59.3438C43.4532 59.3438 42.7766 60.6968 42.4196 62.9706C42.2881 63.7787 42.2129 64.6995 42.1753 65.7142C41.7807 77.5532 47.3619 102.039 59.2384 104.595C61.3995 105.403 62.6774 104.82 63.3539 104.257C63.7673 103.881 63.9552 103.524 63.9552 103.524C63.9552 103.524 65.1579 105.91 68.672 104.595C72.7687 103.712 76.1137 100.216 78.7257 95.556C83.5553 86.8928 85.8667 74.1706 85.7352 66.3532C85.6788 62.1438 84.9271 59.3625 83.4613 59.3625L83.4425 59.3438Z" fill="#B75F2E"/>
<path d="M83.4425 59.3438L63.9364 72.0471L50.0115 62.9706L44.4679 59.3438C43.6786 59.3438 43.0961 60.1518 42.7202 61.5612C43.2276 74.1143 48.8276 95.0674 59.7458 97.3976C61.9068 98.2056 63.1847 97.6231 63.8612 97.0593C64.2746 96.6835 64.4626 96.3264 64.4626 96.3264C64.4626 96.3264 65.6653 98.713 69.1794 97.3976C73.276 96.5143 76.621 93.019 79.2331 88.3586C82.672 82.2136 84.8143 74.0203 85.7351 66.9921C85.7351 66.7666 85.7351 66.5411 85.7351 66.3344C85.6787 62.125 84.9271 59.3438 83.4613 59.3438H83.4425Z" fill="#EA7A3B"/>
<path d="M67.2249 71.0512C69.2356 70.619 73.1443 69.4915 77.1282 66.8794C78.4249 66.0337 80.1162 67.1425 79.8343 68.6646C78.6504 75.1854 75.6813 87.1184 69.3108 91.3466C68.2208 92.0607 66.755 91.3654 66.5859 90.0687C66.041 85.709 65.8906 76.3881 65.853 72.7613C65.853 71.9344 66.4168 71.2015 67.2249 71.0136V71.0512Z" fill="#FFB902"/>
<path d="M61.0987 71.1075C59.0692 70.6189 55.104 69.435 51.1765 66.898C49.8799 66.0524 48.2074 67.1799 48.4705 68.7021C49.6356 75.2229 52.6047 87.2122 58.994 91.4592C60.0839 92.1733 61.5497 91.478 61.7188 90.1813C62.2826 85.8216 62.4141 76.4444 62.4517 72.8363C62.4893 69.2283 61.888 71.2954 61.0799 71.0887L61.0987 71.1075Z" fill="#FFB902"/>
<path d="M63.9362 59.3625C69.2189 59.3625 73.5014 55.0968 73.5014 49.8349C73.5014 44.573 69.2189 40.3074 63.9362 40.3074C58.6536 40.3074 54.3711 44.573 54.3711 49.8349C54.3711 55.0968 58.6536 59.3625 63.9362 59.3625Z" fill="#59483E"/>
<path d="M63.9173 35.0456C70.8502 35.0456 76.4704 29.4254 76.4704 22.4925C76.4704 15.5596 70.8502 9.93945 63.9173 9.93945C56.9845 9.93945 51.3643 15.5596 51.3643 22.4925C51.3643 29.4254 56.9845 35.0456 63.9173 35.0456Z" fill="#B75F2E"/>
<path d="M51.3833 22.4925C51.3833 24.9543 52.0974 27.2281 53.3189 29.1637C54.5967 29.5959 55.9686 29.859 57.3967 29.859C64.331 29.859 69.9498 24.2402 69.9498 17.3059C69.9498 10.3717 69.2357 12.5703 68.0142 10.6348C66.7364 10.2025 65.3646 9.93945 63.9364 9.93945C57.0021 9.93945 51.3833 15.5583 51.3833 22.4925Z" fill="#EA7A3B"/>
<path d="M85.434 63.3088C80.7172 67.1612 71.3588 74.4713 63.9359 74.3961C61.5118 74.4337 58.8621 73.6444 56.2312 72.4606C50.8755 70.0552 45.6137 65.9021 42.4379 63.3088C42.4379 63.1961 42.4003 63.0646 42.4003 62.9518C41.5358 54.8524 48.207 55.2659 53.9198 52.7102C54.2392 52.541 54.5587 52.3907 54.8782 52.2216C55.8741 52.3719 71.9601 53.2363 72.9561 52.2216C78.9319 55.3786 86.5427 54.3826 85.3964 63.3088H85.434Z" fill="#59483E"/>
</svg>
