<svg width="129" height="129" viewBox="0 0 129 129" fill="none" xmlns="http://www.w3.org/2000/svg">
<g clip-path="url(#clip0_4868_30805)">
<path d="M63.6625 13.0906C63.2716 12.9671 56.5031 3.95623 46.1756 0.5C46.2373 0.5 43.7686 7.59763 38.3373 13.5432C32.0215 20.4351 22.5991 26.3189 22.5991 26.3189L30.0259 30.6803L63.6625 13.07V13.0906Z" fill="#7E6EDA"/>
<path d="M68.2919 62.7328C68.2919 62.7328 68.4154 66.8062 67.325 73.2661C66.2346 79.7259 65.3706 79.8288 64.4448 81.3512C63.9099 82.2153 62.7578 82.4416 61.9555 81.8038C60.2685 80.4871 57.4706 78.1007 55.8865 75.6525C53.5001 71.97 52.2451 66.9708 52.2451 66.9708L68.2714 62.7328H68.2919Z" fill="#7E6EDA"/>
<path d="M115.013 16.1558C114.087 13.5637 73.6615 -4.14954 29.4916 27.0594C15.0289 37.1196 5.50368 55.4911 8.63075 69.5423C11.9018 84.3136 24.1838 91.2672 32.1455 99.7432C35.0051 102.788 34.7171 108.672 40.2923 116.428C44.9006 122.847 50.2702 126.529 53.7675 128.401C54.467 128.771 55.2488 128.031 54.899 127.311C52.8418 123.155 48.6655 115.255 49.7147 105.709C51.0725 93.2422 59.281 86.412 56.0717 85.836C49.4061 84.6428 40.4775 92.1313 40.4775 92.1313C40.4775 92.1313 29.8002 81.0014 33.1947 77.4217C41.7736 68.3903 55.866 71.7436 77.3234 60.8195C88.0007 55.3882 96.9293 48.8255 106.475 40.1849C116.021 31.5443 115.959 18.748 115.033 16.1764L115.013 16.1558Z" fill="#7E6EDA"/>
<path d="M66.5021 18.2954C66.5021 18.2954 35.6017 25.537 30.2528 49.5867C26.1999 67.8142 30.2939 76.2285 32.5158 79.2527C32.5158 78.5326 32.7215 77.9155 33.1741 77.4217C41.753 68.3903 55.8454 71.7436 77.3028 60.8194C88.371 55.1825 99.3363 47.4265 107.339 39.4237L66.4815 18.316L66.5021 18.2954Z" fill="#4B4282"/>
<path d="M120.877 17.0816C119.951 14.4894 74.5671 -4.76675 30.3972 26.4217C20.4194 33.3547 11.9023 44.8755 9.14551 55.5734C13.939 48.3317 18.0124 40.4523 32.2076 30.7214C47.3492 20.3321 61.6268 19.7766 61.6268 19.7766C61.6268 19.7766 55.3109 33.3136 66.5643 42.7153C72.6744 47.8174 84.298 47.7145 94.1113 45.5338C104.747 43.1474 113.676 35.9675 118.264 26.0925C120.239 21.8339 121.288 18.2131 120.877 17.1022V17.0816Z" fill="#A192F2"/>
<path d="M87.1706 41.7928C64.5199 43.0889 65.8027 19.571 69.8556 18.0486C90.5313 12.1647 109.253 17.3285 115.301 19.3447C116.432 19.715 117.094 20.79 116.474 22.0809C114.612 25.9522 105.775 40.7642 87.7535 41.7928H87.1706Z" fill="#EFE3EF"/>
<path d="M92.8562 28.0675C95.5376 28.0675 97.7113 25.8938 97.7113 23.2124C97.7113 20.5309 95.5376 18.3572 92.8562 18.3572C90.1747 18.3572 88.001 20.5309 88.001 23.2124C88.001 25.8938 90.1747 28.0675 92.8562 28.0675Z" fill="#1C3140"/>
<path d="M16.4073 71.538C16.4073 71.538 10.0092 76.4755 9.33026 87.091C8.77479 95.423 11.943 100.196 13.342 101.883C13.6917 102.294 14.2677 102.356 14.6792 102.027C16.5719 100.484 21.5094 95.7316 21.1802 88.3665C20.851 81.0015 16.4073 71.538 16.4073 71.538Z" fill="#7E6EDA"/>
<path d="M62.6544 49.6895C62.6544 49.6895 55.7625 58.7004 42.925 56.9723C30.067 55.2442 26.6313 42.7976 26.6313 42.7976C26.6313 42.7976 32.8649 40.514 42.1021 40.514C51.3393 40.514 44.5297 40.5346 45.6406 40.5963C52.3885 40.9049 58.6427 44.2583 62.6544 49.6895Z" fill="#7E6EDA"/>
</g>
<defs>
<clipPath id="clip0_4868_30805">
<rect width="128" height="128" fill="white" transform="translate(0.5 0.5)"/>
</clipPath>
</defs>
</svg>
