<svg width="129" height="129" viewBox="0 0 129 129" fill="none" xmlns="http://www.w3.org/2000/svg">
<g clip-path="url(#clip0_4868_30808)">
<path fill-rule="evenodd" clip-rule="evenodd" d="M3.28076 37.4451C3.28076 37.4451 30.1434 74.856 67.0461 101.387L27.773 56.2235L3.28076 37.4451Z" fill="#008D64"/>
<path fill-rule="evenodd" clip-rule="evenodd" d="M116.298 106.279C116.298 106.279 64.6873 98.1024 43.7148 50.6552L68.7315 40.5999L68.9527 40.5423L69.3951 40.4272L70.0587 40.2544C70.1693 40.2256 70.3617 40.0575 70.4723 40.0287L72.5161 39.2604L72.6267 39.2316C72.6267 39.2316 72.6267 39.2316 72.7373 39.2028L73.6221 38.9725L73.9251 38.7755L75.4159 38.1513L103.967 26.7034L120.424 20.0575L120.166 24.9664C120.166 24.9664 118.55 26.9225 117.246 29.6239C115.917 32.686 115.069 36.6859 117.952 39.5962C118.288 39.9811 118.735 40.3371 119.322 40.7749L116.679 94.1336L116.794 94.576C116.683 94.6048 116.659 94.9654 116.659 94.9654L116.717 95.1866C116.746 95.2972 116.664 95.4366 116.664 95.4366L116.105 106.447L116.298 106.279Z" fill="#CD445C"/>
<path fill-rule="evenodd" clip-rule="evenodd" d="M120.434 20.093L103.977 26.7389L75.1142 38.9766L73.6234 39.6009L73.2916 39.6873L72.9598 39.7736C72.7386 39.8312 72.5174 39.8888 72.325 40.057L72.2144 40.0858L70.1993 40.9647C70.0887 40.9934 69.8675 41.051 69.7569 41.0798L69.0933 41.2526L68.6509 41.3677L68.4297 41.4253L43.7248 50.6907L19.5113 32.0758L49.9853 21.6627L65.3738 16.3577C65.6814 16.6319 65.9602 16.7955 66.2389 16.9592C73.2753 22.2132 76.4128 17.0269 77.6308 13.9936C78.0352 12.8255 78.1943 12.0755 78.1943 12.0755L96.4008 5.80063L120.434 20.093Z" fill="#D288B0"/>
<path fill-rule="evenodd" clip-rule="evenodd" d="M21.9932 31.1586L9.86508 35.3787L34.3861 54.2678L46.1778 49.6629L21.9932 31.1586Z" fill="#91F5D7"/>
<path fill-rule="evenodd" clip-rule="evenodd" d="M116.611 101.124L116.684 117.284C116.684 117.284 63.2213 112.424 34.3548 54.1599L46.0647 49.6943C46.0647 49.6943 71.2445 96.5187 116.5 101.153L116.611 101.124Z" fill="#7BF5D8"/>
<path fill-rule="evenodd" clip-rule="evenodd" d="M34.793 54.1566L27.6616 56.2493C27.6616 56.2493 53.01 111.887 116.943 121.579L116.736 111.713C116.736 111.713 59.5793 108.996 34.6824 54.1854L34.793 54.1566Z" fill="#00C8A7"/>
<path fill-rule="evenodd" clip-rule="evenodd" d="M10.2718 35.271L3.27974 37.4455L27.772 56.2239L34.7928 54.16L10.2718 35.271Z" fill="#00C8A7"/>
<path style="mix-blend-mode:multiply" opacity="0.2" fill-rule="evenodd" clip-rule="evenodd" d="M119.521 40.6019L116.878 93.9606C117.146 87.2775 118.479 56.1074 118.151 39.4232C118.488 39.808 118.935 40.1641 119.521 40.6019Z" fill="url(#paint0_linear_4868_30808)"/>
<path style="mix-blend-mode:multiply" opacity="0.2" fill-rule="evenodd" clip-rule="evenodd" d="M6.82976 42.7802C6.82976 42.7802 21.4659 51.3701 24.3296 55.1122C27.1933 58.8544 34.7405 71.0611 45.8602 82.9284C45.8602 82.9284 36.595 73.6488 27.3628 56.3302L2.87061 37.5518L6.82976 42.7802Z" fill="url(#paint1_linear_4868_30808)"/>
<path fill-rule="evenodd" clip-rule="evenodd" d="M65.3968 16.4651C65.3968 16.4651 74.4815 21.4221 78.1885 12.0723C78.1885 12.0723 76.4695 26.337 65.3968 16.4651Z" fill="#C46A9A"/>
<path fill-rule="evenodd" clip-rule="evenodd" d="M87.7225 74.9216C87.7225 74.9216 84.9406 62.7414 98.9184 60.3156C98.9184 60.3156 98.7063 74.4373 87.7225 74.9216Z" fill="#6B2D38"/>
<path fill-rule="evenodd" clip-rule="evenodd" d="M105.779 66.4427C105.779 66.4427 99.6935 54.8129 112.264 49.1658C112.264 49.1658 117.405 63.4163 105.779 66.4427Z" fill="#6B2D38"/>
<path fill-rule="evenodd" clip-rule="evenodd" d="M99.5478 47.1467C97.4328 49.3347 91.5754 50.8275 89.6045 49.9232C89.6045 49.9232 90.2116 44.3184 94.393 41.2856C98.5744 38.2527 102.12 38.2763 103.402 38.2001C103.402 38.2001 103.11 43.4923 99.4359 47.1698L99.5478 47.1467Z" fill="#6B2D38"/>
<ellipse cx="8.78958" cy="6.41139" rx="8.78958" ry="6.41139" transform="matrix(0.926569 -0.376126 0.376123 0.926569 57.4365 29.7164)" fill="#C46A9A"/>
<ellipse cx="8.78958" cy="8.3698" rx="8.78958" ry="8.3698" transform="matrix(0.926569 -0.376126 0.376123 0.926569 59.3491 49.6763)" fill="#A7394D"/>
<ellipse cx="4.5729" cy="4.47641" rx="4.5729" ry="4.47641" transform="matrix(0.926569 -0.376126 0.376123 0.926569 72.0947 69.9513)" fill="#A7394D"/>
<ellipse cx="4.33418" cy="4.4764" rx="4.33418" ry="4.4764" transform="matrix(-0.251925 -0.967747 0.967746 -0.251927 101.715 87.6843)" fill="#A7394D"/>
<ellipse cx="5.96208" cy="3.37382" rx="5.96208" ry="3.37382" transform="matrix(0.926569 -0.376126 0.376123 0.926569 36.5015 31.6776)" fill="#C46A9A"/>
<ellipse cx="3.32696" cy="1.88266" rx="3.32696" ry="1.88266" transform="matrix(0.926569 -0.376126 0.376123 0.926569 88.0889 19.6949)" fill="#C46A9A"/>
</g>
<defs>
<linearGradient id="paint0_linear_4868_30808" x1="103.904" y1="84.2371" x2="130.695" y2="49.3333" gradientUnits="userSpaceOnUse">
<stop offset="0.3" stop-color="#FF9FEC"/>
<stop offset="0.4" stop-color="#F997E4"/>
<stop offset="0.6" stop-color="#E982CE"/>
<stop offset="0.9" stop-color="#D061AB"/>
<stop offset="1" stop-color="#CA59A2"/>
</linearGradient>
<linearGradient id="paint1_linear_4868_30808" x1="21.1462" y1="64.2327" x2="27.2003" y2="56.3453" gradientUnits="userSpaceOnUse">
<stop offset="0.3" stop-color="#FF9FEC"/>
<stop offset="0.4" stop-color="#F997E4"/>
<stop offset="0.6" stop-color="#E982CE"/>
<stop offset="0.9" stop-color="#D061AB"/>
<stop offset="1" stop-color="#CA59A2"/>
</linearGradient>
<clipPath id="clip0_4868_30808">
<rect width="128" height="128" fill="white" transform="translate(0.5 0.5)"/>
</clipPath>
</defs>
</svg>
