<svg width="129" height="129" viewBox="0 0 129 129" fill="none" xmlns="http://www.w3.org/2000/svg">
<g clip-path="url(#clip0_4868_30812)">
<path d="M38.6097 97.1528C38.6097 97.1528 37.5918 107.294 31.7532 111.346C25.9338 115.398 20.9595 115.763 20.9595 115.763V122.197H38.6097C38.6097 122.197 41.9131 119.432 44.4867 115.955C47.0603 112.46 52.7644 102.166 52.7644 102.166L38.6097 97.172V97.1528Z" fill="#EFAC25"/>
<path d="M90.2744 97.1528C90.2744 97.1528 91.3115 107.294 97.1309 111.346C102.95 115.398 107.925 115.763 107.925 115.763V122.197H90.2744C90.2744 122.197 86.971 119.432 84.3974 115.955C81.8238 112.46 76.1196 102.166 76.1196 102.166L90.2744 97.172V97.1528Z" fill="#EFAC25"/>
<path d="M35.7856 106.525C35.7856 106.525 39.646 107.87 41.2401 109.675C42.8342 111.48 45.2541 114.841 45.2541 114.841L49.2874 108.254L36.8612 102.358L35.7856 106.506V106.525Z" fill="#DB4E37"/>
<path d="M79.6143 108.292L81.7461 111.884C81.7461 111.884 85.5105 111.192 89.1404 110.597C92.7511 110.001 95.6512 110.097 95.6512 110.097C95.6512 110.097 94.0955 108.522 93.2696 106.832C92.4438 105.142 92.0405 101.455 92.0405 101.455L79.6335 108.292H79.6143Z" fill="#DB4E37"/>
<path d="M98.7376 94.2736C117.646 75.3652 117.646 44.7086 98.7376 25.8001C79.8291 6.8917 49.1725 6.8917 30.2641 25.8001C11.3557 44.7086 11.3557 75.3652 30.2641 94.2736C49.1725 113.182 79.8291 113.182 98.7376 94.2736Z" fill="#EFAC25"/>
<path d="M25.5878 56.2633L14.6597 58.6256L25.5878 64.2722V56.2633Z" fill="#DB4E37"/>
<path d="M35.4216 34.6567L29.0645 23.9974L41.241 29.3367L35.4216 34.6567Z" fill="#DB4E37"/>
<path d="M60.543 21.616C60.543 21.3279 63.6159 9.49707 63.6159 9.49707L68.1677 21.616H60.543Z" fill="#DB4E37"/>
<path d="M87.335 29.3368C87.6038 29.2407 100.261 24.3624 100.261 24.3624L94.2107 35.425L87.335 29.3368Z" fill="#DB4E37"/>
<path d="M102.892 53.709L115.03 57.3389L103.391 62.1212L102.892 53.709Z" fill="#DB4E37"/>
<path d="M90.6768 88.8366L103.391 92.8506L97.0339 81.8649L90.6768 88.8366Z" fill="#DB4E37"/>
<path d="M59.8511 99.1694C59.8511 99.1694 64.3837 111.884 64.4413 111.25C64.4989 110.616 69.1467 99.1694 69.1467 99.1694H59.8511Z" fill="#DB4E37"/>
<path d="M35.1519 85.1875C35.4592 85.5332 28.9292 95.962 28.9292 95.962L41.2402 91.7175L35.1519 85.1875Z" fill="#DB4E37"/>
<path d="M64.4993 112.978C50.3638 112.978 37.0733 107.466 27.067 97.4791C17.0608 87.492 11.5679 74.1824 11.5679 60.0468C11.5679 45.9113 17.08 32.6208 27.067 22.6145C37.0541 12.6275 50.3446 7.11536 64.4993 7.11536C78.6541 7.11536 91.9253 12.6275 101.932 22.6145C111.919 32.6016 117.431 45.8921 117.431 60.0468C117.431 74.2016 111.919 87.4728 101.932 97.4791C91.9445 107.485 78.6348 112.978 64.4993 112.978ZM64.4993 11.8976C37.9376 11.8976 16.3309 33.5043 16.3309 60.066C16.3309 86.6278 37.9376 108.234 64.4993 108.234C91.0611 108.234 112.668 86.6278 112.668 60.066C112.668 33.5043 91.0611 11.8976 64.4993 11.8976Z" fill="#F2D633"/>
<path d="M64.4995 111.691C50.7096 111.691 37.7457 106.314 27.9891 96.5763C18.2325 86.8197 12.874 73.8557 12.874 60.0659C12.874 46.276 18.2517 33.3121 27.9891 23.5555C37.7457 13.7989 50.7096 8.44043 64.4995 8.44043C78.2893 8.44043 91.2533 13.8181 101.01 23.5555C110.766 33.3121 116.125 46.276 116.125 60.0659C116.125 73.8557 110.747 86.8197 101.01 96.5763C91.2533 106.333 78.2893 111.691 64.4995 111.691ZM64.4995 10.6107C37.2271 10.6107 15.0443 32.7935 15.0443 60.0659C15.0443 87.3382 37.2271 109.521 64.4995 109.521C91.7718 109.521 113.955 87.3382 113.955 60.0659C113.955 32.7935 91.7718 10.6107 64.4995 10.6107Z" fill="#F2D633"/>
<path d="M92.002 87.1043C107.198 71.9085 107.198 47.2714 92.002 32.0756C76.8062 16.8799 52.1691 16.8799 36.9733 32.0756C21.7776 47.2714 21.7776 71.9086 36.9733 87.1043C52.1691 102.3 76.8062 102.3 92.002 87.1043Z" fill="#EFAC25"/>
<path d="M64.5562 59.5859L54.1274 22.096C57.5269 21.155 61.0224 20.6748 64.5562 20.6748C68.0901 20.6748 70.2796 21.0013 73.0837 21.6159L64.5562 59.5859Z" fill="white"/>
<path d="M64.5567 59.5859L74.9855 97.0758C71.5861 98.0169 68.0906 98.4971 64.5567 98.4971C61.0228 98.4971 58.8334 98.1706 56.0293 97.556L64.5567 59.5859Z" fill="white"/>
<path d="M64.48 59.586L101.97 49.1572C102.911 52.5567 103.391 56.0521 103.391 59.586C103.391 63.1199 103.065 65.3094 102.45 68.1135L64.48 59.586Z" fill="white"/>
<path d="M64.4805 59.5859L26.9906 70.0147C26.0495 66.6153 25.5693 63.1198 25.5693 59.5859C25.5693 56.052 25.8958 53.8625 26.5104 51.0585L64.4805 59.5859Z" fill="white"/>
<path d="M64.4803 59.5283L30.6011 40.3992C32.3296 37.3263 34.4807 34.503 36.9774 32.0254C39.0133 29.9896 41.2604 28.2035 43.6803 26.667L64.4995 59.5475L64.4803 59.5283Z" fill="white"/>
<path d="M64.4797 59.5284L98.3589 78.6574C96.6303 81.7304 94.4793 84.5536 91.9825 87.0312C89.9467 89.067 87.6996 90.8532 85.2796 92.3896L64.4604 59.5092L64.4797 59.5284Z" fill="white"/>
<path d="M64.4416 59.5859L83.5706 25.7067C86.6436 27.4352 89.4668 29.5863 91.9444 32.083C93.9802 34.1188 95.7664 36.3659 97.3028 38.7859L64.4224 59.6051L64.4416 59.5859Z" fill="white"/>
<path d="M64.4404 59.5859L45.3113 93.4651C42.2384 91.7365 39.4151 89.5855 36.9375 87.0887C34.9017 85.0529 33.1156 82.8058 31.5791 80.3858L64.4596 59.5667L64.4404 59.5859Z" fill="white"/>
<path d="M64.4973 101.82C53.4731 101.82 43.1019 97.5176 35.3043 89.72C27.5067 81.9224 23.2046 71.5512 23.2046 60.5271C23.2046 49.5029 27.5067 39.1317 35.3043 31.3341C43.1019 23.5365 53.4731 19.2344 64.4973 19.2344C75.5215 19.2344 85.8926 23.5365 93.6902 31.3341C101.488 39.1317 105.79 49.5029 105.79 60.5271C105.79 71.5512 101.488 81.9224 93.6902 89.72C85.8926 97.5176 75.5215 101.82 64.4973 101.82ZM64.4973 23.9974C44.3503 23.9974 27.9676 40.3801 27.9676 60.5271C27.9676 80.674 44.3503 97.0567 64.4973 97.0567C84.6442 97.0567 101.027 80.674 101.027 60.5271C101.027 40.3801 84.6442 23.9974 64.4973 23.9974Z" fill="#F2D633"/>
<path d="M64.4971 100.533C53.8186 100.533 43.7739 96.3652 36.2068 88.8173C28.6589 81.2694 24.4912 71.2247 24.4912 60.527C24.4912 49.8293 28.6589 39.8038 36.2068 32.2367C43.7547 24.6888 53.7994 20.5211 64.4971 20.5211C75.1948 20.5211 85.2202 24.6888 92.7874 32.2367C100.335 39.7846 104.503 49.8293 104.503 60.527C104.503 71.2247 100.335 81.2502 92.7874 88.8173C85.2395 96.3652 75.1948 100.533 64.4971 100.533ZM64.4971 22.7106C43.6395 22.7106 26.6807 39.6694 26.6807 60.527C26.6807 81.3846 43.6395 98.3434 64.4971 98.3434C85.3547 98.3434 102.313 81.3846 102.313 60.527C102.313 39.6694 85.3547 22.7106 64.4971 22.7106Z" fill="#F2D633"/>
<path d="M71.7583 60.047C71.7583 64.061 68.4933 67.326 64.4792 67.326C60.4652 67.326 57.2002 64.061 57.2002 60.047C57.2002 56.0329 60.4652 52.7679 64.4792 52.7679C68.4933 52.7679 71.7583 56.0329 71.7583 60.047Z" fill="#F2D633"/>
<path d="M64.5956 53.9587L65.7672 57.2622L68.9361 55.7449L67.4381 58.9139L70.7415 60.0854L67.4381 61.2762L68.9361 64.4452L65.7672 62.9279L64.5956 66.2313L63.424 62.9279L60.2551 64.4452L61.7531 61.2762L58.4497 60.0854L61.7531 58.9139L60.2551 55.7449L63.424 57.2622L64.5956 53.9587Z" fill="#DB4E37"/>
<g opacity="0.2">
<path d="M22.8032 118.74C23.3025 118.913 23.8403 118.856 24.3589 118.779C25.8569 118.548 27.3166 118.164 28.7186 117.646C31.1001 116.743 33.4432 115.264 34.3651 112.902C34.538 112.46 34.4996 111.749 34.0386 111.73C33.7505 111.73 33.5393 111.98 33.3664 112.21C32.2333 113.728 30.4471 114.611 28.6418 115.149C26.9132 115.667 24.9734 115.821 23.2833 116.436C22.2462 116.801 21.017 118.145 22.784 118.76L22.8032 118.74Z" fill="white"/>
</g>
<g opacity="0.2">
<path d="M95.0742 114.323C96.1305 115.398 97.5133 116.09 98.9538 116.531C100.394 116.973 101.892 117.184 103.371 117.377C104.082 117.473 104.946 117.492 105.311 116.896C105.388 116.762 105.445 116.608 105.407 116.455C105.33 116.051 104.792 115.975 104.389 115.975C102.046 115.917 99.7412 115.091 97.8782 113.67C97.2829 113.209 96.2073 112.268 95.4007 112.325C94.1715 112.383 94.4596 113.727 95.055 114.342L95.0742 114.323Z" fill="white"/>
</g>
<path d="M65.1709 49.3837L74.2156 58.4284L38.1886 94.4555C36.6144 96.0297 34.0736 96.0297 32.4994 94.4555L29.1576 91.1138C27.5834 89.5396 27.5834 86.9988 29.1576 85.4246L65.1847 49.3975L65.1709 49.3837Z" fill="#234562"/>
<path d="M70.9638 55.2922L65.1052 49.4336L29.1336 85.4052C27.5518 86.987 27.5518 89.5257 29.1336 91.1075L29.8757 91.8496C31.438 92.8846 33.5666 92.7089 34.9336 91.3223L70.9638 55.2922Z" fill="#315778"/>
<path d="M77.0596 31.7773L91.835 46.5527L51.8586 86.5291C48.6273 89.7604 43.38 89.7604 40.1487 86.5291L37.097 83.4774C33.8657 80.2461 33.8657 74.9988 37.097 71.7675L77.0734 31.7912L77.0596 31.7773Z" fill="#1A374C"/>
<path d="M46.2591 80.9527L86.234 40.9777L77.0361 31.7798L37.0612 71.7547C34.2686 74.5473 33.878 78.8631 35.9285 82.0658C39.1312 84.1163 43.447 83.7452 46.2396 80.9331L46.2591 80.9527Z" fill="#234562"/>
<path d="M89.6123 16.705L106.998 34.0902L84.6135 56.4742C82.6527 58.4351 79.4629 58.4489 77.4882 56.4742L67.2283 46.2143C65.2675 44.2535 65.2536 41.0636 67.2283 39.089L89.6123 16.705Z" fill="#234562"/>
<path d="M101.506 28.5771L89.6324 16.7037L67.2527 39.0835C65.2803 41.0558 65.2803 44.239 67.2527 46.1918L72.0177 50.9568C73.9901 52.9292 77.1732 52.9292 79.1261 50.9568L101.506 28.5771Z" fill="#315778"/>
<path d="M93.3623 51.4646C105.107 51.4646 114.629 41.9432 114.629 30.198C114.629 18.4528 105.107 8.9314 93.3623 8.9314C81.6171 8.9314 72.0957 18.4528 72.0957 30.198C72.0957 41.9432 81.6171 51.4646 93.3623 51.4646Z" fill="#1A374C"/>
<path d="M110.02 21.4882C110.02 19.6526 109.766 17.895 109.337 16.196C105.431 11.7435 99.7286 8.9314 93.3623 8.9314C81.6256 8.9314 72.0957 18.4418 72.0957 30.198C72.0957 41.9542 72.3496 33.7912 72.7792 35.4902C76.6849 39.9427 82.3872 42.7548 88.7536 42.7548C100.49 42.7548 110.02 33.2444 110.02 21.4882Z" fill="#234562"/>
<path fill-rule="evenodd" clip-rule="evenodd" d="M33.6132 89.2206C34.3847 90.453 34.0125 92.077 32.7825 92.8508C32.7825 92.8508 32.7825 92.8508 32.7825 92.8508C32.7817 92.8513 32.7804 92.8522 32.7783 92.8534C32.7717 92.8577 32.7582 92.8664 32.7384 92.8794C32.6987 92.9054 32.6339 92.9486 32.5476 93.0082C32.3746 93.1275 32.1176 93.3114 31.806 93.5536C31.1779 94.0417 30.3539 94.7468 29.5556 95.6179C27.8862 97.4394 26.7092 99.5598 26.8966 101.718C27.0599 103.598 28.2198 104.747 30.7803 106.303C31.1447 106.525 31.5599 106.767 32.0011 107.024C32.9392 107.572 33.9948 108.187 34.9286 108.818C36.3805 109.798 37.8869 111.026 39.075 112.704C41.5026 116.12 41.4859 119.635 40.8992 122.171C40.6088 123.427 40.1763 124.468 39.8172 125.198C39.6363 125.565 39.4702 125.861 39.3434 126.074C39.2798 126.181 39.2257 126.267 39.1841 126.332C39.1633 126.364 39.1455 126.392 39.1312 126.413C39.1241 126.424 39.1178 126.433 39.1124 126.441L39.1049 126.452L39.1018 126.457L39.1003 126.459C39.0996 126.46 39.0989 126.461 36.9735 125.004L39.0989 126.461C38.2755 127.662 36.6345 127.968 35.4337 127.144C34.2377 126.324 33.9294 124.693 34.7405 123.494C34.7415 123.492 34.7431 123.49 34.7452 123.486L34.7475 123.483C34.759 123.465 34.7818 123.429 34.8135 123.376C34.8771 123.269 34.9746 123.096 35.0866 122.869C35.3134 122.408 35.5839 121.753 35.7622 120.983C36.1127 119.468 36.0962 117.614 34.7761 115.757L34.7742 115.755L34.7724 115.752C34.0957 114.795 33.1595 113.985 31.9782 113.188C31.1776 112.647 30.4062 112.199 29.5689 111.712C29.0877 111.432 28.5847 111.139 28.0417 110.809C25.3491 109.173 22.0467 106.816 21.6437 102.174C21.2647 97.8095 23.6419 94.2666 25.6684 92.0555C26.7179 90.9103 27.7772 90.0067 28.5704 89.3903C28.9695 89.0801 29.3076 88.8377 29.5522 88.6689C29.6746 88.5844 29.7741 88.518 29.8466 88.4704C29.8828 88.4467 29.9124 88.4276 29.9347 88.4133C29.9459 88.4061 29.9553 88.4001 29.9628 88.3954L29.9727 88.3891L29.9782 88.3856C29.979 88.3852 29.9797 88.3847 31.3464 90.568L29.9797 88.3847C31.2139 87.6122 32.8407 87.9864 33.6132 89.2206Z" fill="#315778"/>
</g>
<defs>
<clipPath id="clip0_4868_30812">
<rect width="128" height="128" fill="white" transform="translate(0.5 0.5)"/>
</clipPath>
</defs>
</svg>
