<svg width="129" height="129" viewBox="0 0 129 129" fill="none" xmlns="http://www.w3.org/2000/svg">
<path d="M119.416 31.217C117.432 54.2275 108.623 71.5295 108.623 71.5295L64.6698 80.0923L22.0929 71.7938L20.7161 71.5295C20.7161 71.5295 11.9076 54.2275 9.92383 31.217C9.92383 31.217 10.7973 30.4946 12.8402 29.4374C18.5843 26.4422 33.6402 20.7512 64.6698 20.7512C95.6994 20.7512 119.416 31.217 119.416 31.217Z" fill="#5A3140"/>
<path d="M27.1707 71.6352L22.0929 71.7938L20.7161 71.5295C20.7161 71.5295 11.9076 54.2275 9.92383 31.217C9.92383 31.217 14.9424 30.4946 16.9854 29.4374C18.0217 57.5223 27.1559 71.6352 27.1559 71.6352H27.1707Z" fill="#F65B7D"/>
<path d="M103.323 71.6352L107.261 71.7938L108.638 71.5295C108.638 71.5295 117.446 54.2275 119.43 31.217C119.43 31.217 115.552 30.4946 113.509 29.4374C112.339 56.6413 103.338 71.6352 103.338 71.6352H103.323Z" fill="#F65B7D"/>
<path d="M117.713 19.3093C99.548 10.7969 63.9439 11.3594 63.9439 11.3594C58.8512 11.3298 28.2509 11.5223 11.6406 19.3093C11.6406 19.3093 6.81445 25.5566 6.81445 32.9291C6.81445 32.9291 26.8889 23.5581 64.6841 23.5581C102.479 23.5581 122.554 32.9291 122.554 32.9291C122.554 25.5566 117.728 19.3093 117.728 19.3093H117.713Z" fill="#FE7D9A"/>
<path d="M21.6776 104.055L13.8018 118.429C13.8018 118.429 16.4665 120.191 19.3829 119.066L27.6289 110.183L21.6628 104.069L21.6776 104.055Z" fill="#F65B7D"/>
<path d="M107.261 104.055L115.137 118.429C115.137 118.429 112.472 120.191 109.556 119.066L101.31 110.183L107.276 104.069L107.261 104.055Z" fill="#F65B7D"/>
<path d="M64.3585 68.5114H12.8398C12.8398 68.5114 13.5504 97.881 24.0466 110.971C24.0466 110.971 45.0538 113.99 64.3437 113.99C83.6336 113.99 104.641 110.971 104.641 110.971C115.137 97.881 115.848 68.5114 115.848 68.5114H64.3289H64.3585Z" fill="#FE7D9A"/>
<path d="M103.959 104.505C103.959 104.505 89.9101 107.525 64.3728 107.394C38.8356 107.262 23.6464 104.873 24.0758 104.505C24.5051 104.138 25.0828 111.115 25.0828 111.115C25.0828 111.115 58.9844 119.189 102.968 111.115L103.959 104.505Z" fill="#F65B7D"/>
<path d="M95.8708 42.1871V36.2847H94.73C90.886 24.4302 78.2875 15.7253 63.3578 15.7253C48.4281 15.7253 35.8296 24.4302 31.9856 36.2847H30.7456L30.7952 42.6087C30.7952 43.0551 30.7704 43.4767 30.7704 43.9231C30.7704 59.4977 45.3529 72.0961 63.3578 72.0961C81.3627 72.0961 95.9452 59.4729 95.9452 43.9231C95.9452 28.3734 95.9452 42.7575 95.8708 42.1871Z" fill="#F39D26"/>
<path d="M71.1959 69.614C71.6175 70.1348 72.1383 70.5564 72.7087 70.9284C86.1504 67.4564 95.9465 56.6683 95.9465 43.9211C95.9465 31.1738 95.9465 42.7555 95.8721 42.185V36.2826C95.8721 36.2826 91.0609 36.233 83.968 42.1354C72.3368 51.7827 66.6327 64.0836 71.1959 69.5892V69.614Z" fill="#F4B503"/>
<path d="M63.333 63.6384C81.3305 63.6384 95.9203 51.0249 95.9203 35.4654C95.9203 19.9058 81.3305 7.29236 63.333 7.29236C45.3355 7.29236 30.7456 19.9058 30.7456 35.4654C30.7456 51.0249 45.3355 63.6384 63.333 63.6384Z" fill="#FDD02D"/>
<path opacity="0.5" d="M94.9798 28.7119C92.8966 21.371 87.4654 15.1462 80.1742 11.3517C78.9589 13.2118 78.2397 15.4438 78.2397 17.8494C78.2397 24.4214 83.5718 29.7535 90.1438 29.7535C96.7158 29.7535 93.4918 29.3815 94.9798 28.7367V28.7119Z" fill="#FCDA0D"/>
<path d="M63.3344 59.1781C47.8343 59.1781 35.2358 48.5389 35.2358 35.4692C35.2358 22.3995 47.8343 11.7602 63.3344 11.7602C78.8345 11.7602 91.4329 22.3995 91.4329 35.4692C91.4329 48.5389 78.8345 59.1781 63.3344 59.1781Z" fill="#FFB30E"/>
<path d="M63.333 28.0001C51.2058 28.0001 40.8641 34.4977 36.9209 43.5994C40.8641 52.6762 51.2058 59.1987 63.333 59.1987C75.4603 59.1987 85.802 52.701 89.7452 43.5994C85.802 34.5225 75.4603 28.0001 63.333 28.0001Z" fill="#FF9C29"/>
<path d="M63.3321 14.2874C78.3361 14.2874 90.637 24.2571 91.4058 36.7316C91.4306 36.31 91.4554 35.8884 91.4554 35.4916C91.4554 22.4219 78.8569 11.7826 63.3569 11.7826C47.8568 11.7826 35.2583 22.4219 35.2583 35.4916C35.2583 48.5612 35.2583 36.3348 35.3079 36.7316C36.0767 24.2323 48.3776 14.2874 63.3817 14.2874H63.3321Z" fill="#FF9C29"/>
<path opacity="0.5" d="M74.8067 12.3781C75.0595 11.6395 74.4347 10.7565 73.411 10.4061C72.3873 10.0556 71.3524 10.3702 71.0995 11.1088C70.8466 11.8475 71.4715 12.7304 72.4952 13.0809C73.5189 13.4313 74.5538 13.1167 74.8067 12.3781Z" fill="#FCDA0D"/>
<path opacity="0.5" d="M70.132 10.7849C70.2511 10.2923 69.7973 9.75983 69.1184 9.59557C68.4394 9.43132 67.7924 9.69747 67.6733 10.19C67.5541 10.6826 68.0079 11.2151 68.6869 11.3793C69.3658 11.5436 70.0128 11.2774 70.132 10.7849Z" fill="#FCDA0D"/>
<path d="M65.4443 20.5248L69.3377 27.9493C69.6773 28.5831 70.2885 28.9906 71.0128 29.0585L79.3203 29.7376C81.1312 29.896 81.9009 32.137 80.52 33.3593L74.6346 38.6109C74.0687 39.1088 73.8197 39.8558 73.9782 40.6028L75.4495 47.4162C75.8117 49.0686 74.1593 50.4268 72.5974 49.7477L64.4257 46.2391C63.9051 46.0128 63.3165 46.0128 62.7959 46.2391L54.6242 49.7477C53.0849 50.4042 51.4325 49.046 51.772 47.4162L53.2434 40.6028C53.4019 39.8785 53.1529 39.1088 52.5869 38.6109L46.7015 33.3593C45.3434 32.137 46.0904 29.896 47.9013 29.7376L56.2087 29.0585C56.9105 28.9906 57.5443 28.5831 57.8838 27.9493L61.7773 20.5248C62.5469 19.0534 64.6747 19.0534 65.4443 20.5248Z" fill="#E58138"/>
<path d="M63.6109 33.745V19.1901C62.9544 19.1901 62.3206 19.5297 61.9584 20.1861L57.7934 28.1087C57.5217 28.6293 57.0011 28.9688 56.4352 29.0141H56.3447H56.0051C56.0051 29.0367 56.0051 29.0367 56.0051 29.0367L47.3354 29.7611" fill="#DD6B18"/>
<path d="M65.4443 18.2478L69.3377 25.6724C69.6773 26.3062 70.2885 26.7137 71.0128 26.7816L79.3203 27.4607C81.1312 27.6191 81.9009 29.8601 80.52 31.0824L74.6346 36.3339C74.0687 36.8319 73.8197 37.5789 73.9782 38.3259L75.4495 45.1393C75.8117 46.7917 74.1593 48.1499 72.5974 47.4708L64.4257 43.9622C63.9051 43.7359 63.3165 43.7359 62.7959 43.9622L54.6242 47.4708C53.0849 48.1272 51.4325 46.7691 51.772 45.1393L53.2434 38.3259C53.4019 37.6015 53.1529 36.8319 52.5869 36.3339L46.7015 31.0824C45.3434 29.8601 46.0904 27.6191 47.9013 27.4607L56.2087 26.7816C56.9105 26.7137 57.5443 26.3062 57.8838 25.6724L61.7773 18.2478C62.5469 16.7765 64.6747 16.7765 65.4443 18.2478Z" fill="#F7E009"/>
<path d="M115.876 68.5114H12.8539C11.788 98.4324 23.2909 111.036 23.2909 111.036C25.704 113.176 29.0497 111.614 29.0497 111.614C18.8792 95.0714 19.3826 75.0497 19.3826 75.0497H109.348C109.348 75.0497 109.851 95.0714 99.6806 111.614C99.6806 111.614 103.026 113.176 105.439 111.036C105.439 111.036 116.942 98.4324 115.876 68.5114Z" fill="#F65B7D"/>
<path d="M68.5052 65.9443L67.7772 62.8896L63.3456 62.0033L58.914 62.8896L58.1859 65.9443L51.4277 67.4162C51.4277 67.4162 54.4032 79.4765 55.7802 81.3282C57.1413 83.18 63.3456 85.9973 63.3456 85.9973C63.3456 85.9973 69.5498 83.18 70.911 81.3282C72.2721 79.4765 75.2634 67.4162 75.2634 67.4162L68.5052 65.9443Z" fill="#F7E009"/>
<path d="M65.0713 71.2305C65.0713 70.0751 64.1375 69.1255 62.9663 69.1255C61.7951 69.1255 60.8613 70.0593 60.8613 71.2305C60.8613 72.4017 61.2412 72.6075 61.811 72.9873L60.8613 78.8434H65.0713L64.1217 72.9873C64.6915 72.6075 65.0713 71.9744 65.0713 71.2305Z" fill="#0F3049"/>
<path d="M71.195 81.5656C70.2454 82.9267 64.0728 86.3137 63.3447 86.377C62.6167 86.2979 56.4441 82.9267 55.4945 81.5656C54.5449 80.2045 51.71 70.4839 51.71 70.4839C51.71 70.4839 53.5794 81.1541 54.8931 82.9267C56.4599 85.0159 63.3447 89.0677 63.3447 89.0677C63.3447 89.0677 70.2454 85.0159 71.7964 82.9267C73.1101 81.1541 74.8679 70.4839 74.8679 70.4839C74.8679 70.4839 72.1446 80.1886 71.195 81.5656Z" fill="#673D57"/>
<g style="mix-blend-mode:soft-light" opacity="0.5">
<path d="M21.3701 83.1118C21.3701 83.1118 25.1428 98.5474 27.6595 102.88C27.6595 102.88 43.5296 105.243 64.1519 105.243C84.7741 105.243 100.644 102.88 100.644 102.88C103.146 98.5605 107.374 83.1118 107.374 83.1118C97.2184 100.245 31.3185 100.219 21.3701 83.1118Z" fill="black"/>
</g>
<path fill-rule="evenodd" clip-rule="evenodd" d="M43.8575 85.0552L46.2813 90C46.3783 90.0969 46.4753 90.1939 46.5722 90.1939L52.0017 90.9695C52.0092 90.9695 52.0166 90.9698 52.0239 90.9703C52.0938 90.9732 52.136 90.9903 52.1676 91.0158C52.3524 91.1271 52.4258 91.418 52.1956 91.6482L48.2204 95.5264C48.1235 95.6234 48.1235 95.7203 48.1235 95.9142L49.093 101.344C49.1624 101.552 48.9835 101.76 48.7695 101.791C48.69 101.806 48.5843 101.803 48.513 101.733L48.5113 101.732L43.6639 99.2109H43.4704H43.3608L43.2742 99.2118L38.4282 101.732L38.4249 101.734C38.3754 101.766 38.3259 101.784 38.2779 101.791C38.2006 101.806 38.143 101.791 38.0897 101.777L38.0745 101.773L38.0759 101.771C37.9012 101.706 37.7741 101.526 37.8343 101.345L38.8039 95.9153C38.8039 95.7214 38.8039 95.6244 38.7069 95.5275L34.7318 91.6493C34.4801 91.3976 34.5913 91.0734 34.8143 90.9905C34.8431 90.9781 34.88 90.9706 34.9305 90.9699L40.3552 90.1949L40.3603 90.1948L40.3671 90.1939L40.3743 90.1937C40.4641 90.1823 40.5538 90.0932 40.6436 90.0035L42.9636 85.2706C42.9798 85.2321 42.9988 85.1946 43.0197 85.1588L43.0699 85.0563C43.0699 84.9899 43.1608 84.9236 43.2492 84.8883C43.2922 84.8561 43.3314 84.8377 43.3608 84.8377V84.8509C43.539 84.8052 43.7362 84.8733 43.8575 85.0552Z" fill="#FDD02D"/>
<path fill-rule="evenodd" clip-rule="evenodd" d="M84.1372 85.0552L86.5611 90C86.6581 90.0969 86.755 90.1939 86.852 90.1939L92.2815 90.9695C92.289 90.9695 92.2964 90.9698 92.3037 90.9703C92.3736 90.9732 92.4158 90.9903 92.4474 91.0158C92.6322 91.1271 92.7056 91.418 92.4754 91.6482L88.5002 95.5264C88.4033 95.6234 88.4033 95.7203 88.4033 95.9142L89.3728 101.344C89.4422 101.552 89.2633 101.76 89.0493 101.791C88.9698 101.806 88.8641 101.803 88.7928 101.733L88.7911 101.732L83.9436 99.2109H83.7501H83.6406L83.554 99.2118L78.708 101.732L78.7047 101.734C78.6552 101.766 78.6057 101.784 78.5577 101.791C78.4804 101.806 78.4228 101.791 78.3694 101.777L78.3543 101.773L78.3556 101.771C78.181 101.706 78.0538 101.526 78.1141 101.345L79.0837 95.9153C79.0837 95.7214 79.0837 95.6244 78.9867 95.5275L75.0116 91.6493C74.7599 91.3976 74.8711 91.0734 75.0941 90.9905C75.1229 90.9781 75.1598 90.9706 75.2102 90.9699L80.635 90.1949L80.6401 90.1948L80.6469 90.1939L80.6541 90.1937C80.7439 90.1823 80.8336 90.0932 80.9234 90.0035L83.2434 85.2706C83.2596 85.2321 83.2786 85.1946 83.2995 85.1588L83.3497 85.0563C83.3497 84.9899 83.4406 84.9236 83.529 84.8883C83.572 84.8561 83.6111 84.8377 83.6406 84.8377V84.8509C83.8187 84.8052 84.0159 84.8733 84.1372 85.0552Z" fill="#FDD02D"/>
<path fill-rule="evenodd" clip-rule="evenodd" d="M63.8755 90.7447L65.4757 94.0092C65.5397 94.0732 65.6037 94.1372 65.6677 94.1372L69.2522 94.6492C69.2571 94.6492 69.262 94.6494 69.2669 94.6497C69.313 94.6517 69.3409 94.6629 69.3617 94.6798C69.4837 94.7533 69.5322 94.9453 69.3802 95.0973L66.7559 97.6576C66.6919 97.7216 66.6919 97.7857 66.6919 97.9137L67.3319 101.498C67.3778 101.636 67.2596 101.773 67.1183 101.793C67.0659 101.803 66.9961 101.801 66.949 101.755L66.9479 101.754L63.7477 100.09H63.6199V100.042L63.6196 100.042V100.09H63.5476V100.091H63.4905L60.2912 101.754L60.289 101.756C60.2563 101.777 60.2237 101.789 60.192 101.794C60.1409 101.804 60.1029 101.793 60.0677 101.784L60.0577 101.781L60.0586 101.78C59.9432 101.738 59.8593 101.618 59.8991 101.499L60.5392 97.9144C60.5392 97.7863 60.5392 97.7223 60.4752 97.6583L57.8508 95.098C57.6847 94.9319 57.7581 94.7178 57.9053 94.6631C57.9244 94.6549 57.9487 94.6499 57.982 94.6495L61.5633 94.1379L61.5667 94.1378L61.5712 94.1372L61.576 94.1371C61.6352 94.1295 61.6945 94.0707 61.7537 94.0115L63.2854 90.8869C63.2961 90.8615 63.3086 90.8367 63.3224 90.8131L63.3556 90.7454C63.3556 90.7016 63.4156 90.6578 63.4739 90.6345C63.5023 90.6133 63.5282 90.6011 63.5476 90.6011V90.6098C63.6652 90.5796 63.7954 90.6246 63.8755 90.7447Z" fill="#FDD02D"/>
</svg>
