<svg width="129" height="129" viewBox="0 0 129 129" fill="none" xmlns="http://www.w3.org/2000/svg">
<path d="M97.0052 86.1844L96.8878 80.4896L91.3823 80.2267L93.1635 85.7584L97.0052 86.1844Z" fill="#FAC300"/>
<path d="M32.0926 86.4087V80.4896L37.5981 80.2267L35.817 85.7584L32.0926 86.4087Z" fill="#FAC300"/>
<path d="M108.007 36.5997C108.797 36.4669 109.467 37.1709 109.266 37.9413C108.101 42.6966 93.8716 46.431 90.2285 57.0839C81.8975 54.6826 90.1214 57.3894 90.0678 57.5621C90.0276 57.6684 89.9875 57.7879 89.9473 57.9074C86.6926 61.0839 92.0015 68.107 92.0015 68.107C92.0015 68.107 69.4868 86.2233 67.1429 100.821C66.5536 104.394 67.3036 107.144 68.7769 109.256C72.862 115.207 82.5188 116.256 84.059 117.319C84.1126 117.358 84.1528 117.385 84.2063 117.425C86.2154 119.006 88.0905 123.747 88.0905 123.747C88.0905 123.747 77.5497 125.355 64.2231 125.355C50.9099 125.355 40.503 123.747 40.503 123.747C40.503 123.747 42.4853 118.753 44.5479 117.305C46.1016 116.229 56.3075 115.153 60.4059 108.964C61.7989 106.878 62.4819 104.222 61.9328 100.795C59.5889 86.2233 44.3685 61.9968 44.3685 61.9968C44.3685 61.9968 35.9067 51.8544 34.2511 46.4595C33.1261 40.8275 27.2971 40.9299 26.9087 38.5656C26.7881 37.8217 27.431 37.1842 28.181 37.3037L66.7814 43.4138C66.9019 43.4271 67.0225 43.4271 67.143 43.4138L108.007 36.5997Z" fill="#FAC300"/>
<path d="M93.7106 54.685C92.2105 59.0152 89.8155 70.848 89.8155 70.848C89.8155 70.848 69.6045 86.1681 67.2607 100.766C66.7383 103.98 67.0574 106.504 68.236 108.523C68.4905 108.948 68.3699 109.506 68.0083 109.851C64.3787 113.305 62.3562 112.362 60.6418 109.533C60.4275 109.174 60.4275 108.736 60.6418 108.377C61.7937 106.385 62.3294 103.901 61.8339 100.766C59.4766 86.1548 42.7036 63.4588 42.7036 63.4588C42.7036 63.4588 28.7249 53.0272 26.7293 42.9721L26.6355 42.3345C26.6355 42.3345 38.0883 64.1136 61.2726 70.848C84.189 77.4895 90.0676 64.5409 93.7106 54.685Z" fill="#FE9C29"/>
<path d="M88.1001 123.747C88.1001 123.747 77.5594 125.355 64.2327 125.355C50.9195 125.355 40.5127 123.747 40.5127 123.747C40.5127 123.747 41.8253 120.44 43.4191 118.421C43.7941 117.956 44.4772 117.863 44.9594 118.222C48.8033 121.104 77.0906 118.421 83.707 117.478C84.0687 117.425 84.4035 117.558 84.658 117.81C86.4929 119.683 88.1001 123.747 88.1001 123.747Z" fill="#ECB03F"/>
<g opacity="0.5">
<path opacity="0.5" d="M100.35 51.5284C100.283 51.9004 100.149 52.2989 99.9614 52.6841C98.381 56.0845 92.8896 59.8701 89.8492 58.2894C88.8045 57.7581 88.2554 56.9346 88.0411 55.9384C88.0411 55.9384 88.0411 55.9384 88.0411 55.9251C87.2911 52.445 90.693 46.7732 92.7958 43.4391C95.5147 39.1355 101.006 47.9022 100.35 51.5284Z" fill="#CFB63C"/>
<path opacity="0.5" d="M100.35 51.5284C100.283 51.9004 100.149 52.2988 99.9614 52.684L99.7337 52.7372C99.7337 52.7372 99.948 51.7011 98.9703 48.7789C97.9925 45.8566 95.4611 42.4695 92.6485 44.9667C89.876 47.4373 88.1081 55.6727 88.0411 55.9251C87.2911 52.445 90.693 46.7732 92.7958 43.4391C95.5147 39.1355 101.006 47.9022 100.35 51.5284Z" fill="#979445"/>
</g>
<path d="M85.5945 59.6917C85.9561 69.8132 78.0672 78.3408 67.9685 78.3408C57.8697 78.3408 49.9809 69.8265 50.3425 59.6917C50.6908 49.9553 58.5796 42.3442 67.9685 42.3442C77.3708 42.3442 85.2596 49.9553 85.5945 59.6917Z" fill="#BBA63E"/>
<path d="M61.6108 53.4286C61.6108 53.4286 63.727 53.5614 65.3878 48.8858C65.3878 48.8858 68.5621 47.2122 71.79 47.9029L72.3927 72.3567H64.8655L64.3297 58.2104L61.6108 57.9049V53.4286Z" fill="#FFE464"/>
<path d="M61.6108 53.4319L61.8385 52.5287C61.8385 52.5287 64.1288 51.5591 64.8521 48.8361C64.9458 48.4774 65.1869 48.1719 65.5486 48.0391C66.7942 47.5875 69.8077 46.6975 71.8034 47.9063C71.8034 47.9063 68.8434 47.3484 66.0709 48.6767C65.8164 48.7962 65.6289 49.022 65.5218 49.2877C65.12 50.3636 63.861 53.2061 61.6108 53.4319Z" fill="#FFF5D2"/>
<path d="M50.3345 59.6938C50.3345 59.6938 54.2857 44.4981 68.5364 44.4981C82.0238 44.4981 85.2784 56.2668 85.2784 56.2668C85.2784 56.2668 82.8944 41.9478 67.5319 42.3463C52.1561 42.7448 50.3212 58.0467 50.3345 59.6938Z" fill="#A07D23"/>
<path d="M52.9141 69.7472C52.9141 69.7472 58.084 78.8327 69.1069 78.3545C80.1298 77.8764 84.3756 67.0242 84.3756 67.0242C84.3756 67.0242 79.2191 80.0415 68.5444 80.0813C57.8697 80.0946 52.9141 69.7472 52.9141 69.7472Z" fill="#FFF5D2"/>
<path fill-rule="evenodd" clip-rule="evenodd" d="M64.7335 68.8257L64.502 62.711L71.9726 55.2404L72.1252 61.434L64.7335 68.8257ZM68.3402 72.3566H64.8672L64.8194 71.0943L72.1819 63.7319L72.2969 68.3998L68.3402 72.3566Z" fill="white"/>
<path d="M85.0073 65.5933L83.0641 60.6964L78.4004 58.8309L83.3751 56.8099L85.5515 51.7576L86.8729 56.8099L92.1585 58.8309L87.2615 60.4632L85.0073 65.5933Z" fill="white"/>
<path d="M48.2523 50.6446L46.5682 46.4007L42.5264 44.784L46.8377 43.0326L48.7239 38.6539L49.869 43.0326L54.4498 44.784L50.2058 46.1986L48.2523 50.6446Z" fill="white"/>
<path d="M69.4865 5.8256L80.1011 26.0675C81.0268 27.7955 82.6931 28.9063 84.6679 29.0915L107.317 30.9429C112.254 31.3749 114.352 37.4845 110.587 40.817L94.542 55.1344C92.9992 56.4921 92.3203 58.5287 92.7523 60.5652L96.7637 79.1409C97.7511 83.6459 93.246 87.3487 88.9878 85.4973L66.7094 75.9318C65.29 75.3146 63.6854 75.3146 62.266 75.9318L39.9875 85.4973C35.791 87.287 31.286 83.5842 32.2117 79.1409L36.223 60.5652C36.655 58.5904 35.9762 56.4921 34.4333 55.1344L18.3879 40.817C14.6851 37.4845 16.7217 31.3749 21.6587 30.9429L44.3074 29.0915C46.2206 28.9063 47.9485 27.7955 48.8742 26.0675L59.4889 5.8256C61.5872 1.81424 67.3882 1.81424 69.4865 5.8256Z" fill="#F9EA4A"/>
<path d="M64.4894 53.8454V14.1638C62.6998 14.1638 60.9718 15.0895 59.9844 16.8792L48.6291 38.4788C47.8886 39.8982 46.4692 40.8239 44.9263 40.9473H44.6795H43.7538C43.7538 41.0091 43.7538 41.0091 43.7538 41.0091L20.1177 42.9839" fill="#FAC300"/>
<path d="M16.5693 42.8624C16.5693 42.8624 16.4848 36.4593 16.5693 36.1483C16.6537 35.8374 23.1783 33.4732 23.1783 33.4732V42.8624H16.5693Z" fill="#F9EA4A"/>
<path d="M112.478 41.9258C112.478 41.9258 112.563 36.9839 112.478 36.673C112.394 36.3621 105.869 33.9979 105.869 33.9979V41.9258H112.478Z" fill="#F9EA4A"/>
<path d="M69.4865 11.6191L80.1011 31.861C81.0268 33.5889 82.6931 34.6998 84.6679 34.8849L107.317 36.7363C112.254 37.1683 114.352 43.2779 110.587 46.6104L94.542 60.9279C92.9992 62.2856 92.3203 64.3221 92.7523 66.3587L96.7637 84.9343C97.7511 89.4394 93.246 93.1422 88.9878 91.2908L66.7094 81.7252C65.29 81.1081 63.6854 81.1081 62.266 81.7252L39.9875 91.2908C35.791 93.0805 31.286 89.3777 32.2117 84.9343L36.223 66.3587C36.655 64.3838 35.9762 62.2856 34.4333 60.9279L18.3879 46.6104C14.6851 43.2779 16.7217 37.1683 21.6587 36.7363L44.3075 34.8849C46.2206 34.6998 48.0396 33.6154 48.9653 31.8874L59.4889 11.6191C61.5872 7.6077 67.3882 7.6077 69.4865 11.6191Z" fill="#FE9C29"/>
<path d="M64.49 8.59035C62.5151 8.59035 60.602 9.63947 59.5529 11.6143L52.7645 24.5124L48.9279 31.6822L48.6811 32.1759C47.9405 33.5953 46.3102 34.4326 45.1786 34.6039L44.8337 34.6614L44.46 34.7045L43.816 34.7567L21.4759 36.6081C19.3776 36.9167 17.8348 38.2744 17.0942 39.9407L64.6134 47.4697V8.40521L64.49 8.59035Z" fill="#FFB902"/>
<path d="M94.9767 90.4226L64.503 47.4545L34.1333 90.4224C35.6144 91.6566 37.7744 92.1503 39.8109 91.348L59.9911 82.7082C59.9911 82.7082 59.9911 82.7082 60.0528 82.7082L60.9785 82.2762L62.6448 81.5357C63.8174 81.042 65.1133 81.042 66.2859 81.5357L68.8779 82.6465C68.8779 82.6465 68.8778 82.6465 68.9396 82.6465L89.1198 91.2863C91.1563 92.0886 93.4274 91.7138 94.9085 90.4795L94.9767 90.4226Z" fill="#FAD200"/>
<path d="M112.122 40.1327L64.4738 47.4644L94.9656 90.429C96.5084 89.1947 97.3725 87.0964 96.8787 84.8748L92.8674 66.2991L92.744 65.7437C92.3737 64.1391 92.9291 62.4112 94.1634 61.3003L94.5954 60.93L105.087 51.5496L110.641 46.5509C112.616 44.7612 112.924 42.1692 112.06 40.071L112.122 40.1327Z" fill="#FFB902"/>
<path d="M114.855 59.1906L118.232 66.332L125.374 69.7086L118.232 73.0852L114.855 80.2267L111.479 73.0852L104.337 69.7086L111.479 66.332L114.855 59.1906Z" fill="#F6BA4A"/>
<path d="M15.5005 12.5811L17.9654 17.7944L23.1786 20.2593L17.9654 22.7242L15.5005 27.9375L13.0356 22.7242L7.82227 20.2593L13.0356 17.7944L15.5005 12.5811Z" fill="#F6BA4A"/>
</svg>
