<svg width="129" height="129" viewBox="0 0 129 129" fill="none" xmlns="http://www.w3.org/2000/svg">
<g clip-path="url(#clip0_4868_30820)">
<path d="M119.416 31.217C117.432 54.2275 108.623 71.5295 108.623 71.5295L64.6698 80.0923L22.0929 71.7938L20.7161 71.5295C20.7161 71.5295 11.9076 54.2275 9.92383 31.217C9.92383 31.217 10.7973 30.4946 12.8402 29.4374C18.5843 26.4422 33.6402 20.7512 64.6698 20.7512C95.6994 20.7512 119.416 31.217 119.416 31.217Z" fill="#393160"/>
<path d="M27.1707 71.6351L22.0929 71.7937L20.7161 71.5294C20.7161 71.5294 11.9076 54.2275 9.92383 31.2169C9.92383 31.2169 14.9424 30.4945 16.9854 29.4374C18.0217 57.5222 27.1559 71.6351 27.1559 71.6351H27.1707Z" fill="#7358C9"/>
<path d="M103.323 71.6351L107.261 71.7937L108.638 71.5294C108.638 71.5294 117.446 54.2275 119.43 31.2169C119.43 31.2169 115.552 30.4945 113.509 29.4374C112.339 56.6413 103.338 71.6351 103.338 71.6351H103.323Z" fill="#7358C9"/>
<path d="M117.713 19.6229C99.548 11.1105 63.9439 11.6731 63.9439 11.6731C58.8512 11.6435 28.2509 11.8359 11.6406 19.6229C11.6406 19.6229 6.81445 25.8703 6.81445 33.2428C6.81445 33.2428 26.8889 23.8717 64.6841 23.8717C102.479 23.8717 122.554 33.2428 122.554 33.2428C122.554 25.8703 117.728 19.6229 117.728 19.6229H117.713Z" fill="#9481FF"/>
<path d="M21.6776 104.054L13.8018 118.429C13.8018 118.429 16.4665 120.191 19.3829 119.066L27.6289 110.183L21.6628 104.069L21.6776 104.054Z" fill="#7358C9"/>
<path d="M107.261 104.054L115.137 118.429C115.137 118.429 112.472 120.191 109.556 119.066L101.31 110.183L107.276 104.069L107.261 104.054Z" fill="#7358C9"/>
<path d="M64.3585 68.5114H12.8398C12.8398 68.5114 13.5504 97.8809 24.0466 110.971C24.0466 110.971 45.0538 113.99 64.3437 113.99C83.6336 113.99 104.641 110.971 104.641 110.971C115.137 97.8809 115.848 68.5114 115.848 68.5114H64.3289H64.3585Z" fill="#9481FF"/>
<path d="M103.959 104.505C103.959 104.505 89.9101 107.525 64.3728 107.394C38.8356 107.262 23.6464 104.873 24.0758 104.505C24.5051 104.138 25.0828 111.115 25.0828 111.115C25.0828 111.115 58.9844 119.189 102.968 111.115L103.959 104.505Z" fill="#7358C9"/>
<path d="M115.876 68.5114H12.8539C11.788 98.4323 23.2909 111.036 23.2909 111.036C25.704 113.176 29.0497 111.614 29.0497 111.614C18.8792 95.0713 19.3826 75.0496 19.3826 75.0496H109.348C109.348 75.0496 109.851 95.0713 99.6806 111.614C99.6806 111.614 103.026 113.176 105.439 111.036C105.439 111.036 116.942 98.4323 115.876 68.5114Z" fill="#7358C9"/>
<path d="M70.4538 62.3225L69.4508 58.1144L63.3458 56.8934L57.2408 58.1144L56.2379 62.3225L46.9277 64.3502C46.9277 64.3502 51.0268 80.9645 52.9237 83.5155C54.7988 86.0666 63.3458 89.9476 63.3458 89.9476C63.3458 89.9476 71.8928 86.0666 73.7679 83.5155C75.643 80.9645 79.7639 64.3502 79.7639 64.3502L70.4538 62.3225Z" fill="#32D698"/>
<path d="M65.7226 69.6048C65.7226 68.0132 64.4362 66.705 62.8227 66.705C61.2093 66.705 59.9229 67.9914 59.9229 69.6048C59.9229 71.2183 60.4461 71.5017 61.2311 72.025L59.9229 80.0924H65.7226L64.4144 72.025C65.1993 71.5017 65.7226 70.6296 65.7226 69.6048Z" fill="#3C135F"/>
<path d="M74.1596 83.8425C72.8514 85.7176 64.348 90.3836 63.345 90.4708C62.3421 90.3618 53.8387 85.7176 52.5305 83.8425C51.2223 81.9674 46.4473 64.6554 46.4473 64.6554C46.4473 64.6554 49.8922 83.2756 51.7019 85.7176C53.8605 88.5957 63.345 94.1774 63.345 94.1774C63.345 94.1774 72.8514 88.5957 74.9881 85.7176C76.7978 83.2756 80.0684 64.6554 80.0684 64.6554C80.0684 64.6554 75.4678 81.9456 74.1596 83.8425Z" fill="#7358C9"/>
<g style="mix-blend-mode:soft-light" opacity="0.5">
<path d="M21.3701 83.1117C21.3701 83.1117 25.1428 98.5473 27.6595 102.88C27.6595 102.88 43.5296 105.243 64.1519 105.243C84.7741 105.243 100.644 102.88 100.644 102.88C103.146 98.5604 107.374 83.1117 107.374 83.1117C97.2184 100.245 31.3185 100.219 21.3701 83.1117Z" fill="black"/>
</g>
<path d="M52.263 49.5269L50.6446 48.3084L44.9612 50.5032C43.112 50.8812 41.2274 51.6352 39.5615 52.8186C37.8668 54.0225 36.5631 55.5335 35.5975 57.1552L31.4916 62.5907L32.0222 63.438C32.1326 63.5934 32.2431 63.7489 32.4087 63.9821C35.943 68.9572 43.2954 69.8163 48.8389 65.8782C54.3825 61.9401 55.9917 54.7147 52.4575 49.7397C52.3735 49.6823 52.3183 49.6046 52.263 49.5269Z" fill="#FF9A22"/>
<path fill-rule="evenodd" clip-rule="evenodd" d="M54.3528 56.1547L51.5499 52.2092L50.8382 55.405L53.7282 59.4732C54.0986 58.3875 54.3095 57.2688 54.3528 56.1547ZM49.8423 65.138L47.0152 61.1583L44.9469 62.6276L47.7702 66.602C48.143 66.3869 48.5098 66.1519 48.869 65.8967C49.2083 65.6557 49.5328 65.4024 49.8423 65.138ZM40.6309 68.353L37.7203 64.2559L34.3335 63.5037L37.2988 67.678C38.3548 68.0642 39.4786 68.2908 40.6309 68.353Z" fill="#EA7A00"/>
<path d="M47.795 64.4476C53.3386 60.5095 54.9478 53.2841 51.4135 48.3091C47.8793 43.334 40.5269 42.4748 34.9834 46.4129C29.4398 50.351 27.8306 57.5765 31.3648 62.5515C34.8991 67.5266 42.2515 68.3857 47.795 64.4476Z" fill="#FFE25D"/>
<path d="M46.5808 62.7369C51.0616 59.5537 52.3901 53.6975 49.5185 49.6553C46.6469 45.613 40.6798 44.9395 36.199 48.1226C31.7182 51.3058 30.3897 57.1621 33.2613 61.2043C36.1328 65.2466 42.1 65.92 46.5808 62.7369Z" fill="#FFB902"/>
<path d="M44.7583 60.1724C47.8317 57.9891 48.6452 53.9023 46.6019 51.0261C44.5587 48.1499 40.4032 47.593 37.3585 49.7559C34.2851 51.9392 33.4716 56.0261 35.5148 58.9023C37.5581 61.7785 41.685 62.3557 44.7583 60.1724Z" fill="#FFE25D"/>
<path d="M44.3156 59.5508C46.9581 57.6735 47.7583 54.2979 46.1016 51.9659C44.4449 49.6338 40.9941 49.2781 38.3516 51.1553C35.709 53.0326 34.9088 56.4082 36.5655 58.7402C38.167 60.9946 41.6731 61.428 44.3156 59.5508Z" fill="#FFE25D"/>
<path d="M73.215 32.7536L74.3554 31.8951L78.36 33.4416C79.663 33.7079 80.9909 34.2391 82.1647 35.073C83.3588 35.9213 84.2774 36.9859 84.9578 38.1286L87.8509 41.9585L87.477 42.5556C87.3992 42.6651 87.3214 42.7747 87.2046 42.939C84.7144 46.4445 79.5338 47.0498 75.6277 44.275C71.7216 41.5001 70.5877 36.409 73.078 32.9035C73.1372 32.8631 73.1761 32.8084 73.215 32.7536Z" fill="#FF9A22"/>
<path fill-rule="evenodd" clip-rule="evenodd" d="M71.7427 37.4241L73.718 34.6435L74.2195 36.8954L72.1829 39.7622C71.9219 38.9972 71.7732 38.2091 71.7427 37.4241ZM74.9211 43.7536L76.9133 40.9492L78.3706 41.9845L76.3811 44.7851C76.1183 44.6335 75.8598 44.4678 75.6066 44.288C75.3677 44.1182 75.1391 43.9398 74.9211 43.7536ZM81.4119 46.0187L83.4628 43.1318L85.8491 42.6018L83.7598 45.5428C83.0158 45.8151 82.2239 45.9748 81.4119 46.0187Z" fill="#EA7A00"/>
<path d="M76.363 43.2669C72.4569 40.492 71.3231 35.401 73.8133 31.8955C76.3036 28.39 81.4842 27.7846 85.3903 30.5594C89.2964 33.3343 90.4302 38.4254 87.94 41.9309C85.4497 45.4364 80.2691 46.0417 76.363 43.2669Z" fill="#FFE25D"/>
<path d="M77.2185 42.0615C74.0612 39.8187 73.1251 35.6923 75.1485 32.844C77.1719 29.9958 81.3764 29.5212 84.5337 31.7641C87.6909 34.007 88.627 38.1334 86.6036 40.9817C84.5803 43.8299 80.3757 44.3044 77.2185 42.0615Z" fill="#FFB902"/>
<path d="M78.5029 40.2546C76.3374 38.7162 75.7642 35.8366 77.2039 33.8099C78.6436 31.7833 81.5717 31.391 83.717 32.915C85.8825 34.4534 86.4557 37.333 85.016 39.3596C83.5764 41.3862 80.6685 41.793 78.5029 40.2546Z" fill="#FFE25D"/>
<path d="M78.815 39.8165C76.953 38.4938 76.3892 36.1153 77.5565 34.4721C78.7238 32.8289 81.1553 32.5783 83.0173 33.901C84.8793 35.2237 85.4431 37.6022 84.2758 39.2454C83.1474 40.8338 80.6769 41.1393 78.815 39.8165Z" fill="#FFE25D"/>
<path d="M23.6686 46.5997L26.8251 44.9425L23.0704 37.7907C22.7773 35.5282 22.0792 33.1332 20.902 30.891C19.7046 28.6102 18.1499 26.7141 16.454 25.1881L12.679 17.9977L9.87322 19.4708C9.69785 19.5629 9.52248 19.6549 9.25944 19.793C3.64787 22.7391 2.25462 31.1635 6.17168 38.6245C10.0888 46.0856 17.8143 49.7226 23.4258 46.7765C23.4932 46.6918 23.5809 46.6457 23.6686 46.5997Z" fill="#FF9A22"/>
<path fill-rule="evenodd" clip-rule="evenodd" d="M16.3798 47.4192L20.832 45.0818L17.4149 43.4731L12.8244 45.8831C13.9772 46.5806 15.1757 47.0989 16.3798 47.4192ZM6.933 39.9512L11.4226 37.5941L9.96132 34.8107L5.47765 37.1646C5.68707 37.6541 5.91847 38.1413 6.17214 38.6245C6.41194 39.0813 6.66601 39.5237 6.933 39.9512ZM4.02972 28.3587L8.65329 25.9313L9.68115 22.1369L4.97048 24.61C4.48573 25.7563 4.16958 27.0209 4.02972 28.3587Z" fill="#EA7A00"/>
<path d="M9.13283 37.0208C13.0499 44.4818 20.7754 48.1188 26.387 45.1727C31.9985 42.2266 33.3919 33.8022 29.4748 26.3412C25.5577 18.8802 17.8322 15.2432 12.2206 18.1893C6.60902 21.1354 5.21577 29.5598 9.13283 37.0208Z" fill="#FFE25D"/>
<path d="M11.0615 36.0084C14.2276 42.0391 20.4877 45.0153 25.0471 42.6216C29.6065 40.2279 30.7116 33.3849 27.5454 27.3542C24.3793 21.3236 18.1191 18.3473 13.5597 20.741C9.00034 23.1347 7.89534 29.9777 11.0615 36.0084Z" fill="#FFB902"/>
<path d="M13.954 34.4892C16.1256 38.6256 20.5015 40.5692 23.7457 38.866C26.9899 37.1628 27.8546 32.4186 25.7032 28.3208C23.5316 24.1844 19.1558 22.2407 15.9116 23.9439C12.6674 25.6471 11.7824 30.3527 13.954 34.4892Z" fill="#FFE25D"/>
<path d="M14.6569 34.1207C16.5241 37.6773 20.1303 39.4332 22.7608 38.0522C25.3912 36.6712 25.9936 32.7057 24.1264 29.1492C22.2592 25.5926 18.653 23.8366 16.0226 25.2176C13.4798 26.5526 12.7897 30.5641 14.6569 34.1207Z" fill="#FFE25D"/>
<path d="M61.5688 17.2444L59.4733 15.8781L56.3777 20.6259C55.0921 21.5798 53.864 22.8272 52.8935 24.3157C51.9063 25.8299 51.277 27.4311 50.9227 28.9923L47.8104 33.7657L49.6731 34.9802C49.7895 35.0561 49.9059 35.132 50.0806 35.2458C53.8059 37.6748 59.443 35.6447 62.6725 30.6916C65.9019 25.7385 65.4855 19.7615 61.7601 17.3326C61.6852 17.3203 61.627 17.2823 61.5688 17.2444Z" fill="#FF9A22"/>
<path fill-rule="evenodd" clip-rule="evenodd" d="M64.5658 21.4292L61.6105 19.5024L61.7947 22.1461L64.8418 24.1328C64.8744 23.1879 64.7817 22.2764 64.5658 21.4292ZM63.2247 29.7718L60.2441 27.8285L59.0394 29.6763L62.0159 31.617C62.2441 31.3212 62.4634 31.0127 62.6725 30.6919C62.8702 30.3887 63.0542 30.0816 63.2247 29.7718ZM57.1177 35.5179L54.0486 33.5168L51.3726 34.1859L54.4996 36.2248C55.3676 36.1293 56.2504 35.8901 57.1177 35.5179Z" fill="#EA7A00"/>
<path d="M60.6771 29.4269C63.9065 24.4738 63.49 18.4968 59.7647 16.0679C56.0394 13.6389 50.4023 15.6689 47.1728 20.622C43.9433 25.5751 44.3598 31.5522 48.0852 33.9811C51.8105 36.4101 57.4476 34.38 60.6771 29.4269Z" fill="#FFE25D"/>
<path d="M59.3968 28.5922C62.0071 24.5886 61.6875 19.7354 58.6607 17.7619C55.6338 15.7884 51.064 17.4536 48.4537 21.4572C45.8434 25.4607 46.163 30.314 49.1898 32.2875C52.2166 34.261 56.7864 32.5957 59.3968 28.5922Z" fill="#FFB902"/>
<path d="M57.4761 27.3404C59.2665 24.5944 58.9593 21.2488 56.8056 19.8445C54.6519 18.4403 51.4499 19.5345 49.6762 22.2548C47.8858 25.0009 48.193 28.3465 50.3467 29.7507C52.5004 31.1549 55.6857 30.0864 57.4761 27.3404Z" fill="#FFE25D"/>
<path d="M57.0104 27.0362C58.5499 24.6751 58.3911 21.8652 56.6448 20.7266C54.8986 19.588 52.2634 20.5763 50.724 22.9374C49.1845 25.2984 49.3433 28.1084 51.0895 29.247C52.7775 30.3476 55.471 29.3972 57.0104 27.0362Z" fill="#FFE25D"/>
<path d="M83.4412 69.3118L81.4053 65.7211L92.1207 59.6453C94.6752 57.5357 97.7414 55.3838 101.101 53.479C104.518 51.5413 107.881 50.0476 111.003 48.9387L121.776 42.8301L123.671 46.1706C123.741 46.2957 123.812 46.4208 123.919 46.6084C126.188 50.6112 118.997 58.9869 107.818 65.3255C96.6392 71.664 85.7593 73.5351 83.4897 69.5323C83.5121 69.4369 83.4767 69.3743 83.4412 69.3118Z" fill="#FF9A22"/>
<path d="M105.911 61.8272C94.7321 68.1658 83.8523 70.0368 81.5827 66.034C79.313 62.0311 86.5046 53.6555 97.6834 47.3169C108.862 40.9784 119.742 39.1073 122.012 43.1102C124.281 47.113 117.09 55.4887 105.911 61.8272Z" fill="#FFE25D"/>
<path d="M105.131 60.4513C96.0956 65.5746 87.2502 67.1187 85.4061 63.8664C83.562 60.6141 89.4285 53.8163 98.4642 48.6929C107.5 43.5695 116.345 42.0254 118.19 45.2777C120.034 48.5301 114.167 55.3279 105.131 60.4513Z" fill="#FFB902"/>
<path d="M103.96 58.3876C97.7629 61.9017 91.7178 62.8498 90.4056 60.5357C89.0935 58.2215 93.0687 53.488 99.2084 50.0067C105.406 46.4926 111.451 45.5445 112.763 47.8586C114.075 50.1727 110.158 54.8735 103.96 58.3876Z" fill="#FFE25D"/>
<path d="M103.677 57.8869C98.3482 60.9084 93.2109 61.8376 92.147 59.9613C91.0831 58.085 94.5181 54.1536 99.8469 51.1321C105.176 48.1107 110.313 47.1813 111.377 49.0577C112.405 50.8715 109.006 54.8654 103.677 57.8869Z" fill="#FFE25D"/>
<path d="M120.297 55.85L118.46 52.2345L121.326 48.3782L123.198 52.0563C122.452 53.3057 121.461 54.5286 120.297 55.85Z" fill="#EA7A00"/>
<path d="M94.5818 70.8349C92.8276 71.251 91.2117 71.506 89.7341 71.6L87.8306 68.1768L92.6428 67.3492L94.5818 70.8349Z" fill="#EA7A00"/>
<path d="M110.147 63.9668C109.394 64.3937 108.618 64.916 107.865 65.343C107.286 65.6714 106.649 66.0326 106.07 66.3611L104.116 62.8454L108.286 60.4808L110.205 63.9339L110.147 63.9668Z" fill="#EA7A00"/>
</g>
<defs>
<clipPath id="clip0_4868_30820">
<rect width="128" height="128" fill="white" transform="translate(0.5 0.5)"/>
</clipPath>
</defs>
</svg>
