<svg width="129" height="129" viewBox="0 0 129 129" fill="none" xmlns="http://www.w3.org/2000/svg">
<g clip-path="url(#clip0_4868_30814)">
<path style="mix-blend-mode:screen" fill-rule="evenodd" clip-rule="evenodd" d="M45.7971 44.3065C41.8043 40.5989 36.1002 50.0106 37.7638 53.1004C39.4275 56.1901 40.9962 51.3891 44.4662 50.2958C47.9362 49.2025 47.7936 46.2079 45.7971 44.3065Z" fill="url(#paint0_linear_4868_30814)"/>
<path fill-rule="evenodd" clip-rule="evenodd" d="M34.6251 21.2445C15.5639 12.5458 3.72785 24.667 5.53415 41.0188C7.29292 56.7526 23.5972 65.6415 38.4754 60.1751C53.0208 54.8512 62.4326 33.9362 34.5776 21.197L34.6251 21.2445Z" fill="#E83D63"/>
<path style="mix-blend-mode:multiply" opacity="0.5" fill-rule="evenodd" clip-rule="evenodd" d="M32.5821 21.5755C25.9273 20.6249 29.017 26.7568 36.5274 30.4644C44.0378 34.2672 42.6594 28.9909 39.8548 26.0913C37.0028 23.2392 33.9606 21.7181 32.5821 21.5755Z" fill="#D19A8E"/>
<path style="mix-blend-mode:screen" fill-rule="evenodd" clip-rule="evenodd" d="M26.9199 20.9667C24.7809 18.5424 20.9782 20.2537 23.0221 24.5793C25.7316 30.3309 35.999 35.0844 40.7524 35.3696C44.4125 35.6072 37.3775 32.7552 31.0554 28.3345C24.6858 23.9614 27.7756 21.9174 26.9199 20.9667Z" fill="#C33B30"/>
<path style="mix-blend-mode:multiply" opacity="0.5" fill-rule="evenodd" clip-rule="evenodd" d="M31.8645 26.0019C31.8645 26.0019 33.7183 30.7078 38.4718 30.3276C38.4718 30.3276 36.7605 26.81 31.8645 26.0019Z" fill="#4F0452"/>
<path fill-rule="evenodd" clip-rule="evenodd" d="M33.3388 27.2882C33.3388 27.2882 34.3846 29.5698 37.3317 29.855C37.3317 29.855 47.409 12.2673 63.1428 11.9346L69.1321 4.7094L67.1357 3.47353C67.1357 3.47353 62.0495 2.95063 61.3365 8.51213C61.3365 8.51213 45.8403 9.93818 33.3388 27.2882Z" fill="#008D64"/>
<g style="mix-blend-mode:multiply" opacity="0.5">
<path fill-rule="evenodd" clip-rule="evenodd" d="M38.7696 38.7301C32.4155 32.0542 15.364 45.2451 18.7421 54.0926C22.2007 62.8596 32.8177 57.8729 36.1154 53.61C39.4131 49.3471 42.0674 42.3495 38.6892 38.8105L38.7696 38.7301Z" fill="#CD7586"/>
</g>
<path fill-rule="evenodd" clip-rule="evenodd" d="M68.8951 4.7137C68.8951 4.7137 76.3856 9.3267 78.1323 20.884C79.9294 32.4858 63.0384 41.6266 63.0384 41.6266C63.0384 41.6266 57.0962 34.4367 58.9056 21.8875C60.7655 9.38278 67.5073 6.0894 67.8944 5.44517C68.2371 4.85144 67.1521 3.54014 67.1521 3.54014L68.8507 4.76418L68.8951 4.7137Z" fill="#14A87D"/>
<path fill-rule="evenodd" clip-rule="evenodd" d="M63.0884 41.571L61.8183 41.0814C61.8183 41.0814 56.7545 34.2158 57.9258 21.3744C59.097 8.53309 67.47 5.42014 67.7423 5.21202C68.0591 4.9534 67.8265 4.30156 67.8265 4.30156C67.8265 4.30156 68.3437 4.93504 68.1341 5.37728C67.874 5.77515 52.3586 16.3038 63.1832 41.5648L63.0884 41.571Z" fill="#137F6D"/>
<g style="mix-blend-mode:multiply" opacity="0.5">
<path fill-rule="evenodd" clip-rule="evenodd" d="M63.0846 41.5722C63.0846 41.5722 70.0447 30.5958 71.0203 20.625C71.9959 10.6543 70.3094 6.66679 67.6972 3.83459C67.6972 3.83459 70.0782 5.30035 72.3874 7.86632C72.3874 7.86632 71.4463 7.30787 71.0531 7.85723C70.6599 8.40659 74.5132 13.4926 71.4428 24.2179C68.3724 34.9431 63.0402 41.6227 63.0402 41.6227L63.0846 41.5722Z" fill="#13826F"/>
</g>
<g style="mix-blend-mode:multiply" opacity="0.4">
<path fill-rule="evenodd" clip-rule="evenodd" d="M38.472 21.1014C38.472 21.1014 39.3752 23.0504 42.5125 22.8602L44.9367 20.436C44.9367 20.436 41.134 20.531 39.3277 20.2458L38.472 21.1014Z" fill="#AC6D22"/>
</g>
<path style="mix-blend-mode:screen" fill-rule="evenodd" clip-rule="evenodd" d="M96.6619 107.802C92.669 104.094 86.9649 113.506 88.6286 116.596C90.2923 119.686 91.8609 114.885 95.3309 113.791C98.8009 112.698 98.6583 109.703 96.6619 107.802Z" fill="url(#paint1_linear_4868_30814)"/>
<path fill-rule="evenodd" clip-rule="evenodd" d="M85.4898 84.74C66.4286 76.0412 54.5926 88.1625 56.3989 104.514C58.1577 120.248 74.4619 129.137 89.3401 123.671C103.886 118.347 113.297 97.4316 85.4423 84.6925L85.4898 84.74Z" fill="#E83D63"/>
<path style="mix-blend-mode:multiply" opacity="0.5" fill-rule="evenodd" clip-rule="evenodd" d="M83.4459 85.071C76.7911 84.1203 79.8808 90.2523 87.3912 93.9599C94.9016 97.7627 93.5231 92.4864 90.7186 89.5868C87.8666 86.7347 84.8244 85.2136 83.4459 85.071Z" fill="#D19A8E"/>
<path style="mix-blend-mode:screen" fill-rule="evenodd" clip-rule="evenodd" d="M77.7837 84.4622C75.6447 82.0379 71.8419 83.7492 73.8859 88.0748C76.5953 93.8264 86.8627 98.5798 91.6162 98.865C95.2763 99.1027 88.2412 96.2507 81.9192 91.83C75.5496 87.4568 78.6393 85.4129 77.7837 84.4622Z" fill="#C33B30"/>
<path style="mix-blend-mode:multiply" opacity="0.5" fill-rule="evenodd" clip-rule="evenodd" d="M82.7293 89.4974C82.7293 89.4974 84.5831 94.2033 89.3365 93.823C89.3365 93.823 87.6253 90.3055 82.7293 89.4974Z" fill="#4F0452"/>
<path fill-rule="evenodd" clip-rule="evenodd" d="M84.2036 90.7835C84.2036 90.7835 85.2493 93.0652 88.1965 93.3504C88.1965 93.3504 98.2737 75.7627 114.008 75.43L119.997 68.2048L118 66.9689C118 66.9689 112.914 66.446 112.201 72.0075C112.201 72.0075 96.7051 73.4335 84.2036 90.7835Z" fill="#008D64"/>
<g style="mix-blend-mode:multiply" opacity="0.5">
<path fill-rule="evenodd" clip-rule="evenodd" d="M96.5148 108.327C92.7596 104.381 82.6824 112.177 84.6788 117.406C86.7228 122.587 92.9973 119.64 94.9462 117.12C96.8951 114.601 98.4637 110.466 96.4673 108.374L96.5148 108.327Z" fill="#CD7586"/>
</g>
<path fill-rule="evenodd" clip-rule="evenodd" d="M119.572 68.4048C119.572 68.4048 126.451 73.8882 126.79 85.5718C127.174 97.3056 109.303 104.341 109.303 104.341C109.303 104.341 104.272 96.4865 107.583 84.2475C110.939 72.0586 118.029 69.603 118.491 69.0102C118.903 68.4622 117.984 67.0295 117.984 67.0295L119.522 68.4496L119.572 68.4048Z" fill="#14A87D"/>
<path fill-rule="evenodd" clip-rule="evenodd" d="M109.36 104.292L108.159 103.653C108.159 103.653 103.96 96.2261 106.673 83.62C109.386 71.0139 118.073 68.9342 118.369 68.7605C118.714 68.542 118.562 67.8668 118.562 67.8668C118.562 67.8668 118.999 68.5581 118.737 68.9718C118.431 69.3354 101.759 77.9145 109.455 104.297L109.36 104.292Z" fill="#137F6D"/>
<g style="mix-blend-mode:multiply" opacity="0.5">
<path fill-rule="evenodd" clip-rule="evenodd" d="M109.357 104.293C109.357 104.293 117.591 94.2366 119.763 84.4565C121.935 74.6765 120.742 70.5145 118.49 67.3878C118.49 67.3878 120.677 69.1302 122.66 71.9561C122.66 71.9561 121.793 71.2881 121.336 71.786C120.88 72.2839 124.091 77.7979 119.748 88.0741C115.406 98.3504 109.307 104.338 109.307 104.338L109.357 104.293Z" fill="#13826F"/>
</g>
<g style="mix-blend-mode:multiply" opacity="0.4">
<path fill-rule="evenodd" clip-rule="evenodd" d="M89.3368 84.597C89.3368 84.597 90.24 86.546 93.3772 86.3558L95.8015 83.9316C95.8015 83.9316 91.9987 84.0266 90.1924 83.7414L89.3368 84.597Z" fill="#AC6D22"/>
</g>
<path style="mix-blend-mode:screen" fill-rule="evenodd" clip-rule="evenodd" d="M69.3289 81.172C63.7257 75.969 55.7211 89.1765 58.0558 93.5123C60.3904 97.8481 62.5917 91.1109 67.4611 89.5767C72.3306 88.0425 72.1305 83.8401 69.3289 81.172Z" fill="url(#paint2_linear_4868_30814)"/>
<path fill-rule="evenodd" clip-rule="evenodd" d="M53.6505 48.8089C26.9019 36.6019 10.2924 53.6116 12.8272 76.5581C15.2952 98.6373 38.175 111.111 59.0536 103.44C79.4652 95.9691 92.6727 66.619 53.5838 48.7422L53.6505 48.8089Z" fill="#FF6085"/>
<path style="mix-blend-mode:multiply" opacity="0.5" fill-rule="evenodd" clip-rule="evenodd" d="M50.7829 49.2736C41.4442 47.9395 45.78 56.5444 56.3193 61.7473C66.8587 67.0837 64.9243 59.6795 60.9887 55.6105C56.9864 51.6082 52.7173 49.4737 50.7829 49.2736Z" fill="#D19A8E"/>
<path style="mix-blend-mode:screen" fill-rule="evenodd" clip-rule="evenodd" d="M42.8378 48.4192C39.8361 45.0172 34.4997 47.4186 37.368 53.4888C41.1702 61.56 55.5784 68.2305 62.2489 68.6307C67.3852 68.9643 57.5129 64.962 48.6411 58.7584C39.7027 52.6216 44.0385 49.7533 42.8378 48.4192Z" fill="#F96154"/>
<path style="mix-blend-mode:multiply" opacity="0.5" fill-rule="evenodd" clip-rule="evenodd" d="M49.7774 55.4851C49.7774 55.4851 52.3789 62.0888 59.0493 61.5552C59.0493 61.5552 56.648 56.6191 49.7774 55.4851Z" fill="#4F0452"/>
<path fill-rule="evenodd" clip-rule="evenodd" d="M51.8469 57.2898C51.8469 57.2898 53.3144 60.4917 57.4501 60.8919C57.4501 60.8919 71.5915 36.2111 93.6707 35.7442L102.076 25.6051L99.274 23.8708C99.274 23.8708 92.1365 23.137 91.1359 30.9415C91.1359 30.9415 69.3902 32.9426 51.8469 57.2898Z" fill="#008D64"/>
<g style="mix-blend-mode:multiply" opacity="0.5">
<path fill-rule="evenodd" clip-rule="evenodd" d="M69.1232 81.9078C63.8536 76.3713 49.7122 87.3109 52.5138 94.6485C55.3821 101.919 64.1871 97.7836 66.922 94.2482C69.6569 90.7129 71.8581 84.9095 69.0565 81.9745L69.1232 81.9078Z" fill="#CD7586"/>
</g>
<path fill-rule="evenodd" clip-rule="evenodd" d="M101.826 25.5433C101.826 25.5433 111.899 32.6807 113.299 49.0234C114.767 65.4327 90.2863 76.7058 90.2863 76.7058C90.2863 76.7058 82.6152 66.0998 86.284 48.6898C90.0194 31.3466 99.7583 27.3443 100.359 26.4772C100.892 25.6767 99.4915 23.7423 99.4915 23.7423L101.759 25.61L101.826 25.5433Z" fill="#14A87D"/>
<path fill-rule="evenodd" clip-rule="evenodd" d="M90.361 76.6324L88.6267 75.832C88.6267 75.832 82.1563 65.7595 84.9579 47.8827C87.7595 30.0058 99.7664 26.4037 100.167 26.1369C100.634 25.8034 100.367 24.8695 100.367 24.8695C100.367 24.8695 101.034 25.8034 100.7 26.4038C100.3 26.9374 77.6204 40.2783 90.4944 76.6324L90.361 76.6324Z" fill="#137F6D"/>
<g style="mix-blend-mode:multiply" opacity="0.5">
<path fill-rule="evenodd" clip-rule="evenodd" d="M90.3574 76.6333C90.3574 76.6333 101.097 61.8916 103.365 48.017C105.633 34.1424 103.632 28.4058 100.23 24.2034C100.23 24.2034 103.432 26.4714 106.433 30.2735C106.433 30.2735 105.166 29.4064 104.566 30.1401C103.965 30.8739 108.901 38.3448 103.632 53.0866C98.362 67.8283 90.2907 76.7 90.2907 76.7L90.3574 76.6333Z" fill="#13826F"/>
</g>
<path fill-rule="evenodd" clip-rule="evenodd" d="M100.674 24.4443C100.674 24.4443 98.4867 18.7456 90.8282 16.0756C83.1459 13.3655 74.7508 23.7155 74.7508 23.7155C74.7508 23.7155 78.8939 28.6879 87.6838 29.0596C96.4498 29.3911 99.5585 25.2147 100.047 25.0331C100.496 24.8754 101.252 25.7831 101.252 25.7831L100.634 24.4681L100.674 24.4443Z" fill="#14A87D"/>
<path fill-rule="evenodd" clip-rule="evenodd" d="M74.7949 23.6883L74.9663 24.6171C74.9663 24.6171 79.0006 28.9491 87.9081 29.7933C96.8156 30.6375 100.01 25.3256 100.187 25.1665C100.404 24.9836 100.818 25.2256 100.818 25.2256C100.818 25.2256 100.453 24.7918 100.124 24.8782C99.8195 25.0047 90.6539 34.2388 74.8112 23.6244L74.7949 23.6883Z" fill="#137F6D"/>
<g style="mix-blend-mode:multiply" opacity="0.5">
<path fill-rule="evenodd" clip-rule="evenodd" d="M74.7909 23.6882C74.7909 23.6882 83.1672 20.346 90.0919 20.9563C97.0167 21.5667 99.5203 23.2271 101.118 25.371C101.118 25.371 100.423 23.5596 98.9682 21.6564C98.9682 21.6564 99.2286 22.3697 98.8036 22.5676C98.3787 22.7655 95.4031 19.4868 87.6957 20.2085C79.9884 20.9301 74.7508 23.712 74.7508 23.712L74.7909 23.6882Z" fill="#13826F"/>
</g>
<g style="mix-blend-mode:multiply" opacity="0.4">
<path fill-rule="evenodd" clip-rule="evenodd" d="M59.0499 48.6083C59.0499 48.6083 60.3173 51.3432 64.7198 51.0764L68.1217 47.6745C68.1217 47.6745 62.7853 47.8079 60.2506 47.4076L59.0499 48.6083Z" fill="#AC6D22"/>
</g>
</g>
<defs>
<linearGradient id="paint0_linear_4868_30814" x1="38.8884" y1="54.1706" x2="45.3721" y2="43.954" gradientUnits="userSpaceOnUse">
<stop/>
<stop offset="0.2" stop-color="#2D110F"/>
<stop offset="0.7" stop-color="#A03E36"/>
<stop offset="1" stop-color="#F96154"/>
</linearGradient>
<linearGradient id="paint1_linear_4868_30814" x1="89.7532" y1="117.666" x2="96.2368" y2="107.449" gradientUnits="userSpaceOnUse">
<stop/>
<stop offset="0.2" stop-color="#2D110F"/>
<stop offset="0.7" stop-color="#A03E36"/>
<stop offset="1" stop-color="#F96154"/>
</linearGradient>
<linearGradient id="paint2_linear_4868_30814" x1="59.6339" y1="95.0141" x2="68.7324" y2="80.6772" gradientUnits="userSpaceOnUse">
<stop/>
<stop offset="0.2" stop-color="#2D110F"/>
<stop offset="0.7" stop-color="#A03E36"/>
<stop offset="1" stop-color="#F96154"/>
</linearGradient>
<clipPath id="clip0_4868_30814">
<rect width="128" height="128" fill="white" transform="translate(0.5 0.5)"/>
</clipPath>
</defs>
</svg>
