<svg width="129" height="129" viewBox="0 0 129 129" fill="none" xmlns="http://www.w3.org/2000/svg">
<path d="M100.328 23.7145H46.852L46.4409 36.1895L52.6271 46.445L53.0381 33.9699H106.515L100.328 23.7145Z" fill="#D67743"/>
<path d="M99.5484 47.9042H46.0719L44.6538 91.8854C44.6538 92.132 44.6127 92.3787 44.5922 92.6047V93.4474C43.1741 99.4485 37.7689 104.669 30.5346 106.272C29.0548 106.601 27.5956 106.744 26.1775 106.744C20.1969 106.744 14.8739 103.991 12.2021 99.5513L18.3883 109.807C21.0601 114.246 26.3831 117 32.3637 117C38.3444 117 35.241 116.836 36.7207 116.527C43.9551 114.945 49.3603 109.704 50.7578 103.703V102.86C50.8195 102.634 50.84 102.387 50.8606 102.141L52.2787 58.1596H105.755L99.5689 47.9042H99.5484Z" fill="#D67743"/>
<path d="M117.817 25.0093L111.631 14.7539C112.166 15.6582 112.474 16.7063 112.433 17.8573L110.049 91.8855C110.049 92.3993 109.946 92.8925 109.802 93.3858C108.405 99.4486 102.999 104.669 95.7651 106.272C94.2853 106.601 92.8261 106.745 91.408 106.745C85.4274 106.745 80.1044 103.991 77.4326 99.5514L83.6188 109.807C86.2906 114.246 91.6135 117 97.5942 117C103.575 117 100.471 116.836 101.951 116.527C109.186 114.945 114.591 109.704 115.988 103.641C116.132 103.169 116.214 102.655 116.235 102.141L118.619 28.1127C118.66 26.9823 118.352 25.9136 117.817 25.0093Z" fill="#D67743"/>
<path d="M106.659 12C109.947 12 112.536 14.6307 112.434 17.8573L110.05 91.8856C110.05 92.3994 109.947 92.8926 109.803 93.3858C108.405 99.4487 103 104.669 95.766 106.251C94.2862 106.58 92.827 106.724 91.4089 106.724C83.743 106.724 77.1869 102.203 75.8305 95.3999C74.248 87.3436 80.5985 79.1228 90.0114 77.047C91.4911 76.7182 92.9298 76.5743 94.3479 76.5743C95.8071 76.5743 97.2457 76.7387 98.6021 77.047L99.5475 47.8838H46.0711L44.653 91.865C44.653 92.1116 44.6119 92.3582 44.5913 92.5843V93.4269C43.1733 99.4281 37.7681 104.648 30.5337 106.251C29.054 106.58 27.5948 106.724 26.1767 106.724C18.5108 106.724 11.9547 102.203 10.6188 95.3999C9.03628 87.3436 15.3869 79.1228 24.7997 77.047C26.2589 76.7182 27.7181 76.5743 29.1156 76.5743C30.5337 76.5743 31.9107 76.7387 33.226 77.0265L35.1374 17.8573C35.2402 14.6307 37.9941 12 41.2825 12H106.679H106.659ZM99.938 36.1897L100.329 23.7352H46.8521L46.4616 36.1897H99.938Z" fill="#FE9C29"/>
<path fill-rule="evenodd" clip-rule="evenodd" d="M99.2375 57.4476L99.5475 47.8838H46.0711L44.653 91.865C44.653 92.036 44.6332 92.207 44.6143 92.3712C44.6059 92.4438 44.5976 92.515 44.5913 92.5843V93.4269C43.1733 99.4281 37.7681 104.648 30.5337 106.251C29.054 106.58 27.5948 106.724 26.1767 106.724C18.5108 106.724 11.9547 102.203 10.6188 95.3999C9.03628 87.3436 15.3869 79.1228 24.7997 77.047C26.2589 76.7182 27.7181 76.5743 29.1156 76.5743C30.5337 76.5743 31.9107 76.7387 33.226 77.0265L34.0227 52.3639L47.8931 36.1897H99.938L100.329 23.7352H58.5735L68.6371 12H106.659C109.947 12 112.536 14.6307 112.434 17.8573L111.624 43.0038L99.2375 57.4476Z" fill="#FFB902"/>
<path d="M44.221 20.7141C46.0484 20.7141 47.5299 19.2326 47.5299 17.4052C47.5299 15.5777 46.0484 14.0963 44.221 14.0963C42.3935 14.0963 40.9121 15.5777 40.9121 17.4052C40.9121 19.2326 42.3935 20.7141 44.221 20.7141Z" fill="white"/>
<path d="M63.3753 20.7139C65.2027 20.7139 66.6842 19.2325 66.6842 17.4051C66.6842 15.5776 65.2027 14.0962 63.3753 14.0962C61.5478 14.0962 60.0664 15.5776 60.0664 17.4051C60.0664 19.2325 61.5478 20.7139 63.3753 20.7139Z" fill="white"/>
<path d="M82.5315 20.7139C84.359 20.7139 85.8404 19.2325 85.8404 17.4051C85.8404 15.5776 84.359 14.0962 82.5315 14.0962C80.7041 14.0962 79.2227 15.5776 79.2227 17.4051C79.2227 19.2325 80.7041 20.7139 82.5315 20.7139Z" fill="white"/>
<path d="M101.706 20.7141C103.534 20.7141 105.015 19.2326 105.015 17.4052C105.015 15.5777 103.534 14.0963 101.706 14.0963C99.8789 14.0963 98.3975 15.5777 98.3975 17.4052C98.3975 19.2326 99.8789 20.7141 101.706 20.7141Z" fill="white"/>
<path d="M105.816 36.9295C107.644 36.9295 109.125 35.4481 109.125 33.6206C109.125 31.7932 107.644 30.3118 105.816 30.3118C103.989 30.3118 102.507 31.7932 102.507 33.6206C102.507 35.4481 103.989 36.9295 105.816 36.9295Z" fill="white"/>
<path d="M105.199 54.152C107.026 54.152 108.508 52.6706 108.508 50.8432C108.508 49.0157 107.026 47.5343 105.199 47.5343C103.372 47.5343 101.89 49.0157 101.89 50.8432C101.89 52.6706 103.372 54.152 105.199 54.152Z" fill="white"/>
<path d="M104.748 70.9842C106.575 70.9842 108.057 69.5028 108.057 67.6753C108.057 65.8479 106.575 64.3665 104.748 64.3665C102.92 64.3665 101.439 65.8479 101.439 67.6753C101.439 69.5028 102.92 70.9842 104.748 70.9842Z" fill="white"/>
<path d="M103.514 87.3846C105.342 87.3846 106.823 85.9032 106.823 84.0757C106.823 82.2483 105.342 80.7668 103.514 80.7668C101.687 80.7668 100.206 82.2483 100.206 84.0757C100.206 85.9032 101.687 87.3846 103.514 87.3846Z" fill="white"/>
<path d="M40.4598 36.9295C42.2872 36.9295 43.7686 35.4481 43.7686 33.6206C43.7686 31.7932 42.2872 30.3118 40.4598 30.3118C38.6323 30.3118 37.1509 31.7932 37.1509 33.6206C37.1509 35.4481 38.6323 36.9295 40.4598 36.9295Z" fill="white"/>
<path d="M39.824 54.152C41.6515 54.152 43.1329 52.6706 43.1329 50.8432C43.1329 49.0157 41.6515 47.5343 39.824 47.5343C37.9966 47.5343 36.5151 49.0157 36.5151 50.8432C36.5151 52.6706 37.9966 54.152 39.824 54.152Z" fill="white"/>
<path d="M39.3924 70.9842C41.2198 70.9842 42.7013 69.5028 42.7013 67.6753C42.7013 65.8479 41.2198 64.3665 39.3924 64.3665C37.5649 64.3665 36.0835 65.8479 36.0835 67.6753C36.0835 69.5028 37.5649 70.9842 39.3924 70.9842Z" fill="white"/>
<path d="M38.138 87.3846C39.9654 87.3846 41.4469 85.9032 41.4469 84.0757C41.4469 82.2483 39.9654 80.7668 38.138 80.7668C36.3105 80.7668 34.8291 82.2483 34.8291 84.0757C34.8291 85.9032 36.3105 87.3846 38.138 87.3846Z" fill="white"/>
</svg>
