<svg width="129" height="129" viewBox="0 0 129 129" fill="none" xmlns="http://www.w3.org/2000/svg">
<path d="M70.1191 29.6604H57.9907V100.44H70.1191V29.6604Z" fill="#FCC64B"/>
<path d="M70.1199 29.6604H63.9116V100.44H70.1199V29.6604Z" fill="#FAA832"/>
<path d="M58.4963 13.2198L22.2812 28.4432L24.3903 33.4604L60.6053 18.237L58.4963 13.2198Z" fill="#8977DD"/>
<path d="M66.1639 12.4045L102.379 27.6279L100.27 32.6451L64.0549 17.4217L66.1639 12.4045Z" fill="#8977DD"/>
<path d="M119.707 76.9164L102.842 36.0795L86.252 77.9477" stroke="#8977DD" stroke-width="5.625" stroke-miterlimit="10"/>
<path d="M123.636 79.3525C123.636 90.5379 114.572 99.6015 103.387 99.6015C92.2017 99.6015 83.1382 90.5379 83.1382 79.3525C83.1906 79.3525 123.688 79.3525 123.61 79.3525H123.636Z" fill="#C84363"/>
<path d="M117.217 79.3524H83.1636C83.1636 80.0597 83.1898 80.7408 83.2684 81.4218C85.4164 88.6255 92.0962 93.8908 100.007 93.8908C107.918 93.8908 115.829 87.6039 117.217 79.3524Z" fill="#FF4C77"/>
<path d="M121.985 75.0826H84.7354C83.3466 75.0826 82.2207 76.2085 82.2207 77.5974V77.6236C82.2207 79.0124 83.3466 80.1383 84.7354 80.1383H121.985C123.374 80.1383 124.5 79.0124 124.5 77.6236V77.5974C124.5 76.2085 123.374 75.0826 121.985 75.0826Z" fill="#FF808C"/>
<path d="M93.7732 87.0802C95.4803 87.0802 96.8642 85.6962 96.8642 83.9891C96.8642 82.282 95.4803 80.8981 93.7732 80.8981C92.066 80.8981 90.6821 82.282 90.6821 83.9891C90.6821 85.6962 92.066 87.0802 93.7732 87.0802Z" fill="#FF808C"/>
<path d="M41.9852 76.9165L25.0106 36.4098L8.32227 78.2759" stroke="#8977DD" stroke-width="5.625" stroke-miterlimit="10"/>
<path d="M64.0417 31.3891C70.5954 31.3891 75.9082 26.0764 75.9082 19.5227C75.9082 12.969 70.5954 7.65625 64.0417 7.65625C57.4881 7.65625 52.1753 12.969 52.1753 19.5227C52.1753 26.0764 57.4881 31.3891 64.0417 31.3891Z" fill="#FAA832"/>
<path d="M71.7432 10.5115C69.6737 8.73025 66.9756 7.65625 64.0417 7.65625C57.4929 7.65625 52.1753 12.9739 52.1753 19.5227C52.1753 23.2385 53.8139 25.6237 54.0614 25.9405C54.2709 25.9405 54.4805 25.9405 54.69 25.9405C63.5964 25.9405 70.9049 19.156 71.7693 10.4853L71.7432 10.5115Z" fill="#FCC64B"/>
<path d="M53.4584 99.0516H74.729C77.1651 99.0516 79.1298 101.016 79.1298 103.452V109.111H49.0576V103.452C49.0576 101.016 51.0223 99.0516 53.4584 99.0516Z" fill="#FCC64B"/>
<path d="M46.9362 106.334H81.252C83.8715 106.334 86.0195 108.455 86.0195 111.101V115.816H42.1948V111.101C42.1948 108.482 44.3166 106.334 46.9624 106.334H46.9362Z" fill="#FCC64B"/>
<path d="M30.1185 113.276H98.0428C100.846 113.276 103.151 115.554 103.151 118.384V121.344H25.0366V118.384C25.0366 115.581 27.3156 113.276 30.1447 113.276H30.1185Z" fill="#FCA92E"/>
<path d="M24.6953 36.8046C27.8019 36.8046 30.3203 34.2862 30.3203 31.1796C30.3203 28.073 27.8019 25.5546 24.6953 25.5546C21.5887 25.5546 19.0703 28.073 19.0703 31.1796C19.0703 34.2862 21.5887 36.8046 24.6953 36.8046Z" fill="#FCC64B"/>
<path d="M103.047 36.8047C106.153 36.8047 108.672 34.2863 108.672 31.1797C108.672 28.0731 106.153 25.5547 103.047 25.5547C99.9403 25.5547 97.4219 28.0731 97.4219 31.1797C97.4219 34.2863 99.9403 36.8047 103.047 36.8047Z" fill="#FCC64B"/>
<path d="M45.8885 79.3528C45.8885 90.5382 36.8249 99.6017 25.6396 99.6017C14.4542 99.6017 5.39062 90.5382 5.39062 79.3528C5.44302 79.3528 45.9409 79.3528 45.8623 79.3528H45.8885Z" fill="#0F9363"/>
<path d="M39.4703 79.3525H5.4165C5.4165 80.0598 5.44269 80.7409 5.52128 81.422C7.66929 88.6256 14.3491 93.8909 22.26 93.8909C30.171 93.8909 38.082 87.604 39.4703 79.3525Z" fill="#00BA93"/>
<path d="M44.2644 75.083H7.01474C5.62588 75.083 4.5 76.2089 4.5 77.5978V77.624C4.5 79.0128 5.62588 80.1387 7.01474 80.1387H44.2644C45.6532 80.1387 46.7791 79.0128 46.7791 77.624V77.5978C46.7791 76.2089 45.6532 75.083 44.2644 75.083Z" fill="#A0E7D5"/>
<path d="M16.0256 87.0804C17.7327 87.0804 19.1166 85.6965 19.1166 83.9894C19.1166 82.2822 17.7327 80.8983 16.0256 80.8983C14.3185 80.8983 12.9346 82.2822 12.9346 83.9894C12.9346 85.6965 14.3185 87.0804 16.0256 87.0804Z" fill="#A0E7D5"/>
</svg>
