<svg width="129" height="129" viewBox="0 0 129 129" fill="none" xmlns="http://www.w3.org/2000/svg">
<circle cx="55.6532" cy="57.1863" r="46.5194" fill="#5548A5"/>
<circle cx="53.8505" cy="53.6858" r="46.5194" fill="#7969D6"/>
<circle cx="53.85" cy="53.6857" r="38.4222" fill="#B0A4F7"/>
<path fill-rule="evenodd" clip-rule="evenodd" d="M39.8369 72.0545C61.0569 72.0545 78.2592 54.8523 78.2592 33.6322C78.2592 29.8715 77.7188 26.237 76.7116 22.802C70.3232 18.0652 62.4138 15.2634 53.85 15.2634C32.63 15.2634 15.4277 32.4657 15.4277 53.6857C15.4277 57.4464 15.968 61.081 16.9753 64.5159C23.3637 69.2528 31.2731 72.0545 39.8369 72.0545Z" fill="#E3D6FF"/>
<path fill-rule="evenodd" clip-rule="evenodd" d="M53.8505 100.205C79.5425 100.205 100.37 79.3779 100.37 53.686C100.37 53.3734 100.367 53.0617 100.361 52.7506L33.936 95.7393C39.9729 98.6032 46.7246 100.205 53.8505 100.205Z" fill="#7969D6"/>
<path d="M92.2057 120.856L100.465 115.445C103.028 113.736 103.598 110.319 101.889 107.756L85.3704 82.9779C82.2376 78.4211 76.2568 77.2818 71.7 80.1299L70.5608 80.9843C66.0039 84.1171 64.8647 90.0979 67.7127 94.6547L84.2313 119.432C86.2249 121.996 89.6425 122.565 92.2057 120.856Z" fill="#5548A5"/>
<path fill-rule="evenodd" clip-rule="evenodd" d="M96.4044 109.427L88.1452 114.839C85.6879 116.477 82.4454 116.021 80.4251 113.722L67.7134 94.6547C64.8653 90.0979 66.0046 84.1171 70.5614 80.9843L71.7006 80.1299C76.0372 77.4195 81.6633 78.3202 84.8972 82.341L97.8284 101.738C99.5373 104.301 98.9676 107.719 96.4044 109.427Z" fill="#8878E6"/>
<path fill-rule="evenodd" clip-rule="evenodd" d="M92.598 85.4594C98.6038 77.6235 102.173 67.8217 102.173 57.1862C102.173 52.1867 101.384 47.3715 99.9245 42.8581C99.3745 42.8163 98.8188 42.795 98.2581 42.795C86.2708 42.795 76.5532 52.5126 76.5532 64.4999C76.5532 74.5291 83.3555 82.9696 92.598 85.4594Z" fill="#4B4282"/>
<path d="M99.9647 79.6389C111.952 79.6389 121.67 69.9213 121.67 57.934C121.67 45.9467 111.952 36.2291 99.9647 36.2291C87.9774 36.2291 78.2598 45.9467 78.2598 57.934C78.2598 69.9213 87.9774 79.6389 99.9647 79.6389Z" fill="#81B558"/>
<path fill-rule="evenodd" clip-rule="evenodd" d="M117.02 50.1684C117.02 59.9682 108.063 67.9125 97.013 67.9125C88.4682 67.9125 81.1744 63.1618 78.3066 56.4761C79.0566 45.1687 88.466 36.2291 99.9633 36.2291C105.736 36.2291 110.982 38.4827 114.871 42.1581C116.246 44.5644 117.02 47.2861 117.02 50.1684Z" fill="#C4ECA5"/>
</svg>
