<svg width="129" height="129" viewBox="0 0 129 129" fill="none" xmlns="http://www.w3.org/2000/svg">
<g clip-path="url(#clip0_4868_30816)">
<path fill-rule="evenodd" clip-rule="evenodd" d="M63.8235 117.698C49.6221 104.92 59.8918 73.8056 65.1792 57.6724C54.4011 76.7205 40.9115 108.614 57.621 124.205C58.9089 125.154 62.0271 125.391 63.4168 123.629C65.247 121.629 65.0775 118.613 63.8235 117.664V117.698Z" fill="#0E784D"/>
<path fill-rule="evenodd" clip-rule="evenodd" d="M64.156 58.1052L73.1559 60.6408C84.6515 63.8 93.6122 65.3868 103.145 70.4309C111.472 74.8201 117.474 85.6434 110.646 94.9742C105.511 101.999 94.1616 102.5 86.851 97.6244C88.0378 106.405 78.356 114.868 67.3568 110.651C62.4877 108.783 58.3588 103.73 57.8142 95.7835C57.3008 87.8005 59.7842 77.2409 61.6466 68.3269L64.1612 58.1728L64.156 58.1052Z" fill="#0E784D"/>
<path fill-rule="evenodd" clip-rule="evenodd" d="M63.384 56.8343L70.6673 58.8644C79.964 61.4166 87.2202 62.7126 94.925 66.7717C101.65 70.3468 106.505 79.0725 100.991 86.6244C96.8343 92.3046 87.6485 92.7182 81.7476 88.7557C82.7058 95.8381 74.87 102.685 65.9785 99.2774C62.0328 97.7556 58.6856 93.6846 58.277 87.2372C57.839 80.792 59.8599 72.2431 61.3653 65.0296L63.3818 56.805L63.384 56.8343Z" fill="#008D64"/>
<path fill-rule="evenodd" clip-rule="evenodd" d="M65.8906 59.1297L55.3836 55.2997C44.0971 49.7751 28.54 43.6065 23.1171 36.0483C19.321 30.727 19.9989 24.2534 23.3543 19.61C28.54 12.4246 39.0809 11.7467 46.6052 15.4072C49.1811 9.23858 56.2648 5.10359 64.7721 7.34056C70.7373 8.89965 75.1774 15.136 75.1096 23.6433C75.0079 32.5573 71.6186 40.4883 69.1444 49.3006L65.8906 59.1297Z" fill="#0E784D"/>
<path fill-rule="evenodd" clip-rule="evenodd" d="M66.2869 59.8647L57.6706 56.7261C48.4029 52.1959 35.6413 47.1327 31.1703 40.9148C28.0318 36.5622 28.5943 31.2326 31.3776 27.4426C35.6413 21.5503 44.2872 20.9878 50.4459 24.0079C52.5482 18.9447 58.3812 15.5397 65.3394 17.3754C70.2545 18.6782 73.8965 23.771 73.8372 30.7588C73.778 38.0723 70.9651 44.5863 68.9517 51.811L66.2869 59.8943V59.8647Z" fill="#008D64"/>
<path fill-rule="evenodd" clip-rule="evenodd" d="M62.362 68.0467L63.9752 58.8807L53.836 56.784C44.4894 55.1449 33.5366 51.6783 22.7721 55.9521C8.13305 61.7851 6.53696 81.2929 21.3286 85.567C20.1016 94.8776 26.2692 105.209 35.9311 105.895C53.3513 107.108 59.4909 81.2219 62.3914 68.0636L62.362 68.0467Z" fill="#16B493"/>
<path fill-rule="evenodd" clip-rule="evenodd" d="M64.5925 66.0033L65.9494 58.3213L57.4239 56.5474C49.5804 55.1673 40.376 52.2668 31.3381 55.8639C19.0591 60.7729 17.6823 77.1535 30.1039 80.7222C29.0508 88.5445 34.2577 97.2176 42.3678 97.7723C56.9915 98.7993 62.1496 77.081 64.5925 66.0033Z" fill="#1AC8A3"/>
<path fill-rule="evenodd" clip-rule="evenodd" d="M63.9754 58.8807L62.3623 68.0467L62.3917 68.0637C59.4912 81.2219 53.3516 107.108 35.9314 105.895C26.4607 105.223 20.3475 95.2829 21.2647 86.1211L63.3879 58.7592L63.9754 58.8807Z" fill="#239D41"/>
<path fill-rule="evenodd" clip-rule="evenodd" d="M65.9498 58.3214L64.5929 66.0033C62.15 77.081 56.9919 98.7993 42.3682 97.7723C34.2581 97.2176 29.0512 88.5445 30.1043 80.7222C29.9826 80.6872 29.8623 80.651 29.7433 80.6137L64.52 58.0238L65.9498 58.3214Z" fill="#29B24A"/>
<path fill-rule="evenodd" clip-rule="evenodd" d="M76.6351 60.3895L67.8906 57.2036L71.1444 47.3745C74.3982 38.4605 76.8724 27.2418 85.9558 20.0564C98.3269 10.2951 116.019 18.6667 112.325 33.6137C121.002 37.2064 126.865 47.7134 122.629 56.424C114.969 72.1167 89.4808 64.4907 76.6351 60.4234V60.3895Z" fill="#16B493"/>
<path fill-rule="evenodd" clip-rule="evenodd" d="M73.7501 61.2997L66.4189 58.6338L69.1454 50.3635C71.8719 42.8808 73.9622 33.4593 81.5963 27.4308C91.9872 19.2514 106.862 26.2493 103.741 38.7911C111.042 41.7902 115.95 50.6361 112.375 57.937C105.953 71.115 84.5652 64.7229 73.7501 61.2997Z" fill="#1AC8A3"/>
<path fill-rule="evenodd" clip-rule="evenodd" d="M67.8906 57.2036L76.6351 60.3896V60.4235C89.4808 64.4907 114.969 72.1167 122.629 56.4241C126.781 47.8859 121.23 37.6218 112.837 33.8352L68.0792 56.634L67.8906 57.2036Z" fill="#239D40"/>
<path fill-rule="evenodd" clip-rule="evenodd" d="M66.4189 58.6338L73.7501 61.2997C84.5652 64.7229 105.953 71.115 112.375 57.937C115.95 50.6362 111.042 41.7902 103.741 38.7911C103.772 38.6683 103.801 38.546 103.828 38.4242L66.8762 57.2468L66.4189 58.6338Z" fill="#29B24A"/>
</g>
<defs>
<clipPath id="clip0_4868_30816">
<rect width="128" height="128" fill="white" transform="translate(0.5 0.5)"/>
</clipPath>
</defs>
</svg>
