<svg width="129" height="129" viewBox="0 0 129 129" fill="none" xmlns="http://www.w3.org/2000/svg">
<path d="M9.88777 19.1586L5.46533 23.5811L103.21 121.325L107.632 116.903L9.88777 19.1586Z" fill="#675CA8"/>
<path d="M113.07 60.5774C106.436 51.4389 98.6791 49.7994 93.0017 48.585C88.7512 47.6742 86.3982 47.1884 84.2123 44.1675C83.4836 43.1808 82.5576 42.3914 81.4647 41.8753C80.5387 40.2814 80.1288 38.3535 79.5823 35.788C78.3831 30.1258 76.7284 22.3687 67.5899 15.7197C62.4741 12.0005 56.6449 10.1941 49.7834 10.1941C42.922 10.1941 35.8631 12.0613 29.6696 13.7159C24.569 15.0821 19.7569 16.3573 16.0225 16.3573C14.6108 16.3573 13.4419 16.1599 12.5311 15.7956C11.6203 15.4161 10.6639 15.2188 9.67718 15.2188C6.67149 15.2188 3.9694 17.01 2.8157 19.788C1.23695 23.5679 3.0434 27.9246 6.82329 29.5034C9.60128 30.6571 12.6221 31.2339 16.0225 31.2339C21.6696 31.2339 27.4229 29.7007 33.5102 28.0764C39.3242 26.5281 44.8043 25.0556 49.6772 25.0556C54.55 25.0556 56.3413 25.9057 58.8612 27.7425C63.385 31.0214 64.0377 34.1486 65.0396 38.8696C66.1326 44.0005 67.6203 51.0442 75.2256 56.585C75.4685 56.7671 75.7417 56.9341 76.0149 57.0859C80.7512 61.1694 86.0339 62.2928 89.9049 63.1125C94.6259 64.1144 97.7531 64.7823 101.032 69.2909C105.738 75.7577 103.4 84.5167 100.698 94.6419C98.1781 104.084 95.7948 113.01 99.2559 121.329C100.41 124.107 103.112 125.898 106.117 125.898C109.123 125.898 108.06 125.701 108.971 125.321C112.751 123.742 114.542 119.386 112.979 115.606C111.461 111.963 113.282 105.101 115.059 98.4673C118.11 87.0062 121.92 72.752 113.055 60.547L113.07 60.5774Z" fill="#675CA8"/>
<path d="M93.002 48.6002C88.7515 47.6894 86.3986 47.2037 84.2126 44.1828C83.484 43.1961 82.558 42.4067 81.465 41.8906C80.539 40.2966 80.1291 38.3687 79.5826 35.8033C78.3834 30.141 76.7287 22.3839 67.5902 15.735C62.4745 12.0158 56.6453 10.2094 49.7838 10.2094C42.9223 10.2094 35.8635 12.0765 29.6699 13.7312C24.5694 15.0974 19.7572 16.3725 16.0229 16.3725C14.6111 16.3725 13.4422 16.1752 12.5314 15.8109C11.6206 15.4314 10.6642 15.234 9.67751 15.234C8.6908 15.234 7.43084 15.4921 6.44412 15.9627C4.92609 19.7274 6.71736 24.0386 10.4669 25.6173C13.2449 26.771 16.2657 27.3479 19.6661 27.3479C25.3132 27.3479 31.0665 25.8147 37.1538 24.1904C42.9678 22.642 48.4479 21.1695 53.3208 21.1695C58.1936 21.1695 59.9849 22.0196 62.5048 23.8564C67.0286 27.1353 67.6813 30.2625 68.6832 34.9835C69.7762 40.1145 71.2639 47.1581 78.8692 52.6989C79.1121 52.8811 79.3853 53.0481 79.6585 53.1999C84.3948 57.2834 89.6775 58.4067 93.5485 59.2264C98.2695 60.2283 101.397 60.8963 104.676 65.4048C109.382 71.8716 107.044 80.6306 104.342 90.7558C101.822 100.198 99.4384 109.124 102.9 117.443C104.053 120.221 106.755 122.012 109.761 122.012C112.767 122.012 111.704 121.815 112.615 121.435C112.736 121.39 112.858 121.314 112.979 121.253C113.678 119.507 113.738 117.488 112.949 115.621C111.431 111.978 113.252 105.116 115.029 98.4826C118.08 87.0215 121.89 72.7672 113.025 60.5623C106.391 51.4238 98.6339 49.7843 92.9564 48.5699L93.002 48.6002Z" fill="#7E6EDA"/>
<path d="M92.7787 29.8785L36.5425 86.9055L43.2331 93.5033L99.4693 36.4764L92.7787 29.8785Z" fill="#E89972"/>
<path d="M40.3107 90.8773L36.5156 86.809L92.7281 29.7463L96.508 33.8146L40.3107 90.8773Z" fill="#FFB58B"/>
<path d="M56.0381 86.2624L54.0495 75.8032L43.8332 74.0423C39.7952 73.344 35.6662 74.6495 32.7668 77.5489L19.9394 90.3762C19.317 90.9986 19.651 92.0613 20.5163 92.2131L35.1197 94.733L37.9736 109.731C38.1406 110.581 39.188 110.915 39.7952 110.293L52.5618 97.5261C55.522 94.566 56.8123 90.3459 56.0381 86.2472V86.2624Z" fill="#CC6532"/>
<path d="M32.7668 77.5488L19.9394 90.3762C19.317 90.9986 19.651 92.0612 20.5163 92.213L35.1197 94.7329L37.5941 107.758L48.7819 96.5697C51.7421 93.6096 53.0324 89.3895 52.2582 85.2908L50.3303 75.1504L43.8484 74.027C39.8104 73.3287 35.6814 74.6342 32.7819 77.5337L32.7668 77.5488Z" fill="#EA7A3B"/>
<path d="M87.1118 16.9949C83.6963 20.6533 83.4686 26.7406 87.7798 30.8848C90.8158 33.7994 94.3832 33.8601 95.9771 33.6931C95.8253 35.2871 95.8708 38.8696 98.7854 41.8905C102.945 46.2017 109.017 45.974 112.675 42.5584C116.334 39.1429 117.154 34.1182 117.351 30.0347C117.488 24.6457 116.865 17.3744 115.894 13.7918C112.311 12.8355 105.04 12.2131 99.6507 12.3497C95.552 12.547 90.5426 13.3668 87.127 17.0252L87.1118 16.9949Z" fill="#BF4283"/>
<path d="M106.269 38.0043C104.417 38.0043 102.641 37.2149 101.245 35.7728C98.3452 32.9189 99.2408 27.3022 99.2408 27.3022C99.2408 27.3022 96.0985 27.3781 95.8253 27.3781C94.5046 27.3781 92.5767 27.0441 90.8917 25.4198C87.719 22.3534 88.2503 18.2851 90.3604 16.0233C93.0625 13.139 97.3281 12.6077 100.319 12.4711C100.698 12.4711 101.138 12.4711 101.594 12.4711C105.586 12.4711 110.216 12.8658 113.192 13.4274V13.473H113.237C113.875 16.843 114.269 22.2016 114.163 26.4217C114.026 29.3515 113.495 33.6172 110.611 36.3193C109.427 37.4274 107.878 38.0346 106.239 38.0346L106.269 38.0043Z" fill="#D45898"/>
<path d="M33.1501 21.1773C36.8608 20.3682 39.5967 18.4639 39.2609 16.9239C38.9252 15.384 35.6448 14.7914 31.9341 15.6005C28.2234 16.4096 25.4875 18.3138 25.8233 19.8538C26.1591 21.3938 29.4394 21.9863 33.1501 21.1773Z" fill="#B0A2FF"/>
<path d="M109.302 60.07C109.954 58.6346 108.204 56.4378 105.394 55.1632C102.584 53.8887 99.7788 54.0191 99.1277 55.4545C98.4766 56.8899 100.226 59.0867 103.036 60.3612C105.846 61.6357 108.651 61.5054 109.302 60.07Z" fill="#B0A2FF"/>
<path d="M96.5736 21.6965C98.552 21.1441 99.8122 19.4657 99.3883 17.9476C98.9645 16.4295 97.0171 15.6466 95.0387 16.199C93.0603 16.7514 91.8001 18.4298 92.224 19.9479C92.6479 21.466 94.5953 22.2489 96.5736 21.6965Z" fill="#E576B3"/>
</svg>
