<svg width="129" height="129" viewBox="0 0 129 129" fill="none" xmlns="http://www.w3.org/2000/svg">
<g clip-path="url(#clip0_4869_2778)">
<path d="M73.7169 72.4C73.7169 72.4 60.3663 75.2238 49.0889 80.1208C39.0447 84.4816 31.6635 89.4501 31.6635 89.4501C31.6635 89.4501 25.9265 80.1029 15.8465 64.7864C6.53509 50.6316 1.49512 33.1704 1.49512 33.1704C1.49512 33.1704 14.7027 29.3636 23.5673 24.7883C32.432 20.213 46.2651 12.1348 46.2651 12.1348C46.2651 12.1348 53.6642 20.7134 62.9935 38.7108C72.1441 56.3328 73.7169 72.4 73.7169 72.4Z" fill="#C8C4D5"/>
<path d="M75.1283 74.0981C75.1283 74.0981 61.7777 76.9219 50.5004 81.8189C40.4561 86.1797 33.0749 91.1482 33.0749 91.1482C33.0749 91.1482 24.5677 80.6215 16.3822 64.2147C9.50141 50.4531 5.85547 34.9042 5.85547 34.9042C5.85547 34.9042 16.275 31.1868 27.1592 24.8064C38.5081 18.1579 46.2289 12.1171 46.2289 12.1171C46.2289 12.1171 55.0756 22.4115 64.405 40.391C73.5556 58.0309 75.1283 74.0981 75.1283 74.0981Z" fill="#E8D8E8"/>
<path d="M74.9152 74.3019C74.9152 74.3019 73.2931 57.7304 63.8553 39.5367C60.5004 33.0482 58.3134 29.1755 55.4378 24.7515C45.3917 25.8575 38.9455 25.9259 38.9455 25.9259C38.9455 25.9259 36.0146 38.184 36.0146 58.221C36.0146 70.2764 39.0925 81.0783 40.6563 86.5367C43.7899 84.7671 44.7399 84.3297 49.5141 82.2651C61.1456 77.2144 74.9152 74.3019 74.9152 74.3019Z" fill="#CBBCCC"/>
<path d="M20.1217 38.9541C19.7679 39.1531 19.4584 39.3963 19.2152 39.6837C19.5247 38.9983 19.5247 38.1803 19.171 37.4728C18.5298 36.1684 16.9159 35.6599 15.5451 36.301C14.1965 37.0085 13.6438 38.6004 14.2849 39.9048C14.6387 40.6123 15.2798 41.0987 16.0094 41.2755C15.6336 41.2755 15.2577 41.364 14.8819 41.5409C13.5553 42.2483 12.9805 43.8402 13.6217 45.1446C14.2628 46.449 15.8768 46.9575 17.2475 46.3164C18.353 45.7415 18.9278 44.5698 18.7288 43.4422C19.0383 44.3929 19.6795 46.4711 19.6795 47.5102L21.9125 46.4048C21.0945 45.7858 19.8343 43.9949 19.2594 43.1769C20.0332 44.017 21.3377 44.2602 22.4431 43.7296C23.7696 43.0443 24.3445 41.4303 23.7033 40.148C23.1064 38.8436 21.4924 38.313 20.1217 38.9541Z" fill="#0F3049"/>
<path d="M67.1041 65.2155C66.8181 65.3585 66.5679 65.573 66.3892 65.8053C66.6215 65.2513 66.6394 64.6079 66.3534 64.036C65.8351 62.9994 64.5483 62.5883 63.4581 63.0887C62.3858 63.6428 61.939 64.9117 62.4573 65.9483C62.7432 66.5202 63.2437 66.8955 63.8335 67.0385C63.5296 67.0385 63.2258 67.11 62.9398 67.253C61.8675 67.807 61.4207 69.0759 61.939 70.1125C62.4573 71.1491 63.7441 71.5602 64.8343 71.0598C65.71 70.5951 66.1747 69.6657 66.0139 68.7542C66.2641 69.5049 66.7645 71.167 66.7824 71.9891L68.5696 71.1134C67.9262 70.6129 66.9075 69.201 66.4607 68.5398C67.0862 69.201 68.1049 69.4155 68.9985 68.9866C70.0709 68.4325 70.5177 67.1636 69.9994 66.127C69.4811 65.1262 68.1943 64.7151 67.1041 65.2155Z" fill="black"/>
<path d="M44.4962 49.2379C43.835 49.5774 43.2988 50.0421 42.852 50.5783C43.406 49.3093 43.4239 47.8617 42.7805 46.557C41.6009 44.18 38.6877 43.2328 36.1856 44.4123C33.755 45.6813 32.7184 48.5766 33.898 50.9536C34.5414 52.2583 35.7031 53.1161 37.0435 53.4557C36.3644 53.4736 35.6495 53.6344 34.9882 53.9383C32.5576 55.2072 31.521 58.1204 32.7005 60.4795C33.8801 62.8565 36.7933 63.8037 39.2954 62.6242C41.2971 61.5876 42.3516 59.4429 42.012 57.3876C42.566 59.1033 43.7456 62.9101 43.7456 64.7688L47.8026 62.7671C46.3192 61.6233 44.0137 58.3884 42.995 56.905C44.4069 58.4242 46.766 58.8889 48.8034 57.9238C51.2341 56.6548 52.2707 53.7595 51.0911 51.3825C49.9115 49.0234 46.9805 48.0762 44.4962 49.2379Z" fill="#0F3049"/>
<path d="M88.9269 100.923C88.9269 100.923 79.1865 97.9745 66.39 97.7779C53.5935 97.5813 44.0497 99.6902 44.0497 99.6902C44.0497 99.6902 41.208 84.2129 41.208 64.7857C41.208 45.3586 44.0497 33.4735 44.0497 33.4735C44.0497 33.4735 52.4497 29.7025 66.39 29.3987C80.3304 29.0948 90.589 34.4565 90.589 34.4565C90.589 34.4565 91.7865 49.0403 91.6435 65.7866C91.4827 82.4256 88.9269 100.923 88.9269 100.923Z" fill="#C8C4D5"/>
<path d="M88.3537 97.4739C88.3537 97.4739 78.6133 94.525 65.8168 94.3284C53.0202 94.1318 43.4765 96.2408 43.4765 96.2408C43.4765 96.2408 40.6348 80.7634 40.6348 61.3363C40.6348 41.9091 43.4765 30.0241 43.4765 30.0241C43.4765 30.0241 51.8764 26.253 65.8168 25.9492C79.7571 25.6454 89.9979 30.9892 89.9979 30.9892C89.9979 30.9892 91.1954 45.5729 91.0524 62.3192C90.9094 78.9762 88.3537 97.4739 88.3537 97.4739Z" fill="#E8D8E8"/>
<path d="M68.0918 64.6247C61.9259 77.6715 58.7268 88.8237 57.2612 94.8467C60.8357 94.5071 65.1965 94.239 70.0399 94.3284C82.8364 94.525 92.5768 97.4739 92.5768 97.4739C92.5768 97.4739 95.1325 78.9761 95.2755 62.3371C95.3291 56.618 95.2219 51.1669 95.061 46.4486C88.2696 43.9108 82.9763 41.7406 82.9763 41.7406C82.9763 41.7406 76.5633 46.6989 68.0918 64.6247Z" fill="#CBBCCC"/>
<path d="M51.8119 32.8478C51.8119 32.8478 53.6993 36.2151 56.2944 39.1319C53.6564 42.0487 51.7691 45.3945 51.7691 45.3945C51.7691 45.3945 49.8817 42.0273 47.2651 39.1104C49.9031 36.1936 51.8119 32.8478 51.8119 32.8478Z" fill="#ED0049"/>
<path d="M81.4374 80.4236C81.4374 80.4236 83.0101 83.2296 85.1727 85.6602C82.9744 88.0908 81.4016 90.8789 81.4016 90.8789C81.4016 90.8789 79.8289 88.073 77.6484 85.6423C79.8467 83.2117 81.4374 80.4236 81.4374 80.4236Z" fill="#ED1C24"/>
<path d="M66.5394 25.9166C64.3233 31.1532 62.2243 36.9378 60.8124 43.3361C56.2907 63.7283 51.606 81.3034 51.606 81.3034C51.606 81.3034 68.7607 79.0693 79.9487 82.3756C84.3631 83.6803 88.3844 85.1816 91.6372 86.522C92.3163 79.7663 93.0133 70.7766 93.0848 62.2515C93.2278 45.5052 92.0303 30.9214 92.0303 30.9214C92.0303 30.9214 81.0856 25.0433 66.5394 25.9166Z" fill="#CBBCCC"/>
<path d="M101.49 83.7311C101.49 83.7311 92.8582 79.1915 81.6702 75.8673C70.4643 72.5609 59.7588 71.2384 59.7588 71.2384C59.7588 71.2384 59.7588 57.4589 64.2983 37.0488C68.6413 17.4608 78.3102 0.5 78.3102 0.5C78.3102 0.5 98.3629 9.81144 124.957 14.8872C124.921 14.8514 123.938 30.3645 118.326 48.5049C112.714 66.6095 101.49 83.7311 101.49 83.7311Z" fill="#C8C4D5"/>
<path d="M102.856 86.6798C102.856 86.6798 93.8853 82.1402 82.2591 78.816C70.633 75.5096 59.5083 74.1871 59.5083 74.1871C59.5083 74.1871 59.5083 60.4076 64.2256 39.9975C68.7386 20.4095 80.1048 4.10999 80.1048 4.10999C80.1048 4.10999 88.5551 7.63082 103.617 11.4197C118.679 15.2087 127.501 14.9584 127.501 14.9584C127.501 14.9584 126.201 33.3132 120.369 51.4536C114.537 69.576 102.856 86.6798 102.856 86.6798Z" fill="#E8D8E8"/>
<path d="M80.5689 78.2462C92.3111 81.7163 103.172 86.8545 103.172 86.8545C103.172 86.8545 113.359 72.1379 119.455 54.0932C114.56 52.9115 106.252 50.0075 99.8369 47.7566C88.8825 43.8925 80.5689 38.7908 80.5689 38.7908C80.5689 38.7908 76.9199 45.3677 68.1601 63.9001C66.3782 67.6704 64.8035 71.3565 63.4717 74.7516C67.3322 75.4732 72.0155 75.7327 80.5689 78.2462Z" fill="#CBBCCC"/>
<path d="M93.1078 38.4607C93.1078 38.4607 96.8074 34.2608 101.865 35.7442C107.28 37.3348 108.049 45.6275 100.9 50.2564C95.7886 53.5807 90.284 55.0819 87.6031 55.6538C85.7444 53.6164 82.1342 49.2198 79.9002 43.5365C76.7726 35.6369 82.2057 29.328 87.5495 31.151C92.518 32.8846 93.1078 38.4607 93.1078 38.4607Z" fill="#ED0049"/>
<path d="M84.4238 14.6456C84.4238 14.6456 85.7931 13.1104 87.6395 13.6498C89.6311 14.2307 89.9008 17.2803 87.2868 18.9815C85.3989 20.2055 83.3865 20.7449 82.4115 20.9731C81.7269 20.2262 80.3991 18.6081 79.59 16.5335C78.449 13.629 80.4406 11.3262 82.3907 11.9901C84.1956 12.5917 84.4238 14.6456 84.4238 14.6456Z" fill="#ED0049"/>
<path d="M99.0957 72.7398C99.0957 72.7398 100.275 71.4172 101.866 71.8819C103.582 72.3823 103.814 75.0096 101.562 76.4751C99.9357 77.5295 98.202 77.9942 97.362 78.1908C96.7723 77.5474 95.6284 76.1534 94.9314 74.3662C93.9485 71.864 95.6642 69.8802 97.3442 70.4521C98.9169 70.9704 99.0957 72.7398 99.0957 72.7398Z" fill="#ED1C24"/>
<path d="M98.8108 128.501C98.8108 128.501 77.0424 106.393 55.3276 103.266C55.417 102.676 58.7162 91.3114 68.0097 71.6697C76.4991 53.7439 82.4577 48.7912 82.4577 48.7912C82.4577 48.7912 90.107 51.9725 100.723 55.7256C111.321 59.4609 124.726 58.8729 124.726 58.8729C124.726 58.8729 126.631 73.8822 116.683 96.1884C109.874 113.256 98.8108 128.501 98.8108 128.501Z" fill="#C8C4D5"/>
<path d="M98.7392 120.905C98.7392 120.905 90.1601 115.383 78.0069 109.199C65.8538 103.015 55.3628 102.98 55.3628 102.98C55.3628 102.98 59.2027 88.5899 68.4962 68.9483C76.9855 51.0224 82.9397 45.4131 82.9397 45.4131C82.9397 45.4131 90.589 48.5943 101.205 52.3475C111.821 56.1007 124.725 58.7815 124.725 58.7815C124.725 58.7815 124.689 70.5772 116.593 90.898C109.784 108.002 98.7392 120.905 98.7392 120.905Z" fill="#E8D8E8"/>
<path d="M98.0424 83.0522C96.0049 78.9774 94.8969 76.9042 94.7181 72.3825C91.1616 75.1706 88.8739 75.671 84.4416 76.7612C77.525 78.4591 77.8825 85.0182 81.725 87.1092C84.1199 88.396 86.4075 87.3416 87.6229 86.5552C86.7114 87.9492 85.0493 90.3977 83.9412 91.3271L87.2833 92.8641C87.2833 91.4165 88.0697 88.5569 88.5343 86.9663C88.7131 88.3782 89.3922 90.8445 91.9301 91.8096C95.9871 93.3824 101.224 89.4148 98.0424 83.0522Z" fill="#0F3049"/>
<path d="M89.215 57.5742C88.2232 55.5699 87.686 54.5574 87.5826 52.3465C85.847 53.7102 84.7105 53.9582 82.5409 54.4954C79.1522 55.322 79.3381 58.5454 81.1978 59.5579C82.3756 60.1984 83.4914 59.6612 84.0906 59.2892C83.6567 59.9711 82.8302 61.1696 82.2929 61.6241L83.9253 62.3887C83.9253 61.6861 84.3179 60.2811 84.5452 59.4959C84.6278 60.1984 84.9584 61.3969 86.1982 61.8721C88.2025 62.6366 90.7647 60.6943 89.215 57.5742Z" fill="#0F3049"/>
<path d="M101.565 109.135C100.573 107.131 100.036 106.119 99.9322 103.908C98.1966 105.272 97.0601 105.519 94.8905 106.057C91.5018 106.883 91.6877 110.107 93.5474 111.119C94.7252 111.76 95.841 111.222 96.4402 110.851C96.0063 111.532 95.1798 112.731 94.6425 113.185L96.2749 113.95C96.2749 113.247 96.6675 111.842 96.8948 111.057C96.9774 111.76 97.3081 112.958 98.5478 113.433C100.552 114.198 103.114 112.256 101.565 109.135Z" fill="#0F3049"/>
</g>
<defs>
<clipPath id="clip0_4869_2778">
<rect width="128" height="128" fill="white" transform="translate(0.5 0.5)"/>
</clipPath>
</defs>
</svg>
